<?xml version="1.0" encoding="UTF-8" standalone="no"?>
<!-- Created with Inkscape (http://www.inkscape.org/) -->

<svg
   xmlns:dc="http://purl.org/dc/elements/1.1/"
   xmlns:cc="http://creativecommons.org/ns#"
   xmlns:rdf="http://www.w3.org/1999/02/22-rdf-syntax-ns#"
   xmlns:svg="http://www.w3.org/2000/svg"
   xmlns="http://www.w3.org/2000/svg"
   xmlns:sodipodi="http://sodipodi.sourceforge.net/DTD/sodipodi-0.dtd"
   xmlns:inkscape="http://www.inkscape.org/namespaces/inkscape"
   width="354.33069"
   height="354.33069"
   id="svg4610"
   version="1.1"
   inkscape:version="0.48.4 r9939"
   sodipodi:docname="etoile.svg">
  <defs
     id="defs4612" />
  <sodipodi:namedview
     id="base"
     pagecolor="#ffffff"
     bordercolor="#666666"
     borderopacity="1.0"
     inkscape:pageopacity="0.0"
     inkscape:pageshadow="2"
     inkscape:zoom="0.52591067"
     inkscape:cx="90.282359"
     inkscape:cy="292.72264"
     inkscape:document-units="px"
     inkscape:current-layer="layer1"
     showgrid="false"
     units="cm"
     inkscape:window-width="1272"
     inkscape:window-height="724"
     inkscape:window-x="0"
     inkscape:window-y="20"
     inkscape:window-maximized="1" />
  <metadata
     id="metadata4615">
    <rdf:RDF>
      <cc:Work
         rdf:about="">
        <dc:format>image/svg+xml</dc:format>
        <dc:type
           rdf:resource="http://purl.org/dc/dcmitype/StillImage" />
        <dc:title></dc:title>
      </cc:Work>
    </rdf:RDF>
  </metadata>
  <g
     inkscape:label="Calque 1"
     inkscape:groupmode="layer"
     id="layer1"
     transform="translate(0,-698.03017)">
    <path
       inkscape:connector-curvature="0"
       id="path11610"
       d="m 181.54525,769.35128 c -57.0527,0 -103.300702,46.2469 -103.300702,103.2973 0,57.0505 46.248002,103.2974 103.300702,103.2974 57.0504,0 103.2972,-46.2469 103.2972,-103.2974 0,-57.0504 -46.2468,-103.2973 -103.2972,-103.2973 z m -24.4751,49.2244 c 3.6653,0 6.6369,6.1067 6.6369,13.6464 l 0,0.013 c 0,7.5397 -2.9669,13.649 -6.6299,13.6535 -3.6653,0 -6.6383,-6.1031 -6.6405,-13.643 l 0,-0.013 c 0,-7.5398 2.9682,-13.6548 6.6335,-13.657 z m 48.9432,0 c 3.6653,0 6.6348,6.1067 6.637,13.6464 l 0,0.013 c 0,7.5397 -2.967,13.649 -6.63,13.6535 -3.6653,0 -6.6383,-6.1031 -6.6405,-13.643 l 0,-0.013 c 0,-7.5398 2.9682,-13.6548 6.6335,-13.657 z m 46.2694,44.6849 c 0.1961,0.02 0.3902,0.053 0.5796,0.1053 0.7578,0.2126 1.4192,0.6675 2.0624,1.1208 3.2006,2.2554 6.3141,4.7034 8.7768,7.7473 3.1085,3.8421 5.0794,8.5329 6.0468,13.3794 0.1172,0.5862 0.2232,1.1873 0.1543,1.7814 -0.033,0.2967 -0.1146,0.5909 -0.2497,0.8573 -0.1352,0.267 -0.3286,0.5055 -0.573,0.6781 -0.3087,0.2192 -0.6896,0.3252 -1.0681,0.3339 -0.3789,0.01 -0.7531,-0.076 -1.1068,-0.2107 -0.7072,-0.2709 -1.3206,-0.7344 -1.9781,-1.1102 -1.1157,-0.6379 -2.3777,-1.0249 -3.661,-1.0928 -1.6508,-0.087 -3.3116,0.3544 -4.7574,1.156 -1.5272,0.8466 -2.8159,2.0758 -3.928,3.4222 -1.1122,1.3463 -2.0597,2.8161 -3.0392,4.2618 -8.8068,12.9975 -20.3604,24.2712 -34.1198,31.8324 -10.0229,5.508 -21.2444,9.0194 -32.6756,9.3706 -13.6586,0.4193 -27.2546,-3.7025 -39.0386,-10.6214 -11.6532,-6.842 -21.623,-16.3543 -29.7384,-27.1595 -1.0492,-1.3968 -2.0708,-2.8217 -3.25,-4.1107 -1.1792,-1.289 -2.5274,-2.4472 -4.0967,-3.2149 -1.4866,-0.7272 -3.1712,-1.0861 -4.8171,-0.9134 -1.2747,0.1338 -2.511392,0.5842 -3.590792,1.2754 -0.6386,0.4087 -1.2286,0.9023 -1.9219,1.2086 -0.3464,0.153 -0.7174,0.2564 -1.0962,0.267 -0.3789,0.013 -0.766,-0.074 -1.0856,-0.2776 -0.2524,-0.1603 -0.4558,-0.3901 -0.6042,-0.6498 -0.1483,-0.2597 -0.2424,-0.5485 -0.2914,-0.8433 -0.099,-0.5895 -0.027,-1.1933 0.066,-1.7849 0.7199,-4.8877 2.4452,-9.6746 5.3546,-13.6676 2.305992,-3.165 5.293892,-5.7674 8.376192,-8.1829 0.6207,-0.4862 1.2621,-0.9719 2.0097,-1.2227 0.3736,-0.1252 0.7702,-0.1888 1.163,-0.1544 0.3928,0.033 0.7808,0.1696 1.0927,0.4114 0.2941,0.2279 0.514,0.5425 0.6498,0.8888 0.1358,0.3465 0.1908,0.7209 0.1862,1.0928 -0.01,0.7438 -0.2478,1.4639 -0.4882,2.1678 -0.8123,2.3773 -1.6881,4.8131 -1.56,7.3221 0.1232,2.4235 1.178,4.7011 2.361,6.8198 4.1175,7.3742 9.9918,13.6286 16.3414,19.1978 7.1447,6.2667 15.0288,11.8 23.7759,15.5157 9.4101,3.9972 19.7075,5.8167 29.9281,5.5584 10.221,-0.2584 20.4107,-2.5936 29.6083,-7.0587 8.5513,-4.1512 16.1508,-10.0754 22.9714,-16.6962 6.0602,-5.8827 11.6103,-12.4281 15.3541,-19.999 1.0756,-2.1753 2.0142,-4.5017 2.0132,-6.9285 -0.001,-2.513 -1.0057,-4.8999 -1.9359,-7.2344 -0.2756,-0.6914 -0.5485,-1.4004 -0.5936,-2.1432 -0.02,-0.3716 0.013,-0.7471 0.1338,-1.0997 0.1193,-0.3524 0.3213,-0.679 0.6042,-0.9205 0.2994,-0.2557 0.6783,-0.4101 1.0681,-0.4637 0.1947,-0.027 0.3941,-0.027 0.5902,-0.013 z"
       style="fill:#000000;fill-opacity:1;fill-rule:nonzero;stroke:none" />
  </g>
</svg>
