<?xml version="1.0" standalone="no"?>
<!DOCTYPE svg PUBLIC "-//W3C//DTD SVG 1.1//EN" "http://www.w3.org/Graphics/SVG/1.1/DTD/svg11.dtd" >
<svg xmlns="http://www.w3.org/2000/svg">
<metadata></metadata>
<defs>
<font id="alfphabetbipocatcondensed" horiz-adv-x="827" >
<font-face units-per-em="2048" ascent="1638" descent="-410" />
<missing-glyph horiz-adv-x="548" />
<glyph horiz-adv-x="0" />
<glyph unicode="&#xd;" horiz-adv-x="380" />
<glyph unicode=" "  horiz-adv-x="548" />
<glyph unicode="&#x09;" horiz-adv-x="548" />
<glyph unicode="&#xa0;" horiz-adv-x="548" />
<glyph unicode="!" horiz-adv-x="491" d="M141 1458h209l-78 -1085h-53zM166 0v164h160v-164h-160z" />
<glyph unicode="&#x22;" horiz-adv-x="569" d="M92 1098v360h113v-360h-113zM362 1098v360h115v-360h-115z" />
<glyph unicode="#" horiz-adv-x="761" d="M37 457v73h119l51 398h-107v73h117l59 457h89l-60 -457h223l60 457h88l-60 -457h109v-73h-119l-51 -398h107v-73h-117l-60 -457h-88l60 457h-224l-59 -457h-88l59 457h-108zM244 530h223l51 398h-223z" />
<glyph unicode="$" horiz-adv-x="761" d="M47 317v60h158v-49q0 -55 32 -107t119 -74v537l-86 35q-126 50 -170 140q-43 87 -43 222q0 153 72 260q72 106 225 127v156h54v-156q75 -11 131 -40q60 -31 96 -72q38 -42 59 -95t21 -108v-80h-158v23q0 69 -30 129t-119 88v-477l102 -41q63 -27 103 -61q41 -35 63 -80 q24 -49 31 -106q8 -64 8 -140q0 -84 -16 -161q-15 -73 -51 -127t-94 -88t-144 -42v-174h-54v174q-68 7 -128 37q-58 29 -97 71q-42 45 -62 100q-22 60 -22 119zM215 1083q0 -42 4 -69q5 -31 18 -58q13 -26 40 -50q26 -23 77 -48l2 457q-46 -18 -74 -44q-26 -24 -42 -57 q-16 -32 -20 -64q-5 -38 -5 -67zM408 147q54 12 84 38q30 25 45 60q14 32 17 74q3 41 3 87q0 51 -5 94q-4 36 -21 66q-16 29 -45 49q-35 24 -78 44v-512z" />
<glyph unicode="%" horiz-adv-x="720" d="M43 1186v137q0 68 40 108q39 39 110 39q70 0 109 -39q40 -40 40 -108v-137q0 -60 -39 -97q-40 -38 -110 -38q-71 0 -111 38q-39 37 -39 97zM78 0l483 1458h82l-483 -1458h-82zM115 1206q0 -34 23 -57q25 -25 55 -25t53 25q22 23 22 57l2 109q0 34 -23 57q-25 25 -54 25 q-30 0 -55 -25q-23 -23 -23 -57v-109zM379 123v137q0 70 40 109q41 39 109 39q70 0 110 -39t40 -109v-137q0 -60 -39 -97q-40 -38 -111 -38q-70 0 -110 38q-39 38 -39 97zM451 143q0 -34 23 -57q25 -25 54 -25q30 0 55 25q23 23 23 57v109q0 34 -23 57q-25 25 -55 25 q-29 0 -54 -25q-23 -23 -23 -57v-109z" />
<glyph unicode="&#x26;" horiz-adv-x="985" d="M98 313q0 117 57 207q61 96 154 182q-62 89 -101 178q-36 82 -36 175q0 112 66 190t194 78q64 0 109 -19q48 -20 79 -54q32 -35 48 -79t16 -96q0 -99 -61 -191q-65 -98 -160 -186l101 -170q42 -72 124 -196l119 168l86 -64l-150 -200l142 -236h-148l-80 131 q-78 -79 -140 -111q-63 -32 -142 -32q-58 0 -106 22q-51 23 -88 66q-38 44 -60 103q-23 61 -23 134zM231 324q0 -41 14 -83q14 -41 37 -70q25 -31 57 -48q36 -19 75 -19q58 0 105 37q50 39 81 80l-227 377q-66 -69 -104 -133t-38 -141zM305 1051q0 -56 27 -119 q26 -60 74 -141q54 55 104 122q48 66 53 158q0 24 -9 48q-8 22 -26 43t-40 32q-24 12 -52 12q-63 0 -97 -49t-34 -106z" />
<glyph unicode="'" horiz-adv-x="380" d="M133 1098v360h115v-360h-115z" />
<glyph unicode="(" horiz-adv-x="454" d="M127 627q0 105 15 216q14 106 46 220q29 106 74 209q46 105 98 186h23q-56 -221 -77 -440q-21 -224 -21 -451q0 -212 25 -400q24 -184 73 -372h-23q-57 84 -102 193q-42 102 -73 214q-28 102 -44 218q-14 101 -14 207z" />
<glyph unicode=")" horiz-adv-x="454" d="M72 -205q55 214 76 441q22 234 22 450q0 204 -26 400q-26 192 -72 372h22q62 -98 102 -193q44 -103 72 -213q29 -113 44 -218q16 -115 16 -207q0 -98 -16 -216q-15 -108 -46 -221q-31 -110 -73 -208q-45 -104 -99 -187h-22z" />
<glyph unicode="*" horiz-adv-x="757" d="M98 989l221 133l-221 135l33 66l217 -145v280h70v-280l209 145l32 -66l-221 -135l221 -133l-32 -67l-217 145v-281h-70v281l-209 -145z" />
<glyph unicode="+" horiz-adv-x="1228" d="M121 459v119h436v458h113v-458h438v-119h-436v-459h-113v459h-438z" />
<glyph unicode="," horiz-adv-x="380" d="M111 -123v332h159v-201z" />
<glyph unicode="-" d="M96 559v166h633v-166h-633z" />
<glyph unicode="." horiz-adv-x="360" d="M98 0v166h164v-166h-164z" />
<glyph unicode="/" horiz-adv-x="454" d="M41 -12l260 1482h113l-260 -1482h-113z" />
<glyph unicode="0" d="M96 287v884q0 64 26 124t68 102t101 67t123 25t123 -25q57 -24 100 -67q44 -44 68 -102q24 -59 24 -124v-884q0 -66 -24 -123t-68 -101q-43 -43 -100 -67q-59 -25 -123 -25t-123 25t-101 67q-41 41 -68 101q-26 58 -26 123zM262 287q0 -63 44 -107q43 -43 108 -43 q62 0 105 43q44 44 44 107v884q0 64 -44 108t-105 44q-64 0 -108 -44t-44 -108v-884z" />
<glyph unicode="1" horiz-adv-x="466" d="M98 1118v234l105 106h166v-1458h-166v1225z" />
<glyph unicode="2" d="M96 0v166l453 940q14 25 14 65q0 64 -44 108t-105 44q-64 0 -108 -44t-44 -108q0 -40 21 -73l-144 -84q-17 28 -31 75q-12 41 -12 82q0 64 26 124t68 102t101 67t123 25t123 -25q57 -24 100 -67q44 -44 68 -102q24 -59 24 -124q0 -71 -31 -135l-417 -870h448v-166h-633z " />
<glyph unicode="3" d="M98 135l142 86q23 -39 62 -61q41 -23 87 -23q72 0 123 51t51 123v305q0 54 -26 94q-26 41 -70 62l-231 109l290 411h-331v166h534v-166l-248 -348q109 -35 178 -122q70 -88 70 -206v-305q0 -71 -27 -133t-72 -107q-46 -46 -109 -73t-132 -27q-93 0 -169 45 q-77 45 -122 119z" />
<glyph unicode="4" d="M98 297v166l387 995h166v-995h78v-166h-78v-297h-166v297h-387zM274 463h211v541z" />
<glyph unicode="5" d="M96 137l144 84q23 -39 62 -61q41 -23 87 -23q72 0 123 51t51 123v375q0 72 -51 123t-123 51q-84 0 -135 -61l-158 129v530h537v-166h-371v-291q59 25 127 25q69 0 132 -27q65 -28 109 -72t72 -109q27 -63 27 -132v-375q0 -71 -27 -133t-72 -107q-46 -46 -109 -73 t-132 -27q-95 0 -171 45q-78 46 -122 121z" />
<glyph unicode="6" d="M96 287v884q0 64 26 124t68 102t101 67t123 25t123 -25q57 -24 100 -67q44 -44 68 -102q24 -59 24 -124h-166q0 64 -44 108t-105 44q-64 0 -108 -44t-44 -108v-309q33 16 73 27q36 10 79 10q64 0 123 -25q57 -24 100 -67q45 -45 68 -100q24 -57 24 -123v-297 q0 -66 -24 -123t-68 -101q-43 -43 -100 -67q-59 -25 -123 -25t-123 25t-101 67q-41 41 -68 101q-26 58 -26 123zM262 287q0 -63 44 -107q43 -43 108 -43q62 0 105 43q44 44 44 107v297q0 62 -44 106q-43 43 -105 43q-65 0 -108 -43q-44 -44 -44 -106v-297z" />
<glyph unicode="7" d="M96 0l459 1292h-459v166h633v-166l-457 -1292h-176z" />
<glyph unicode="8" d="M96 287v297q0 76 33 139q32 61 86 106q-55 67 -55 158v248q0 54 20 98q22 49 54 81q33 33 80 54q46 21 100 21q50 0 97 -21q49 -22 81 -54q34 -34 54 -81q20 -48 20 -98v-248q0 -90 -56 -158q56 -44 87 -106q32 -64 32 -139v-297q0 -66 -24 -123t-68 -101 q-43 -43 -100 -67q-59 -25 -123 -25t-123 25t-101 67q-41 41 -68 101q-26 58 -26 123zM262 287q0 -63 44 -107q43 -43 108 -43q62 0 105 43q44 44 44 107v297q0 62 -44 106q-43 43 -105 43q-65 0 -108 -43q-44 -44 -44 -106v-297zM326 987q0 -37 25 -62q26 -26 63 -26 q34 0 60 26t26 62v248q0 36 -26 62t-60 26q-37 0 -63 -26q-25 -25 -25 -62v-248z" />
<glyph unicode="9" d="M96 287h166q0 -63 44 -107q43 -43 108 -43q62 0 105 43q44 44 44 107v311q-66 -39 -149 -39q-64 0 -123 25t-101 67q-41 41 -68 101q-26 58 -26 122v297q0 64 26 124t68 102t101 67t123 25t123 -25q57 -24 100 -67q44 -44 68 -102q24 -59 24 -124v-297v-587 q0 -66 -24 -123t-68 -101q-43 -43 -100 -67q-59 -25 -123 -25t-123 25t-101 67q-41 41 -68 101q-26 58 -26 123zM262 874q0 -61 44 -105t108 -44q61 0 105 44t44 105v297q0 64 -44 108t-105 44q-64 0 -108 -44t-44 -108v-297z" />
<glyph unicode=":" horiz-adv-x="360" d="M98 0v166h164v-166h-164zM98 393v166h164v-166h-164z" />
<glyph unicode=";" horiz-adv-x="380" d="M111 -125v303h159v-182zM111 506v168h159v-168h-159z" />
<glyph unicode="&#x3c;" horiz-adv-x="1228" d="M121 471v94l987 473v-114l-850 -406l850 -405v-115z" />
<glyph unicode="=" horiz-adv-x="1228" d="M121 231v125h987v-125h-987zM121 680v125h987v-125h-987z" />
<glyph unicode="&#x3e;" horiz-adv-x="1228" d="M121 -2v115l850 405l-850 406v114l987 -473v-94z" />
<glyph unicode="?" horiz-adv-x="757" d="M90 1075v99q0 60 23 115t62 94q40 40 93 64q50 23 113 23q128 0 208 -90q79 -89 79 -264q0 -40 -2 -90q-1 -17 -6 -62q-3 -25 -9 -43q-4 -12 -14 -32l-141 -250q-11 -21 -26 -57q-11 -28 -11 -66v-143h-160v172q-2 45 12 79q16 41 37 78l131 222q19 32 25 66q6 36 6 69 v112q0 55 -38 96q-37 40 -91 40q-44 0 -88 -35q-43 -34 -43 -101v-96h-160zM299 0v164h158v-164h-158z" />
<glyph unicode="@" horiz-adv-x="1638" d="M135 733q0 155 60 288q61 135 161 234q103 101 239 158q137 57 290 57q141 0 265 -45q125 -45 217 -127q93 -83 147 -193q55 -113 55 -243q0 -125 -47 -231q-45 -101 -115 -179q-68 -76 -144 -116q-77 -41 -137 -41t-94 31q-32 29 -43 102h-37q-49 -54 -102 -94 q-51 -39 -137 -39q-63 0 -110 23q-52 25 -85 64q-35 41 -54 94q-20 55 -20 116q0 102 34 201q35 101 94 178q58 75 144 127q82 49 183 49q66 0 125 -37t92 -129h41l41 129h76l-168 -549q-9 -25 -16 -57q-7 -33 -7 -47q0 -30 16 -59q15 -27 58 -27q58 0 113 46q54 45 98 118 t69 155t25 162q0 117 -47 216q-46 97 -127 167q-80 69 -184 108q-105 39 -217 39q-135 0 -252 -54q-115 -53 -205 -146q-88 -91 -138 -211t-50 -248q0 -133 50 -253q48 -115 139 -206q88 -88 208 -138t258 -50q78 0 149 17q79 19 142 47q68 30 124 70q55 39 95 87h98 q-51 -75 -117 -129q-67 -56 -150 -97q-83 -42 -172 -62q-92 -21 -185 -21q-158 0 -292 56q-137 57 -237 156q-98 97 -158 236q-59 138 -59 297zM557 606q0 -100 54 -155q54 -56 143 -56q68 0 126 46q56 45 101 114q44 68 69 145q26 78 27 144q0 82 -45 142q-46 61 -133 61 q-75 0 -137 -43q-66 -45 -109 -109q-44 -65 -70 -142q-26 -78 -26 -147z" />
<glyph unicode="A" horiz-adv-x="913" d="M98 0l277 1458h166l276 -1458h-168l-59 305h-266l-58 -305h-168zM354 471h205l-102 537z" />
<glyph unicode="B" d="M98 0v1458h316q52 0 96 -19t79 -54q34 -34 53 -78q20 -46 20 -97v-227q0 -88 -52 -152q54 -45 86 -107q33 -65 33 -140v-269q0 -65 -24 -122t-68 -101q-43 -43 -100 -67q-59 -25 -123 -25h-316zM264 166h150q61 0 105 44t44 105v269q0 62 -44 106q-43 43 -105 43h-150 v-567zM264 899h150q33 0 58 25q24 24 24 59v227q0 35 -24 59q-23 23 -58 23h-150v-393z" />
<glyph unicode="C" d="M98 287v884q0 63 25 124q24 59 67 102q42 42 101 67t123 25t123 -25q57 -24 100 -67q44 -44 68 -102q24 -59 24 -124h-166q0 64 -44 108t-105 44q-63 0 -107 -44q-43 -43 -43 -108v-884q0 -64 43 -107t107 -43q62 0 105 43q44 44 44 107h166q0 -66 -24 -123t-68 -101 q-43 -43 -100 -67q-59 -25 -123 -25t-123 25t-101 67t-67 101t-25 123z" />
<glyph unicode="D" d="M98 0v1458h316q66 0 123 -24q55 -23 100 -68t68 -100q24 -57 24 -123v-828q0 -65 -24 -122t-68 -101q-43 -43 -100 -67q-59 -25 -123 -25h-316zM264 166h150q61 0 105 44t44 105v828q0 62 -44 106q-43 43 -105 43h-150v-1126z" />
<glyph unicode="E" horiz-adv-x="718" d="M98 0v1458h525v-166h-359v-393h242v-166h-242v-567h359v-166h-525z" />
<glyph unicode="F" horiz-adv-x="718" d="M98 0v1458h525v-166h-359v-393h242v-166h-242v-733h-166z" />
<glyph unicode="G" d="M96 287v884q0 64 26 124t68 102t101 67t123 25t123 -25q57 -24 100 -67q44 -44 68 -102q24 -59 24 -124h-166q0 64 -44 108t-105 44q-64 0 -108 -44t-44 -108v-884q0 -63 44 -107q43 -43 108 -43q62 0 105 43q44 44 44 107v248h-157v165h323v-413q0 -66 -24 -123 t-68 -101q-43 -43 -100 -67q-59 -25 -123 -25t-123 25t-101 67q-41 41 -68 101q-26 58 -26 123z" />
<glyph unicode="H" d="M96 0v1458h166v-559h301v559h166v-1458h-166v733h-301v-733h-166z" />
<glyph unicode="I" horiz-adv-x="360" d="M98 0v1458h166v-1458h-166z" />
<glyph unicode="J" d="M96 287h166q0 -63 44 -107q43 -43 108 -43q62 0 105 43q44 44 44 107v1171h166v-1171q0 -66 -24 -123t-68 -101q-43 -43 -100 -67q-59 -25 -123 -25t-123 25t-101 67q-41 41 -68 101q-26 58 -26 123z" />
<glyph unicode="K" d="M98 0v1458h166v-422l268 422h197l-311 -485l311 -973h-174l-252 793l-39 -64v-729h-166z" />
<glyph unicode="L" horiz-adv-x="718" d="M96 0v1458h166v-1292h361v-166h-527z" />
<glyph unicode="M" d="M98 0v1458h166l150 -260l149 260h166v-1458h-166v1128l-149 -262l-150 262v-1128h-166z" />
<glyph unicode="N" d="M98 0v1458h166l299 -553v553h166v-1458h-166v559l-299 553v-1112h-166z" />
<glyph unicode="O" d="M96 287v884q0 64 26 124t68 102t101 67t123 25t123 -25q57 -24 100 -67q44 -44 68 -102q24 -59 24 -124v-884q0 -66 -24 -123t-68 -101q-43 -43 -100 -67q-59 -25 -123 -25t-123 25t-101 67q-41 41 -68 101q-26 58 -26 123zM262 287q0 -63 44 -107q43 -43 108 -43 q62 0 105 43q44 44 44 107v884q0 64 -44 108t-105 44q-64 0 -108 -44t-44 -108v-884z" />
<glyph unicode="P" d="M98 0v1458h316q66 0 123 -24q55 -23 100 -68t68 -100q24 -57 24 -123v-269q0 -65 -24 -122t-68 -101q-43 -43 -100 -67q-59 -25 -123 -25h-150v-559h-166zM264 725h150q61 0 105 44t44 105v269q0 62 -44 106q-43 43 -105 43h-150v-567z" />
<glyph unicode="Q" d="M96 315v856q0 64 26 124t68 102t101 67t123 25t123 -25q57 -24 100 -67q44 -44 68 -102q24 -59 24 -124v-856q0 -111 -67 -196l67 -119h-190l-13 20q-53 -20 -112 -20q-64 0 -123 25t-101 67q-41 41 -68 101q-26 58 -26 122zM262 315q0 -61 44 -105t108 -44h13q5 0 15 2 l-86 147h191l14 -24q2 8 2 24v856q0 64 -44 108t-105 44q-64 0 -108 -44t-44 -108v-856z" />
<glyph unicode="R" d="M98 0v1458h316q66 0 123 -24q55 -23 100 -68t68 -100q24 -57 24 -123v-269q0 -86 -42 -158q-43 -74 -114 -114l156 -602h-170l-145 559h-150v-559h-166zM264 725h150q61 0 105 44t44 105v269q0 62 -44 106q-43 43 -105 43h-150v-567z" />
<glyph unicode="S" d="M98 287h166q0 -64 43 -107t107 -43q62 0 105 43q44 44 44 107v297q0 62 -44 106q-43 43 -105 43q-54 0 -100 21q-47 21 -80 54t-54 80q-20 44 -20 99v248q0 54 20 98q22 49 54 81q33 33 80 54q46 21 100 21q50 0 97 -21q49 -22 81 -54q34 -34 54 -81q20 -48 20 -98h-166 q0 36 -26 62t-60 26q-37 0 -63 -26q-25 -25 -25 -62v-248q0 -37 25 -62q26 -26 63 -26q64 0 123 -25q57 -24 100 -67q45 -45 68 -100q24 -57 24 -123v-297q0 -66 -24 -123t-68 -101q-43 -43 -100 -67q-59 -25 -123 -25t-123 25t-101 67t-67 101t-25 123z" />
<glyph unicode="T" horiz-adv-x="778" d="M98 1292v166h582v-166h-209v-1292h-166v1292h-207z" />
<glyph unicode="U" d="M98 287v1171h166v-1171q0 -64 43 -107t107 -43q62 0 105 43q44 44 44 107v1171h166v-1171q0 -66 -24 -123t-68 -101q-43 -43 -100 -67q-59 -25 -123 -25t-123 25t-101 67t-67 101t-25 123z" />
<glyph unicode="V" d="M96 1458h168l150 -928l147 928h168l-233 -1458h-164z" />
<glyph unicode="W" horiz-adv-x="972" d="M96 1458h168l103 -1075l118 328l121 -328l103 1075h165l-141 -1458h-164l-84 227l-82 -227h-165z" />
<glyph unicode="X" d="M96 0l232 729l-232 729h174l144 -452l143 452h172l-229 -729l229 -729h-172l-143 455l-144 -455h-174z" />
<glyph unicode="Y" d="M98 1458h172l144 -444l141 444h174l-233 -729v-729h-166v729z" />
<glyph unicode="Z" d="M96 0v166l455 1126h-455v166h633v-166l-455 -1126h455v-166h-633z" />
<glyph unicode="[" horiz-adv-x="454" d="M143 -205v1663h271v-74h-138v-1515h138v-74h-271z" />
<glyph unicode="\" horiz-adv-x="454" d="M41 1470h113l260 -1482h-113z" />
<glyph unicode="]" horiz-adv-x="454" d="M41 -131h137v1515h-137v74h270v-1663h-270v74z" />
<glyph unicode="^" horiz-adv-x="1228" d="M143 580l420 878h103l419 -878h-106l-365 770l-364 -770h-107z" />
<glyph unicode="_" horiz-adv-x="1024" d="M25 -154h974v-102h-974v102z" />
<glyph unicode="`" horiz-adv-x="706" d="M387 1516l102 102l197 -197l-72 -71z" />
<glyph unicode="a" horiz-adv-x="890" d="M55 389q0 79 29 151q28 69 79 123q48 50 117 82q68 31 142 31q41 0 78 -11q47 -14 110 -40v149q0 72 -47 122q-48 51 -112 51q-57 0 -101 -38q-43 -37 -55 -96h-178q6 66 35 126q29 59 73 102q43 42 103 67q59 25 123 25q67 0 131 -28q60 -26 106 -77t72 -114 q26 -64 26 -140v-874h-176v53q-66 -32 -110 -43q-39 -10 -78 -10q-74 0 -142 31t-117 83q-52 55 -79 124q-29 73 -29 151zM231 389q0 -38 16 -78q14 -36 41 -64q26 -28 60 -44q36 -17 74 -17q37 0 73 17q32 15 59 44q27 28 41 64q15 37 15 78q0 39 -15 76q-14 36 -41 64 q-27 29 -59 44q-36 17 -73 17q-38 0 -74 -17q-34 -16 -60 -44q-27 -28 -41 -64q-16 -40 -16 -76z" />
<glyph unicode="b" horiz-adv-x="829" d="M78 0v1458h176v-299q67 25 97 32q32 7 65 7q68 0 130 -28q60 -27 105 -75q44 -47 72 -112q27 -63 27 -137v-492q0 -74 -27 -138q-27 -65 -72 -113t-105 -75q-62 -28 -130 -28q-32 0 -64 7q-40 9 -98 28v-35h-176zM254 354q0 -71 47 -121q46 -49 115 -49q65 0 111 49 t46 121v492q0 71 -46 118q-47 48 -111 48q-68 0 -115 -48q-47 -49 -47 -118v-492z" />
<glyph unicode="c" horiz-adv-x="829" d="M80 334v543q0 76 26 138q26 63 72 113q45 50 107 77q64 28 131 28q61 0 122 -25q59 -24 103 -67q46 -44 74 -102q29 -60 35 -126h-179q-12 59 -55 96q-44 38 -100 38q-66 0 -114 -51q-46 -49 -46 -119v-543q0 -71 46 -120q47 -50 114 -50q56 0 100 39q43 39 55 94h179 q-6 -66 -35 -126q-27 -56 -74 -101q-46 -45 -103 -68q-61 -25 -122 -25q-68 0 -131 29q-62 29 -107 77t-72 113q-26 62 -26 138z" />
<glyph unicode="d" horiz-adv-x="829" d="M78 354v492q0 76 26 137q28 66 73 112q47 48 108 75q64 28 131 28q30 0 62 -7q29 -6 95 -32v299h177v-1458h-177v35q-59 -20 -95 -28q-32 -7 -62 -7q-67 0 -131 28q-61 27 -108 75q-45 47 -73 113q-26 62 -26 138zM254 354q0 -71 47 -121q46 -49 115 -49q65 0 111 49 t46 121v492q0 71 -46 118q-47 48 -111 48q-68 0 -115 -48q-47 -49 -47 -118v-492z" />
<glyph unicode="e" horiz-adv-x="874" d="M72 334v512q0 81 28 150t79 123q49 52 117 83t142 31q75 0 143 -31q64 -29 115 -83q50 -53 78 -123q29 -72 29 -150v-271h-555v-241q0 -70 47 -120t115 -50q57 0 99 39t54 94h178q-6 -69 -34 -126q-27 -56 -74 -101q-45 -44 -103 -68q-59 -25 -120 -25q-71 0 -134 29 q-60 28 -106 77q-45 48 -72 113q-26 62 -26 138zM248 762h379v84q0 36 -16 76q-14 36 -41 64q-27 29 -59 44q-36 17 -73 17t-73 -17q-35 -17 -61 -44q-27 -28 -41 -64q-15 -38 -15 -76v-84z" />
<glyph unicode="f" horiz-adv-x="743" d="M80 0v1126q0 77 26 139q27 64 72 112q46 49 107 76q64 28 131 28q61 0 122 -25q58 -24 103 -66t74 -100t35 -125h-177q-12 57 -56 95q-42 36 -101 36q-67 0 -114 -50q-46 -49 -46 -120v-305h250v-184h-250v-637h-176z" />
<glyph unicode="g" horiz-adv-x="843" d="M78 371v489q0 74 26 135q28 66 73 112q48 50 108 76q61 27 131 27q30 0 62 -7q39 -8 95 -29v36h177v-1230q0 -73 -27 -137t-72 -112q-47 -50 -105 -76q-62 -28 -130 -28q-57 0 -114 22q-55 21 -99 58l127 131q38 -26 86 -26q64 0 111 50q46 49 46 118v73q-60 -22 -95 -28 q-40 -7 -62 -7q-67 0 -131 28q-59 26 -108 75q-46 46 -73 111q-26 62 -26 139zM254 371q0 -71 47 -120q47 -48 115 -48q64 0 111 48q46 47 46 120v489q0 68 -46 117t-111 49q-68 0 -115 -48q-47 -49 -47 -118v-489z" />
<glyph unicode="h" horiz-adv-x="829" d="M78 0v1458h176v-299q67 25 97 32q32 7 65 7q68 0 130 -28q60 -27 105 -75q44 -47 72 -112q27 -63 27 -137v-846h-177v846q0 71 -46 118q-47 48 -111 48q-68 0 -115 -48q-47 -49 -47 -118v-846h-176z" />
<glyph unicode="i" horiz-adv-x="430" d="M127 0v1198h176v-1198h-176zM127 1403v55h176v-55h-176z" />
<glyph unicode="j" horiz-adv-x="503" d="M-195 -293l127 129q37 -24 86 -24q66 0 112 49t46 116v1223h176v-1223q0 -74 -26 -136q-27 -65 -72 -111q-47 -48 -106 -75q-62 -28 -130 -28q-56 0 -113 22t-100 58zM176 1403v55h176v-55h-176z" />
<glyph unicode="k" horiz-adv-x="843" d="M82 0v1458h176v-573l281 313h241l-348 -389l373 -809h-195l-352 764v-764h-176z" />
<glyph unicode="l" horiz-adv-x="430" d="M127 0v1458h176v-1458h-176z" />
<glyph unicode="m" horiz-adv-x="1310" d="M70 0v1210h176v-39q65 25 98 32q32 7 64 7q66 0 124 -26q62 -28 123 -86q59 58 122 86q58 26 126 26q70 0 130 -27t107 -77q44 -47 72 -114q27 -64 27 -138v-854h-176v854q0 71 -47 121q-46 49 -113 49q-65 0 -113 -49q-49 -51 -49 -121v-854h-176v854q0 72 -46 121 t-111 49q-69 0 -115 -49q-47 -50 -47 -121v-854h-176z" />
<glyph unicode="n" horiz-adv-x="829" d="M78 0v1210h176v-39q67 25 97 32q32 7 65 7q70 0 130 -27q59 -27 105 -77q45 -50 72 -114t27 -138v-854h-175v854q0 71 -47 121q-46 49 -112 49q-69 0 -115 -49q-47 -50 -47 -121v-854h-176z" />
<glyph unicode="o" horiz-adv-x="829" d="M78 334v543q0 76 26 138q27 64 73 113q47 50 108 77q64 28 131 28q68 0 130 -28q59 -27 105 -77t72 -113q27 -65 27 -138v-543q0 -74 -27 -138q-27 -65 -72 -113q-46 -49 -105 -77q-61 -29 -130 -29q-68 0 -131 29q-61 28 -108 77q-45 47 -73 113q-26 62 -26 138z M254 334q0 -70 47 -120t115 -50q66 0 113 50q46 49 46 120v543q0 70 -47 120t-112 50q-68 0 -115 -50t-47 -120v-543z" />
<glyph unicode="p" horiz-adv-x="829" d="M78 -248v1106v352h176v-39q67 25 97 32q32 7 65 7q70 0 130 -27q58 -26 105 -76q44 -47 72 -112q27 -63 27 -137v-491q0 -75 -27 -139t-72 -112q-47 -50 -105 -76q-62 -28 -130 -28q-32 0 -64 7q-40 9 -98 28v-295h-176zM254 367q0 -71 47 -120q47 -48 115 -48 q65 0 111 49t46 119v491q0 70 -46 119t-111 49q-69 0 -115 -49q-47 -50 -47 -119v-491z" />
<glyph unicode="q" horiz-adv-x="829" d="M78 367v491q0 76 26 137q28 66 73 112q48 50 108 76q61 27 131 27q30 0 62 -7q29 -6 95 -32v39h177v-1458h-177v295q-59 -20 -95 -28q-32 -7 -62 -7q-67 0 -131 28q-60 26 -108 76q-46 47 -73 112q-26 62 -26 139zM254 367q0 -71 47 -120q47 -48 115 -48q65 0 111 49 t46 119v491q0 70 -46 119t-111 49q-69 0 -115 -49q-47 -50 -47 -119v-491z" />
<glyph unicode="r" horiz-adv-x="722" d="M80 0v1210h176v-39q64 25 96 32t64 7q64 0 122 -24q57 -23 103 -68t74 -100q29 -58 35 -125h-179q-12 56 -55 93q-44 38 -100 38q-67 0 -114 -50q-46 -49 -46 -120v-854h-176z" />
<glyph unicode="s" horiz-adv-x="841" d="M41 328h176q16 -71 67 -117q53 -47 119 -47q41 0 74 16q35 17 61 44t41 64q15 36 15 77q0 39 -15 77q-15 37 -41 65t-61 43q-34 15 -74 15q-64 0 -121 27q-56 27 -100 72q-43 44 -67 106q-25 64 -25 129q0 67 25 130t67 106q42 44 100 71q57 27 121 27q61 0 116 -23 q56 -23 96 -62q42 -41 69 -94q27 -54 33 -116h-180q-11 48 -48 78q-39 31 -86 31q-54 0 -96 -45q-41 -44 -41 -103q0 -60 41 -103q41 -42 96 -42q75 0 143 -31t117 -83q50 -53 78 -124q29 -73 29 -151q0 -79 -29 -151q-29 -70 -78 -123q-49 -52 -117 -83t-143 -31 q-71 0 -134 27q-60 26 -111 75q-50 49 -80 111q-31 65 -37 138z" />
<glyph unicode="t" horiz-adv-x="647" d="M96 332v1126h176v-260h250v-186h-250v-680q0 -71 46 -120q47 -50 114 -50q23 0 47 8q22 7 41 20l131 -129q-44 -38 -100 -61q-57 -23 -119 -23q-67 0 -131 28q-59 26 -106 76q-45 48 -72 113q-27 64 -27 138z" />
<glyph unicode="u" horiz-adv-x="829" d="M78 358v852h176v-852q0 -71 47 -121q48 -51 115 -51q31 0 61 14t50 37q23 26 34 55q12 32 12 66v852h177v-1210h-177v35q-59 -20 -95 -28q-32 -7 -62 -7q-67 0 -131 28q-62 27 -108 76t-73 115q-26 64 -26 139z" />
<glyph unicode="v" horiz-adv-x="780" d="M61 1210h177l153 -792l154 792h174l-232 -1210h-192z" />
<glyph unicode="w" horiz-adv-x="1177" d="M12 1210h174l154 -792l156 792h186l154 -792l155 792h174l-233 -1210h-191l-153 799l-152 -799h-190z" />
<glyph unicode="x" horiz-adv-x="741" d="M51 0l225 606l-225 604h191l131 -348l129 348h188l-223 -604l223 -606h-188l-129 348l-131 -348h-191z" />
<glyph unicode="y" horiz-adv-x="829" d="M78 371v839h176v-839q0 -71 47 -120q47 -48 115 -48q64 0 111 48q46 47 46 120v839h177v-1230q0 -73 -27 -137t-72 -112q-47 -50 -105 -76q-62 -28 -130 -28q-57 0 -114 22q-55 21 -99 58l127 131q38 -26 86 -26q64 0 111 50q46 49 46 118v73q-60 -22 -95 -28 q-40 -7 -62 -7q-67 0 -131 28q-59 26 -108 75q-46 46 -73 111q-26 62 -26 139z" />
<glyph unicode="z" horiz-adv-x="829" d="M78 0v215l481 809h-481v186h672v-215l-480 -809h480v-186h-672z" />
<glyph unicode="{" horiz-adv-x="454" d="M31 588v82q65 15 98 88q33 74 33 172v319q0 104 53 157q52 52 123 52h86v-74h-12q-67 0 -91 -50t-24 -115v-320q0 -70 -13 -113t-35 -73q-19 -26 -46 -43q-22 -14 -49 -19v-49q28 -5 49 -17q24 -13 45 -42q20 -27 34 -75q13 -45 13 -116v-315q0 -69 24 -118 q24 -50 93 -50h12v-74h-86q-70 0 -122 52t-52 157v318q0 100 -34 175q-34 76 -99 91z" />
<glyph unicode="|" horiz-adv-x="454" d="M170 -12v1482h115v-1482h-115z" />
<glyph unicode="}" horiz-adv-x="454" d="M31 -131h12q67 0 91 50q24 49 24 118v315q0 71 13 116t35 75q20 28 46 42q21 12 49 17v49q-27 5 -49 19q-25 15 -45 43t-34 73q-13 43 -13 113v320q0 63 -25 115q-24 50 -92 50h-12v74h86q70 0 122 -52t52 -157v-319q0 -100 34 -172q34 -73 99 -88v-82q-65 -15 -98 -91 q-33 -77 -33 -175v-318q0 -104 -53 -157q-52 -52 -123 -52h-86v74z" />
<glyph unicode="~" horiz-adv-x="1228" d="M170 487q16 33 38 68q19 29 49 58q28 26 62 41q37 16 78 16q55 0 115 -27t117 -57l109 -58q51 -26 96 -26q61 0 104 46q45 48 74 99l47 -100q-16 -33 -38 -68q-19 -29 -49 -58q-27 -25 -63 -41q-35 -15 -78 -15q-56 0 -114 26q-47 21 -117 58l-111 57q-51 26 -94 26 q-31 0 -57 -13q-28 -14 -48 -34q-26 -26 -40 -47q-18 -27 -33 -51z" />
<glyph unicode="&#xa1;" horiz-adv-x="491" d="M141 -420l78 1086h53l78 -1086h-209zM166 874v164h160v-164h-160z" />
<glyph unicode="&#xa2;" horiz-adv-x="761" d="M94 336v364q0 159 59 244t207 103v157h33v-157q129 -11 198 -90q69 -80 75 -203h-158q-4 48 -29 82q-23 32 -86 55v-744q61 22 84 56t29 63h160q-5 -57 -22 -102q-19 -49 -50 -84q-33 -38 -82 -60q-48 -22 -117 -28v-176h-33v176q-153 12 -210 100q-58 90 -58 244z M252 283q0 -47 24 -80q24 -34 84 -56l2 746q-39 -16 -63 -35q-22 -18 -33 -38t-12 -40q-2 -28 -2 -41v-456z" />
<glyph unicode="&#xa3;" horiz-adv-x="761" d="M51 633v98h131q-26 48 -45 92q-15 34 -29 81q-13 43 -17 81q-5 45 -5 94q0 86 17 153q18 71 56 124q39 55 96 84q59 30 138 30q45 0 95 -18q51 -19 91 -57q37 -36 66 -100q27 -60 27 -144v-70h-146v60q0 29 -6 60t-21 57t-42 44q-26 17 -70 17q-46 0 -77 -22 q-29 -20 -47 -55q-16 -30 -24 -78q-8 -46 -8 -87q0 -84 23 -176t51 -170h232v-98h-203q4 -11 9 -26l8.5 -25.5t6.5 -18.5q13 -33 16 -48q6 -28 7 -42q2 -28 2 -53q0 -60 -21 -118t-61 -134q28 -4 74 -11l50 -10q21 -4 41 -6q26 -2 44 -2q35 0 68 9q32 9 67 47l107 -111 q-42 -55 -87 -75q-47 -21 -108 -21q-29 0 -74 6q-13 2 -94 14q-7 1 -42.5 7t-54.5 8q-48 6 -83 6q-37 0 -72 -7q-18 -4 -65 -16v127q23 11 53 21q27 9 68 14q67 100 67 209q0 54 -14 117q-16 73 -41 139h-154z" />
<glyph unicode="&#xa4;" horiz-adv-x="761" d="M43 1040l49 52l82 -91q92 86 207 86q112 0 209 -86l82 91l47 -52l-84 -88q80 -100 80 -223q0 -126 -80 -221l82 -88l-47 -51l-84 88q-86 -86 -205 -86t-207 88l-82 -90l-47 49l84 90q-82 94 -82 221q0 124 80 221zM131 729q0 -54 20 -103q20 -50 53 -84q37 -38 79 -58 q45 -21 98 -21q51 0 96 21q42 20 79 58q33 34 53 84q21 51 22 103q0 55 -20 104q-20 48 -53 83q-37 39 -80 58q-46 21 -97 21q-53 0 -98 -21q-42 -20 -79 -58q-33 -35 -53 -83q-20 -49 -20 -104z" />
<glyph unicode="&#xa5;" horiz-adv-x="761" d="M43 1458h154l161 -600h45l162 600h154l-242 -762h211v-88h-235v-155h235v-88h-233v-365h-146v365h-235v88h235v155h-235v88h211z" />
<glyph unicode="&#xa6;" horiz-adv-x="380" d="M170 -12v530h115v-530h-115zM170 940v530h115v-530h-115z" />
<glyph unicode="&#xa7;" horiz-adv-x="757" d="M92 530q0 85 8 146q7 56 34 95q26 39 71 64q46 26 119 50q-72 37 -106 64q-37 30 -57 62t-24 70q-4 35 -4 93q0 77 21 134t56 92t82 53q44 17 97 17q46 0 91 -16q47 -17 81 -49q35 -33 57 -82q23 -51 23 -115v-71h-123v63q0 25 -8 54q-7 27 -24 50q-13 18 -40 35 q-24 15 -57 15q-39 0 -67 -17q-25 -16 -41 -42q-16 -27 -20 -57q-5 -35 -5 -62q0 -42 3 -69q3 -29 14 -48q12 -21 33 -39q24 -21 59 -43l198 -133q30 -21 52 -44q18 -19 31 -55q11 -31 16 -82q4 -44 4 -133q0 -59 -6 -123q-5 -49 -25 -84q-22 -37 -64 -65q-43 -28 -118 -65 q57 -30 103 -63q37 -27 56 -58q20 -33 24 -73q5 -47 5 -103q0 -177 -68 -253q-67 -75 -192 -75q-78 0 -127 26q-51 27 -83 68q-31 40 -45 89q-13 46 -13 91v64h123v-62q0 -64 37 -111q37 -48 102 -48q79 0 111 51q32 52 32 139q0 41 -3 70q-3 28 -12 49t-24 36 q-13 13 -39 31l-241 152q-36 21 -58 47q-17 20 -31 61q-12 36 -15 86q-3 49 -3 123zM250 434q0 -56 37 -96q38 -41 92 -41q52 0 90 41q37 40 37 96l2 209q0 55 -38 96t-91 41q-54 0 -92 -41q-37 -40 -37 -96v-209z" />
<glyph unicode="&#xa8;" horiz-adv-x="1648" d="M199 1473v145h145v-145h-145zM489 1473v145h146v-145h-146z" />
<glyph unicode="&#xa9;" horiz-adv-x="1638" d="M102 729q0 154 57 289q58 137 153 235q97 100 229 159q129 58 278 58q150 0 279 -58q130 -58 228 -159q97 -100 154 -235q56 -133 56 -289t-56 -289q-57 -135 -154 -235q-98 -101 -228 -159q-129 -58 -279 -58q-149 0 -278 58q-132 59 -229 159q-95 98 -153 235 q-57 135 -57 289zM199 729q0 -137 49 -254q51 -121 133 -208q84 -89 197 -140q112 -51 241 -51t242 51q112 51 195 140q84 90 133 208t51 254q0 137 -49 254q-50 119 -134 208q-85 90 -196 140q-112 51 -242 51q-129 0 -241 -51q-113 -51 -197 -140q-82 -87 -133 -208 q-49 -117 -49 -254zM432 729q0 95 28 182q26 81 81 144q50 57 128 93q74 34 171 34q125 0 218 -69t120 -200h-86q-22 76 -91 130q-68 53 -159 53q-76 0 -134 -30q-59 -30 -99 -79q-38 -47 -60 -115q-21 -66 -21 -139q0 -68 23 -135q23 -66 63 -117t100 -83q58 -31 132 -31 q93 0 159 54q67 55 89 136h82q-33 -128 -122 -204q-87 -74 -208 -74q-95 0 -170 34q-73 33 -130 96q-54 60 -84 142q-30 83 -30 178z" />
<glyph unicode="&#xaa;" horiz-adv-x="491" d="M53 987q0 107 41 157t156 50q21 0 33 -1q56 -5 59 -5v84q0 43 -20 74q-20 32 -74 32q-30 0 -57 -15t-39 -52h-86q12 74 59 117q47 42 123 42t134 -47q56 -46 56 -139v-444h-96v69h-43q-27 -39 -53 -60q-23 -18 -64 -18q-17 0 -43 7q-23 6 -42 22q-18 16 -31 47 q-13 33 -13 80zM150 1012q0 -44 25 -68q26 -24 67 -24q46 0 72 29q28 31 28 73v106q-8 1 -22.5 3.5t-19.5 3.5q-18 2 -21 2q-52 0 -91 -27q-38 -26 -38 -98z" />
<glyph unicode="&#xab;" horiz-adv-x="872" d="M57 567l355 375v-145l-219 -230l217 -229v-145zM436 567l355 375v-145l-220 -230l220 -229v-145z" />
<glyph unicode="&#xac;" horiz-adv-x="1228" d="M121 680v125h987v-574h-113v449h-874z" />
<glyph unicode="&#xad;" d="M96 559v166h633v-166h-633z" />
<glyph unicode="&#xae;" horiz-adv-x="1638" d="M102 729q0 154 57 289q58 137 153 235q97 100 229 159q129 58 278 58q150 0 279 -58q130 -58 228 -159q97 -100 154 -235q56 -133 56 -289t-56 -289q-57 -135 -154 -235q-98 -101 -228 -159q-129 -58 -279 -58q-149 0 -278 58q-132 59 -229 159q-95 98 -153 235 q-57 135 -57 289zM199 729q0 -137 49 -254q51 -121 133 -208q84 -89 197 -140q112 -51 241 -51t242 51q112 51 195 140q84 90 133 208t51 254q0 137 -49 254q-50 119 -134 208q-85 90 -196 140q-112 51 -242 51q-129 0 -241 -51q-113 -51 -197 -140q-82 -87 -133 -208 q-49 -117 -49 -254zM563 307v844h303q142 0 207 -55q66 -55 66 -172q0 -113 -62 -163q-63 -51 -178 -67l244 -387h-103l-247 389h-144v-389h-86zM647 770h180q101 0 165 35q63 35 63 125q0 37 -16 67q-15 28 -41 45q-28 18 -58 25q-35 8 -70 8h-223v-305z" />
<glyph unicode="&#xaf;" horiz-adv-x="380" d="M-66 1243v123h512v-123h-512z" />
<glyph unicode="&#xb0;" horiz-adv-x="532" d="M61 1456q0 46 16 91q15 42 43 73q27 30 65 48q37 18 81 18q42 0 80 -18t65 -48t44 -73q16 -41 16 -91q0 -48 -16 -89q-17 -43 -44 -73q-28 -31 -65 -49q-38 -18 -80 -18t-80 18q-35 17 -64 49q-27 30 -44 73t-17 89zM115 1456q0 -69 44 -119q43 -49 107 -49t107 49 t45 119q0 71 -44 120q-44 48 -108 48t-107 -48q-44 -49 -44 -120z" />
<glyph unicode="&#xb1;" horiz-adv-x="1228" d="M121 0v119h987v-119h-987zM121 571v119h436v346h113v-346h438v-119h-436v-348h-113v348h-438z" />
<glyph unicode="&#xb2;" horiz-adv-x="380" d="M47 588v84l260 452q15 29 21 47q8 26 8 52v51q0 46 -31 71q-29 23 -59 23q-36 0 -60 -26t-24 -68v-41h-115v51q0 78 57 132t144 54t143 -49q58 -50 58 -121v-71q0 -54 -12 -84q-14 -36 -34 -66l-217 -389h263v-102h-402z" />
<glyph unicode="&#xb3;" horiz-adv-x="380" d="M47 758v47h113v-25q0 -42 23 -69q24 -29 65 -29q39 0 63 29q25 30 25 63v113q0 60 -26 81q-25 20 -81 25v92q51 2 79 23q28 22 28 76v92q0 37 -25 65q-24 27 -63 27q-48 0 -67 -33q-19 -32 -19 -59v-31h-115v43q0 78 55 130t150 52q52 0 88 -16q37 -16 61 -43t36 -61 q12 -35 12 -70v-88q0 -15 -4 -39q-3 -20 -14 -36q-12 -18 -33 -36t-60 -39q73 -45 91 -78q20 -35 20 -81v-111q0 -36 -12 -70q-12 -35 -36 -62t-62 -44q-36 -16 -91 -16q-81 0 -140 40q-61 41 -61 138z" />
<glyph unicode="&#xb4;" horiz-adv-x="441" d="M153 1273v134v232h134v-271v-96z" />
<glyph unicode="&#xb6;" horiz-adv-x="909" d="M41 1079q0 192 115 286q114 93 307 93h328v-1878h-97v1823h-198v-1823h-97v1135q-71 0 -136 27q-62 26 -113 77q-48 48 -79 116q-30 66 -30 144z" />
<glyph unicode="&#xb7;" horiz-adv-x="380" d="M84 610q0 55 32 93t74 38q43 0 75 -38t32 -93t-32 -93t-75 -38q-42 0 -74 38t-32 93z" />
<glyph unicode="&#xb8;" horiz-adv-x="1648" d="M98 -184l29 184h68v-184h-97z" />
<glyph unicode="&#xb9;" horiz-adv-x="380" d="M80 1284v92l119 82h131v-870h-113v790z" />
<glyph unicode="&#xba;" horiz-adv-x="491" d="M61 1024v254q0 86 50 139t135 53t135 -53q49 -52 49 -139v-254q0 -87 -49 -139q-51 -54 -135 -54t-135 54q-50 53 -50 139zM158 1026q0 -47 23 -74q24 -28 65 -28t63 28q23 29 23 74l2 248q0 47 -23 76q-22 28 -65 28q-44 0 -66 -28t-22 -76v-248z" />
<glyph unicode="&#xbb;" horiz-adv-x="872" d="M82 193v145l219 229l-219 230v145l354 -375zM461 193v145l219 229l-219 230v145l354 -375z" />
<glyph unicode="&#xbc;" horiz-adv-x="380" d="M47 1288v90l119 78h131v-848h-113v772zM82 -35l864 1528h64l-865 -1528h-63zM621 133v100l194 621h111l-193 -635h180v244h113v-244h64v-86h-62v-131h-113v131h-294z" />
<glyph unicode="&#xbd;" horiz-adv-x="380" d="M47 1288v90l119 78h131v-848h-113v772zM82 2l864 1491h64l-865 -1528zM684 2v80l264 442q16 30 21 46q8 26 8 51v49q0 43 -31 68q-30 24 -59 24q-35 0 -62 -24q-26 -23 -26 -68v-39h-115v49q0 78 56 130t149 52q86 0 143 -48q58 -49 58 -120v-69q0 -51 -12 -81 q-13 -33 -34 -65l-217 -379h263v-98h-406z" />
<glyph unicode="&#xbe;" horiz-adv-x="380" d="M47 774v45h113v-22q0 -43 23 -69q25 -28 65 -28q38 0 63 28t25 63v110q0 58 -26 79q-26 22 -81 26v88q52 2 79 21q28 20 28 75v90q0 35 -25 63q-24 27 -63 27q-47 0 -67 -32q-19 -31 -19 -58v-29h-115v41q0 76 55 127q56 51 150 51q52 0 88 -16q37 -16 61 -43 q25 -28 36 -60q12 -35 12 -67v-86q0 -14 -4 -38q-3 -19 -14 -35q-9 -13 -33 -34q-18 -15 -60 -38q71 -45 91 -78q20 -34 20 -78v-109q0 -34 -12 -68t-36 -61q-23 -26 -62 -43q-36 -16 -91 -16q-41 0 -77 9t-63 30q-31 24 -45 54q-16 33 -16 81zM121 -35l864 1528h64 l-865 -1528h-63zM621 133v100l194 621h111l-193 -635h180v244h113v-244h64v-86h-62v-131h-113v131h-294z" />
<glyph unicode="&#xbf;" horiz-adv-x="757" d="M90 -78q0 40 2 90q1 31 5 63q3 25 9 43q2 6 15 32l141 249q10 18 26 58q11 27 11 65v144h160v-172q2 -42 -13 -80q-18 -47 -36 -78l-131 -221q-19 -32 -25 -67q-6 -36 -6 -68v-113q0 -54 38 -95q37 -40 91 -40q44 0 88 35q43 34 43 100v96h160v-98q0 -61 -23 -116 t-62 -94t-94 -64q-50 -23 -112 -23q-129 0 -208 90q-79 89 -79 264zM299 874v164h160v-164h-160z" />
<glyph unicode="&#xc0;" horiz-adv-x="913" d="M98 0l277 1458h166l276 -1458h-168l-59 305h-266l-58 -305h-168zM317 1763l103 103l196 -197l-71 -72zM354 471h205l-102 537z" />
<glyph unicode="&#xc1;" horiz-adv-x="913" d="M98 0l277 1458h166l276 -1458h-168l-59 305h-266l-58 -305h-168zM319 1681l197 197l102 -102l-227 -166zM354 471h205l-102 537z" />
<glyph unicode="&#xc2;" horiz-adv-x="913" d="M98 0l277 1458h166l276 -1458h-168l-59 305h-266l-58 -305h-168zM217 1661l248 248l248 -248l-62 -62l-186 185l-186 -185zM354 471h205l-102 537z" />
<glyph unicode="&#xc3;" horiz-adv-x="913" d="M98 0l277 1458h166l276 -1458h-168l-59 305h-266l-58 -305h-168zM135 1542q21 106 61 165q41 60 115 60q13 0 39 -8q30 -9 57 -21l66 -29q42 -18 70 -28l34 -12q18 -6 29 -6q50 0 77 34q29 37 36 83h51q-22 -108 -60 -165q-41 -61 -116 -61q-17 0 -57 17l-83 36 q-29 13 -87 35q-45 17 -68 17q-50 0 -77 -34q-29 -37 -36 -83h-51zM354 471h205l-102 537z" />
<glyph unicode="&#xc4;" horiz-adv-x="913" d="M98 0l277 1458h166l276 -1458h-168l-59 305h-266l-58 -305h-168zM240 1599v146h145v-146h-145zM354 471h205l-102 537zM530 1599v146h146v-146h-146z" />
<glyph unicode="&#xc5;" horiz-adv-x="913" d="M98 0l277 1458h166l276 -1458h-168l-59 305h-266l-58 -305h-168zM272 1710q0 44 15 81q16 40 40 67q26 29 59 45t71 16q37 0 70 -16q35 -17 60 -45q24 -27 40 -67q14 -35 14 -81t-14 -81q-15 -39 -40 -66q-25 -29 -60 -45q-36 -17 -70 -17q-35 0 -71 17q-33 16 -59 45 q-25 27 -40 66q-15 37 -15 81zM305 1710q0 -71 44 -121q43 -49 108 -49q63 0 106 49q44 50 45 121q0 71 -44 121q-43 49 -107 49q-65 0 -108 -49q-44 -50 -44 -121zM354 471h205l-102 537z" />
<glyph unicode="&#xc6;" horiz-adv-x="1251" d="M39 0l397 1458h754v-151h-416v-496h363v-152h-363v-495h416v-164h-572v326h-333l-80 -326h-166zM322 475h296v832h-96z" />
<glyph unicode="&#xc7;" horiz-adv-x="667" d="M111 328v823q0 69 22 126q22 56 65 101q43 44 99 68q57 24 129 24q67 0 124 -24q53 -22 98 -69q42 -43 66 -104q23 -57 23 -134v-58h-157v45q0 33 -11 68t-30 58q-21 26 -50 41q-30 16 -65 16q-49 0 -79 -18q-28 -17 -47 -45q-18 -27 -24 -63t-6 -75v-766q0 -33 8 -68 q7 -32 26 -57q20 -26 47 -40q30 -15 73 -15q25 0 52 9t51 30q23 21 38 54q15 35 15 85v47h159v-65q0 -61 -19 -112q-20 -54 -53 -94q-35 -43 -83 -72q-49 -30 -107 -42l-129 -174q77 8 81 8q28 2 38 2q45 0 74 -12q28 -12 45 -32q15 -18 23 -43q7 -22 7 -44q0 -45 -20 -74 q-21 -31 -52 -51q-30 -20 -73 -31q-39 -10 -82 -10q-47 0 -87 9q-38 8 -71 20l17 41q30 -11 58 -18t61 -7q18 0 39 4q27 5 46 16q22 12 36 34q16 24 16 59q0 51 -39 78q-38 26 -80 26q-12 0 -36 -2q-16 -1 -36 -8l-10 12l141 191q-70 6 -132 26t-104 58q-45 40 -70 99 t-25 149z" />
<glyph unicode="&#xc8;" horiz-adv-x="718" d="M98 0v1458h525v-166h-359v-393h242v-166h-242v-567h359v-166h-525zM238 1776l102 102l197 -197l-72 -71z" />
<glyph unicode="&#xc9;" horiz-adv-x="606" d="M98 0v1458h525v-166h-359v-393h242v-166h-242v-567h359v-166h-525zM248 1681l196 197l103 -102l-228 -166z" />
<glyph unicode="&#xca;" horiz-adv-x="718" d="M98 0v1458h525v-166h-359v-393h242v-166h-242v-567h359v-166h-525zM125 1661l248 248l248 -248l-62 -62l-186 185l-187 -185z" />
<glyph unicode="&#xcb;" horiz-adv-x="718" d="M98 0v1458h525v-166h-359v-393h242v-166h-242v-567h359v-166h-525zM158 1599v146h145v-146h-145zM449 1599v146h145v-146h-145z" />
<glyph unicode="&#xcc;" horiz-adv-x="360" d="M47 1769l103 103l196 -197l-72 -71zM98 0v1458h166v-1458h-166z" />
<glyph unicode="&#xcd;" horiz-adv-x="360" d="M51 1688l197 196l102 -102l-227 -166zM98 0v1458h166v-1458h-166z" />
<glyph unicode="&#xce;" horiz-adv-x="360" d="M-55 1640l248 248l247 -248l-61 -61l-186 184l-187 -184zM98 0v1458h166v-1458h-166z" />
<glyph unicode="&#xcf;" horiz-adv-x="360" d="M-31 1606v145h146v-145h-146zM98 0v1458h166v-1458h-166zM260 1606v145h146v-145h-146z" />
<glyph unicode="&#xd0;" horiz-adv-x="380" d="M25 743v86h98v629h285q165 0 254 -95q88 -94 88 -269v-707q0 -203 -94 -295t-267 -92h-264v743h-100zM281 152h122q106 0 146 55q41 56 41 160l2 727q0 97 -41 155t-148 58h-122v-478h145v-86h-145v-591z" />
<glyph unicode="&#xd1;" horiz-adv-x="727" d="M98 0v1458h166l299 -553v553h166v-1458h-166v559l-299 553v-1112h-166zM137 1542q21 106 61 165q40 60 115 60q13 0 39 -8q30 -9 57 -21l66 -29q42 -18 70 -28l34 -12q18 -6 29 -6q50 0 77 34q29 37 36 83h51q-22 -108 -60 -165q-41 -61 -116 -61q-17 0 -57 17l-83 36 q-29 13 -87 35q-45 17 -68 17q-50 0 -77 -34q-29 -37 -36 -83h-51z" />
<glyph unicode="&#xd2;" d="M96 287v884q0 64 26 124t68 102t101 67t123 25t123 -25q57 -24 100 -67q44 -44 68 -102q24 -59 24 -124v-884q0 -66 -24 -123t-68 -101q-43 -43 -100 -67q-59 -25 -123 -25t-123 25t-101 67q-41 41 -68 101q-26 58 -26 123zM262 287q0 -63 44 -107q43 -43 108 -43 q62 0 105 43q44 44 44 107v884q0 64 -44 108t-105 44q-64 0 -108 -44t-44 -108v-884zM274 1776l103 102l196 -197l-71 -71z" />
<glyph unicode="&#xd3;" d="M96 287v884q0 64 26 124t68 102t101 67t123 25t123 -25q57 -24 100 -67q44 -44 68 -102q24 -59 24 -124v-884q0 -66 -24 -123t-68 -101q-43 -43 -100 -67q-59 -25 -123 -25t-123 25t-101 67q-41 41 -68 101q-26 58 -26 123zM262 287q0 -63 44 -107q43 -43 108 -43 q62 0 105 43q44 44 44 107v884q0 64 -44 108t-105 44q-64 0 -108 -44t-44 -108v-884zM283 1776l196 196l103 -102l-228 -166z" />
<glyph unicode="&#xd4;" d="M96 287v884q0 64 26 124t68 102t101 67t123 25t123 -25q57 -24 100 -67q44 -44 68 -102q24 -59 24 -124v-884q0 -66 -24 -123t-68 -101q-43 -43 -100 -67q-59 -25 -123 -25t-123 25t-101 67q-41 41 -68 101q-26 58 -26 123zM180 1661l248 248l248 -248l-62 -62l-186 185 l-186 -185zM262 287q0 -63 44 -107q43 -43 108 -43q62 0 105 43q44 44 44 107v884q0 64 -44 108t-105 44q-64 0 -108 -44t-44 -108v-884z" />
<glyph unicode="&#xd5;" d="M96 287v884q0 64 26 124t68 102t101 67t123 25t123 -25q57 -24 100 -67q44 -44 68 -102q24 -59 24 -124v-884q0 -66 -24 -123t-68 -101q-43 -43 -100 -67q-59 -25 -123 -25t-123 25t-101 67q-41 41 -68 101q-26 58 -26 123zM119 1542q22 108 60 165q41 60 116 60 q13 0 39 -8t56 -21l67 -29q46 -20 69 -28l34 -12q18 -6 30 -6q50 0 77 34q28 36 35 83h52q-21 -106 -61 -165q-41 -61 -115 -61q-18 0 -58 17l-83 36q-29 13 -87 35q-45 17 -67 17q-50 0 -77 -34q-29 -37 -36 -83h-51zM262 287q0 -63 44 -107q43 -43 108 -43q62 0 105 43 q44 44 44 107v884q0 64 -44 108t-105 44q-64 0 -108 -44t-44 -108v-884z" />
<glyph unicode="&#xd6;" horiz-adv-x="698" d="M96 287v884q0 64 26 124t68 102t101 67t123 25t123 -25q57 -24 100 -67q44 -44 68 -102q24 -59 24 -124v-884q0 -66 -24 -123t-68 -101q-43 -43 -100 -67q-59 -25 -123 -25t-123 25t-101 67q-41 41 -68 101q-26 58 -26 123zM199 1599v146h145v-146h-145zM262 287 q0 -63 44 -107q43 -43 108 -43q62 0 105 43q44 44 44 107v884q0 64 -44 108t-105 44q-64 0 -108 -44t-44 -108v-884zM489 1599v146h146v-146h-146z" />
<glyph unicode="&#xd7;" horiz-adv-x="1152" d="M134 137l363 381l-363 383l80 84l360 -381l363 381l78 -84l-361 -383l363 -381l-80 -84l-363 381l-360 -383z" />
<glyph unicode="&#xd8;" horiz-adv-x="872" d="M53 -47l99 207q-41 87 -41 172v794q0 88 28 151q28 64 75 106q49 44 104 64q59 21 118 21q67 0 130 -28q65 -29 134 -101l84 187l35 -21l-98 -207q41 -87 41 -172v-794q0 -85 -29 -151q-28 -64 -75 -106q-49 -44 -104 -64q-59 -21 -118 -21q-66 0 -131 28 q-63 27 -131 103l-86 -189zM268 326q4 -88 54 -130t114 -42q67 0 117 43q51 43 51 135v620h-47zM268 504h47l289 629q-6 92 -55 132t-113 40q-67 0 -117 -43q-51 -44 -51 -136v-622z" />
<glyph unicode="&#xd9;" d="M98 287v1171h166v-1171q0 -64 43 -107t107 -43q62 0 105 43q44 44 44 107v1171h166v-1171q0 -66 -24 -123t-68 -101q-43 -43 -100 -67q-59 -25 -123 -25t-123 25t-101 67t-67 101t-25 123zM283 1769l102 103l197 -197l-72 -71z" />
<glyph unicode="&#xda;" d="M98 287v1171h166v-1171q0 -64 43 -107t107 -43q62 0 105 43q44 44 44 107v1171h166v-1171q0 -66 -24 -123t-68 -101q-43 -43 -100 -67q-59 -25 -123 -25t-123 25t-101 67t-67 101t-25 123zM270 1681l197 197l102 -102l-227 -166z" />
<glyph unicode="&#xdb;" d="M98 287v1171h166v-1171q0 -64 43 -107t107 -43q62 0 105 43q44 44 44 107v1171h166v-1171q0 -66 -24 -123t-68 -101q-43 -43 -100 -67q-59 -25 -123 -25t-123 25t-101 67t-67 101t-25 123zM193 1661l247 248l248 -248l-61 -62l-187 185l-186 -185z" />
<glyph unicode="&#xdc;" horiz-adv-x="698" d="M98 287v1171h166v-1171q0 -64 43 -107t107 -43q62 0 105 43q44 44 44 107v1171h166v-1171q0 -66 -24 -123t-68 -101q-43 -43 -100 -67q-59 -25 -123 -25t-123 25t-101 67t-67 101t-25 123zM203 1599v146h145v-146h-145zM494 1599v146h145v-146h-145z" />
<glyph unicode="&#xdd;" horiz-adv-x="305" d="M98 1458h172l144 -444l141 444h174l-233 -729v-729h-166v729zM621 1776l196 196l103 -102l-228 -166z" />
<glyph unicode="&#xde;" horiz-adv-x="380" d="M123 0v1458h158v-262h131q77 0 138 -19q62 -19 107 -69q47 -51 70 -133q25 -87 25 -213q0 -98 -17 -180q-17 -81 -55 -137q-39 -57 -103 -87q-65 -30 -163 -30h-131v-328h-160zM281 477h127q72 0 113 24q42 25 59 62q18 39 21 90t3 107q0 55 -3 106q-3 53 -20 91 q-18 40 -57 64q-37 23 -108 23h-135v-567z" />
<glyph unicode="&#xdf;" horiz-adv-x="796" d="M111 0v1145q0 68 17 125q18 60 52 103t88 71q51 26 127 26q84 0 137 -26q56 -27 90 -75q34 -47 49 -114q15 -66 15 -145q0 -48 -5 -90q-4 -34 -21 -66q-15 -29 -44 -53q-34 -28 -75 -55q77 -45 112 -94q33 -46 33 -121v-373q0 -87 -19 -138q-19 -52 -54 -81t-79 -39 q-46 -10 -98 -12v151q44 6 69 37q23 29 23 96v404q0 52 -26 72q-25 19 -66 24v139q46 5 69 28t23 81v170q0 52 -25 90q-26 39 -100 39q-78 0 -105 -53q-28 -54 -28 -160v-1106h-159z" />
<glyph unicode="&#xe0;" horiz-adv-x="890" d="M55 389q0 79 29 151q28 69 79 123q48 50 117 82q68 31 142 31q41 0 78 -11q47 -14 110 -40v149q0 72 -47 122q-48 51 -112 51q-57 0 -101 -38q-43 -37 -55 -96h-178q6 66 35 126q29 59 73 102q43 42 103 67q59 25 123 25q67 0 131 -28q60 -26 106 -77t72 -114 q26 -64 26 -140v-874h-176v53q-66 -32 -110 -43q-39 -10 -78 -10q-74 0 -142 31t-117 83q-52 55 -79 124q-29 73 -29 151zM231 389q0 -38 16 -78q14 -36 41 -64q26 -28 60 -44q36 -17 74 -17q37 0 73 17q32 15 59 44q27 28 41 64q15 37 15 78q0 39 -15 76q-14 36 -41 64 q-27 29 -59 44q-36 17 -73 17q-38 0 -74 -17q-34 -16 -60 -44q-27 -28 -41 -64q-16 -40 -16 -76zM315 1516l103 102l196 -197l-71 -71z" />
<glyph unicode="&#xe1;" horiz-adv-x="874" d="M55 389q0 79 29 151q28 69 79 123q48 50 117 82q68 31 142 31q41 0 78 -11q47 -14 110 -40v149q0 72 -47 122q-48 51 -112 51q-57 0 -101 -38q-43 -37 -55 -96h-178q6 66 35 126q29 59 73 102q43 42 103 67q59 25 123 25q67 0 131 -28q60 -26 106 -77t72 -114 q26 -64 26 -140v-874h-176v53q-66 -32 -110 -43q-39 -10 -78 -10q-74 0 -142 31t-117 83q-52 55 -79 124q-29 73 -29 151zM231 389q0 -38 16 -78q14 -36 41 -64q26 -28 60 -44q36 -17 74 -17q37 0 73 17q32 15 59 44q27 28 41 64q15 37 15 78q0 39 -15 76q-14 36 -41 64 q-27 29 -59 44q-36 17 -73 17q-38 0 -74 -17q-34 -16 -60 -44q-27 -28 -41 -64q-16 -40 -16 -76zM319 1427l197 197l102 -102l-227 -166z" />
<glyph unicode="&#xe2;" horiz-adv-x="874" d="M55 389q0 79 29 151q28 69 79 123q48 50 117 82q68 31 142 31q41 0 78 -11q47 -14 110 -40v149q0 72 -47 122q-48 51 -112 51q-57 0 -101 -38q-43 -37 -55 -96h-178q6 66 35 126q29 59 73 102q43 42 103 67q59 25 123 25q67 0 131 -28q60 -26 106 -77t72 -114 q26 -64 26 -140v-874h-176v53q-66 -32 -110 -43q-39 -10 -78 -10q-74 0 -142 31t-117 83q-52 55 -79 124q-29 73 -29 151zM199 1487l247 248l248 -248l-61 -62l-187 185l-186 -185zM231 389q0 -38 16 -78q14 -36 41 -64q26 -28 60 -44q36 -17 74 -17q37 0 73 17q32 15 59 44 q27 28 41 64q15 37 15 78q0 39 -15 76q-14 36 -41 64q-27 29 -59 44q-36 17 -73 17q-38 0 -74 -17q-34 -16 -60 -44q-27 -28 -41 -64q-16 -40 -16 -76z" />
<glyph unicode="&#xe3;" horiz-adv-x="874" d="M55 389q0 79 29 151q28 69 79 123q48 50 117 82q68 31 142 31q41 0 78 -11q47 -14 110 -40v149q0 72 -47 122q-48 51 -112 51q-57 0 -101 -38q-43 -37 -55 -96h-178q6 66 35 126q29 59 73 102q43 42 103 67q59 25 123 25q67 0 131 -28q60 -26 106 -77t72 -114 q26 -64 26 -140v-874h-176v53q-66 -32 -110 -43q-39 -10 -78 -10q-74 0 -142 31t-117 83q-52 55 -79 124q-29 73 -29 151zM113 1397q22 108 60 165q41 60 116 60q13 0 39 -8q17 -5 56 -22l67 -28q46 -20 69 -28l34 -12q18 -6 30 -6q50 0 76 33q29 37 36 83h52 q-21 -106 -61 -165q-41 -60 -116 -60q-19 0 -57 16l-83 36q-43 19 -87 36q-42 16 -68 16q-50 0 -76 -33q-29 -37 -36 -83h-51zM231 389q0 -38 16 -78q14 -36 41 -64q26 -28 60 -44q36 -17 74 -17q37 0 73 17q32 15 59 44q27 28 41 64q15 37 15 78q0 39 -15 76q-14 36 -41 64 q-27 29 -59 44q-36 17 -73 17q-38 0 -74 -17q-34 -16 -60 -44q-27 -28 -41 -64q-16 -40 -16 -76z" />
<glyph unicode="&#xe4;" horiz-adv-x="874" d="M55 389q0 79 29 151q28 69 79 123q48 50 117 82q68 31 142 31q41 0 78 -11q47 -14 110 -40v149q0 72 -47 122q-48 51 -112 51q-57 0 -101 -38q-43 -37 -55 -96h-178q6 66 35 126q29 59 73 102q43 42 103 67q59 25 123 25q67 0 131 -28q60 -26 106 -77t72 -114 q26 -64 26 -140v-874h-176v53q-66 -32 -110 -43q-39 -10 -78 -10q-74 0 -142 31t-117 83q-52 55 -79 124q-29 73 -29 151zM217 1470v146h145v-146h-145zM231 389q0 -38 16 -78q14 -36 41 -64q26 -28 60 -44q36 -17 74 -17q37 0 73 17q32 15 59 44q27 28 41 64q15 37 15 78 q0 39 -15 76q-14 36 -41 64q-27 29 -59 44q-36 17 -73 17q-38 0 -74 -17q-34 -16 -60 -44q-27 -28 -41 -64q-16 -40 -16 -76zM508 1470v146h145v-146h-145z" />
<glyph unicode="&#xe5;" horiz-adv-x="874" d="M55 389q0 79 29 151q28 69 79 123q48 50 117 82q68 31 142 31q41 0 78 -11q47 -14 110 -40v149q0 72 -47 122q-48 51 -112 51q-57 0 -101 -38q-43 -37 -55 -96h-178q6 66 35 126q29 59 73 102q43 42 103 67q59 25 123 25q67 0 131 -28q60 -26 106 -77t72 -114 q26 -64 26 -140v-874h-176v53q-66 -32 -110 -43q-39 -10 -78 -10q-74 0 -142 31t-117 83q-52 55 -79 124q-29 73 -29 151zM229 1546q0 46 17 89t44 73q29 32 64 49q40 19 80 19q38 0 78 -19q37 -18 65 -49q27 -30 44 -73q16 -41 16 -89t-16 -89q-17 -43 -44 -73 q-28 -31 -65 -49q-38 -18 -78 -18q-42 0 -80 18q-35 17 -64 49q-27 30 -44 73t-17 89zM231 389q0 -38 16 -78q14 -36 41 -64q26 -28 60 -44q36 -17 74 -17q37 0 73 17q32 15 59 44q27 28 41 64q15 37 15 78q0 39 -15 76q-14 36 -41 64q-27 29 -59 44q-36 17 -73 17 q-38 0 -74 -17q-34 -16 -60 -44q-27 -28 -41 -64q-16 -40 -16 -76zM283 1546q0 -70 43 -119t108 -49q64 0 107 49t43 119t-43 119t-107 49q-65 0 -108 -49t-43 -119z" />
<glyph unicode="&#xe6;" horiz-adv-x="1423" d="M70 365q0 80 28 151t78 124t116 83q68 31 142 31q37 0 79 -11t112 -43v177q0 70 -47 120t-115 50q-56 0 -100 -38q-43 -37 -54 -96h-178q6 66 35 126q28 57 73 102q42 42 101 67t123 25q66 0 130 -29q62 -28 128 -94q66 66 131 94q67 29 137 29q75 0 143 -31 q66 -30 116 -83q51 -54 79 -123q29 -72 29 -150v-271h-555v-241q0 -71 46 -120q47 -50 114 -50q57 0 100 39t55 94h178q-6 -69 -34 -126q-27 -56 -74 -101q-46 -44 -104 -68q-61 -25 -121 -25q-59 0 -121 24q-61 24 -127 91l-8 10q-63 -63 -133 -95q-66 -30 -138 -30 q-74 0 -142 31q-66 30 -116 83t-78 123q-28 69 -28 151zM246 365q0 -43 14 -77q16 -39 40 -64q27 -29 59 -44q33 -16 75 -16q41 0 74 16q34 16 60 44q26 27 41 64q16 38 16 77q0 37 -16 77q-15 37 -41 65q-27 29 -60 43q-35 15 -74 15q-40 0 -75 -15q-31 -14 -59 -43 q-24 -26 -40 -65q-14 -35 -14 -77zM801 762h379v84q0 36 -16 76q-14 36 -41 64q-26 28 -60 44q-36 17 -74 17q-39 0 -75 -17q-32 -15 -59 -44q-25 -26 -40 -64q-14 -35 -14 -76v-84z" />
<glyph unicode="&#xe7;" horiz-adv-x="829" d="M84 344v535q0 73 27 138q27 66 71 112q46 49 107 76q64 28 131 28q61 0 122 -25q58 -24 103 -66t74 -100t35 -124h-179q-12 56 -55 93q-44 38 -100 38q-66 0 -114 -51q-46 -49 -46 -119v-535q0 -69 47 -118q47 -48 113 -48q57 0 100 37t55 92h179q-12 -122 -98 -210 q-84 -86 -220 -107v-266h-67l39 264q-76 12 -135 45t-102 80q-43 48 -65 106q-22 59 -22 125z" />
<glyph unicode="&#xe8;" horiz-adv-x="874" d="M72 334v512q0 81 28 150t79 123q49 52 117 83t142 31q75 0 143 -31q64 -29 115 -83q50 -53 78 -123q29 -72 29 -150v-271h-555v-241q0 -70 47 -120t115 -50q57 0 99 39t54 94h178q-6 -69 -34 -126q-27 -56 -74 -101q-45 -44 -103 -68q-59 -25 -120 -25q-71 0 -134 29 q-60 28 -106 77q-45 48 -72 113q-26 62 -26 138zM248 762h379v84q0 36 -16 76q-14 36 -41 64q-27 29 -59 44q-36 17 -73 17t-73 -17q-35 -17 -61 -44q-27 -28 -41 -64q-15 -38 -15 -76v-84zM307 1530l103 102l196 -196l-71 -72z" />
<glyph unicode="&#xe9;" horiz-adv-x="874" d="M72 334v512q0 81 28 150t79 123q49 52 117 83t142 31q75 0 143 -31q64 -29 115 -83q50 -53 78 -123q29 -72 29 -150v-271h-555v-241q0 -70 47 -120t115 -50q57 0 99 39t54 94h178q-6 -69 -34 -126q-27 -56 -74 -101q-45 -44 -103 -68q-59 -25 -120 -25q-71 0 -134 29 q-60 28 -106 77q-45 48 -72 113q-26 62 -26 138zM248 762h379v84q0 36 -16 76q-14 36 -41 64q-27 29 -59 44q-36 17 -73 17t-73 -17q-35 -17 -61 -44q-27 -28 -41 -64q-15 -38 -15 -76v-84zM305 1427l197 197l102 -102l-227 -166z" />
<glyph unicode="&#xea;" horiz-adv-x="874" d="M72 334v512q0 81 28 150t79 123q49 52 117 83t142 31q75 0 143 -31q64 -29 115 -83q50 -53 78 -123q29 -72 29 -150v-271h-555v-241q0 -70 47 -120t115 -50q57 0 99 39t54 94h178q-6 -69 -34 -126q-27 -56 -74 -101q-45 -44 -103 -68q-59 -25 -120 -25q-71 0 -134 29 q-60 28 -106 77q-45 48 -72 113q-26 62 -26 138zM201 1493l248 248l247 -248l-61 -61l-186 184l-187 -184zM248 762h379v84q0 36 -16 76q-14 36 -41 64q-27 29 -59 44q-36 17 -73 17t-73 -17q-35 -17 -61 -44q-27 -28 -41 -64q-15 -38 -15 -76v-84z" />
<glyph unicode="&#xeb;" horiz-adv-x="874" d="M72 334v512q0 81 28 150t79 123q49 52 117 83t142 31q75 0 143 -31q64 -29 115 -83q50 -53 78 -123q29 -72 29 -150v-271h-555v-241q0 -70 47 -120t115 -50q57 0 99 39t54 94h178q-6 -69 -34 -126q-27 -56 -74 -101q-45 -44 -103 -68q-59 -25 -120 -25q-71 0 -134 29 q-60 28 -106 77q-45 48 -72 113q-26 62 -26 138zM221 1470v146h146v-146h-146zM248 762h379v84q0 36 -16 76q-14 36 -41 64q-27 29 -59 44q-36 17 -73 17t-73 -17q-35 -17 -61 -44q-27 -28 -41 -64q-15 -38 -15 -76v-84zM512 1470v146h145v-146h-145z" />
<glyph unicode="&#xec;" horiz-adv-x="430" d="M53 1542l103 103l196 -197l-71 -72zM127 0v1210h176v-1210h-176z" />
<glyph unicode="&#xed;" horiz-adv-x="430" d="M82 1419l197 197l102 -103l-227 -165zM133 0v1210h176v-1210h-176z" />
<glyph unicode="&#xee;" horiz-adv-x="430" d="M-35 1489l248 248l248 -248l-62 -62l-182 185l-190 -185zM125 0v1210h176v-1210h-176z" />
<glyph unicode="&#xef;" horiz-adv-x="430" d="M0 1466v146h145v-146h-145zM133 0v1210h176v-1210h-176zM291 1466l18 146h127v-146h-145z" />
<glyph unicode="&#xf0;" horiz-adv-x="380" d="M92 334v354q0 167 70 258q69 90 217 90q47 0 96 -63l35 37q-22 89 -46 150q-25 63 -71 126l-151 -74l-27 39l150 74q-39 33 -77 60q-32 22 -69 40l113 62q39 -15 80 -41q33 -21 77 -62l136 66l26 -41l-129 -61q89 -124 116 -254q28 -135 28 -254v-506q0 -165 -71 -256 q-71 -90 -216 -90q-148 0 -217 90q-70 91 -70 256zM250 301q0 -69 35 -110q33 -39 94 -39q60 0 93 39q34 40 34 110l2 422q0 69 -35 110q-33 39 -94 39t-94 -39q-35 -41 -35 -110v-422z" />
<glyph unicode="&#xf1;" horiz-adv-x="829" d="M76 1372q22 108 60 165q41 60 116 60q13 0 39 -8t56 -21l67 -29q46 -20 69 -28l34 -12q18 -6 30 -6q50 0 77 34q28 36 35 83h52q-21 -106 -61 -165q-41 -61 -115 -61q-18 0 -58 17l-83 36q-44 19 -87 36q-42 16 -67 16q-50 0 -77 -34q-29 -37 -36 -83h-51zM78 0v1210h176 v-39q67 25 97 32q32 7 65 7q70 0 130 -27q59 -27 105 -77q45 -50 72 -114t27 -138v-854h-175v854q0 71 -47 121q-46 49 -112 49q-69 0 -115 -49q-47 -50 -47 -121v-854h-176z" />
<glyph unicode="&#xf2;" horiz-adv-x="829" d="M78 334v543q0 76 26 138q27 64 73 113q47 50 108 77q64 28 131 28q68 0 130 -28q59 -27 105 -77t72 -113q27 -65 27 -138v-543q0 -74 -27 -138q-27 -65 -72 -113q-46 -49 -105 -77q-61 -29 -130 -29q-68 0 -131 29q-61 28 -108 77q-45 47 -73 113q-26 62 -26 138z M254 334q0 -70 47 -120t115 -50q66 0 113 50q46 49 46 120v543q0 70 -47 120t-112 50q-68 0 -115 -50t-47 -120v-543zM305 1536l103 102l196 -196l-72 -72z" />
<glyph unicode="&#xf3;" horiz-adv-x="829" d="M78 334v543q0 76 26 138q27 64 73 113q47 50 108 77q64 28 131 28q68 0 130 -28q59 -27 105 -77t72 -113q27 -65 27 -138v-543q0 -74 -27 -138q-27 -65 -72 -113q-46 -49 -105 -77q-61 -29 -130 -29q-68 0 -131 29q-61 28 -108 77q-45 47 -73 113q-26 62 -26 138z M254 334q0 -70 47 -120t115 -50q66 0 113 50q46 49 46 120v543q0 70 -47 120t-112 50q-68 0 -115 -50t-47 -120v-543zM283 1427l196 197l103 -102l-228 -166z" />
<glyph unicode="&#xf4;" horiz-adv-x="829" d="M78 334v543q0 76 26 138q27 64 73 113q47 50 108 77q64 28 131 28q68 0 130 -28q59 -27 105 -77t72 -113q27 -65 27 -138v-543q0 -74 -27 -138q-27 -65 -72 -113q-46 -49 -105 -77q-61 -29 -130 -29q-68 0 -131 29q-61 28 -108 77q-45 47 -73 113q-26 62 -26 138z M168 1487l248 248l248 -248l-62 -62l-186 185l-187 -185zM254 334q0 -70 47 -120t115 -50q66 0 113 50q46 49 46 120v543q0 70 -47 120t-112 50q-68 0 -115 -50t-47 -120v-543z" />
<glyph unicode="&#xf5;" horiz-adv-x="829" d="M78 334v543q0 76 26 138q27 64 73 113q47 50 108 77q64 28 131 28q68 0 130 -28q59 -27 105 -77t72 -113q27 -65 27 -138v-543q0 -74 -27 -138q-27 -65 -72 -113q-46 -49 -105 -77q-61 -29 -130 -29q-68 0 -131 29q-61 28 -108 77q-45 47 -73 113q-26 62 -26 138z M80 1366q22 108 60 165q40 60 116 60q13 0 39 -8t56 -21l67 -29q46 -20 69 -28l34 -12q18 -6 30 -6q50 0 77 34q29 37 36 83h51q-21 -106 -61 -165q-41 -61 -115 -61q-18 0 -58 17l-83 36q-29 13 -87 35q-45 17 -67 17q-50 0 -77 -34q-29 -37 -36 -83h-51zM254 334 q0 -70 47 -120t115 -50q66 0 113 50q46 49 46 120v543q0 70 -47 120t-112 50q-68 0 -115 -50t-47 -120v-543z" />
<glyph unicode="&#xf6;" horiz-adv-x="829" d="M78 334v543q0 76 26 138q27 64 73 113q47 50 108 77q64 28 131 28q68 0 130 -28q59 -27 105 -77t72 -113q27 -65 27 -138v-543q0 -74 -27 -138q-27 -65 -72 -113q-46 -49 -105 -77q-61 -29 -130 -29q-68 0 -131 29q-61 28 -108 77q-45 47 -73 113q-26 62 -26 138z M199 1473v145h145v-145h-145zM254 334q0 -70 47 -120t115 -50q66 0 113 50q46 49 46 120v543q0 70 -47 120t-112 50q-68 0 -115 -50t-47 -120v-543zM489 1473v145h146v-145h-146z" />
<glyph unicode="&#xf7;" horiz-adv-x="1228" d="M121 459v119h987v-119h-987zM508 74q0 47 32 79q31 31 74 31q44 0 75 -31q32 -32 32 -79t-32 -79t-75 -32q-42 0 -74 32t-32 79zM508 963q0 46 32 78t74 32q43 0 75 -32t32 -78q0 -47 -32 -79t-75 -32q-42 0 -74 32t-32 79z" />
<glyph unicode="&#xf8;" horiz-adv-x="757" d="M43 -41l94 168q-22 48 -34 94q-11 41 -11 94v408q0 148 76 236q78 90 211 90q61 0 116 -25q51 -23 105 -82l88 154l27 -17l-94 -168q19 -42 33 -94q12 -45 12 -94v-408q0 -148 -76 -236q-77 -89 -211 -89q-63 0 -116 24q-51 23 -105 82l-88 -153zM250 397h45l207 371 q-23 115 -123 115q-60 0 -94 -40q-35 -41 -35 -110v-336zM256 270q22 -114 123 -114q60 0 94 40q35 41 35 109v336h-45z" />
<glyph unicode="&#xf9;" horiz-adv-x="829" d="M78 358v852h176v-852q0 -71 47 -121q48 -51 115 -51q31 0 61 14t50 37q23 26 34 55q12 32 12 66v852h177v-1210h-177v35q-59 -20 -95 -28q-32 -7 -62 -7q-67 0 -131 28q-62 27 -108 76t-73 115q-26 64 -26 139zM276 1516l103 102l196 -197l-71 -71z" />
<glyph unicode="&#xfa;" horiz-adv-x="829" d="M78 358v852h176v-852q0 -71 47 -121q48 -51 115 -51q31 0 61 14t50 37q23 26 34 55q12 32 12 66v852h177v-1210h-177v35q-59 -20 -95 -28q-32 -7 -62 -7q-67 0 -131 28q-62 27 -108 76t-73 115q-26 64 -26 139zM283 1427l196 197l103 -102l-228 -166z" />
<glyph unicode="&#xfb;" horiz-adv-x="829" d="M78 358v852h176v-852q0 -71 47 -121q48 -51 115 -51q31 0 61 14t50 37q23 26 34 55q12 32 12 66v852h177v-1210h-177v35q-59 -20 -95 -28q-32 -7 -62 -7q-67 0 -131 28q-62 27 -108 76t-73 115q-26 64 -26 139zM172 1487l248 248l248 -248l-62 -62l-186 185l-187 -185z " />
<glyph unicode="&#xfc;" horiz-adv-x="829" d="M78 358v852h176v-852q0 -71 47 -121q48 -51 115 -51q31 0 61 14t50 37q23 26 34 55q12 32 12 66v852h177v-1210h-177v35q-59 -20 -95 -28q-32 -7 -62 -7q-67 0 -131 28q-62 27 -108 76t-73 115q-26 64 -26 139zM199 1473v145h145v-145h-145zM489 1473v145h146v-145h-146z " />
<glyph unicode="&#xfd;" horiz-adv-x="305" d="M78 371v839h176v-839q0 -71 47 -120q47 -48 115 -48q64 0 111 48q46 47 46 120v839h177v-1230q0 -73 -27 -137t-72 -112q-47 -50 -105 -76q-62 -28 -130 -28q-57 0 -114 22q-55 21 -99 58l127 131q38 -26 86 -26q64 0 111 50q46 49 46 118v73q-60 -22 -95 -28 q-40 -7 -62 -7q-67 0 -131 28q-59 26 -108 75q-46 46 -73 111q-26 62 -26 139zM584 1427l196 197l103 -102l-228 -166z" />
<glyph unicode="&#xfe;" horiz-adv-x="380" d="M111 -420v1878h157v-571q55 61 66 74l25 30q7 7 11 9q1 0 19 12q38 26 105 26q47 0 83 -12t60 -45q26 -35 37 -92q12 -60 12 -154v-407q0 -46 -2 -100q-1 -33 -5 -67q-3 -27 -9 -45q-2 -6 -15 -32q-21 -36 -58 -60q-36 -24 -105 -24q-53 0 -99 26q-45 26 -80 83h-43v-529 h-159zM268 303q0 -60 37 -100q38 -41 94 -41q41 0 64 13t39 35q14 20 19 48q5 30 5 55l2 392q0 67 -28 119q-29 53 -101 53q-61 0 -96 -47t-35 -111v-416z" />
<glyph unicode="&#xff;" horiz-adv-x="829" d="M78 371v839h176v-839q0 -71 47 -120q47 -48 115 -48q64 0 111 48q46 47 46 120v839h177v-1230q0 -73 -27 -137t-72 -112q-47 -50 -105 -76q-62 -28 -130 -28q-57 0 -114 22q-55 21 -99 58l127 131q38 -26 86 -26q64 0 111 50q46 49 46 118v73q-60 -22 -95 -28 q-40 -7 -62 -7q-67 0 -131 28q-59 26 -108 75q-46 46 -73 111q-26 62 -26 139zM199 1462v146h145v-146h-145zM489 1462v146h146v-146h-146z" />
<glyph unicode="&#x152;" horiz-adv-x="1249" d="M123 319v820q0 70 19 128t58 105q37 44 91 72q51 26 121 26q59 0 98 -24q37 -23 61 -64h43v76h574v-151h-416v-496h363v-152h-363v-495h416v-164h-572v72h-43q-29 -40 -72 -62t-89 -22q-70 0 -121 26q-54 28 -91 72q-39 47 -58 105t-19 128zM281 309q0 -36 12 -69t34 -58 t52 -40t70 -15q37 0 68 15t53 40t34 58t12 69v840q0 37 -12 70q-11 31 -34 57q-22 25 -53 40q-32 15 -68 15q-40 0 -70 -15t-52 -40q-23 -26 -34 -57q-12 -33 -12 -70v-840z" />
<glyph unicode="&#x153;" horiz-adv-x="1589" d="M180 334v543q0 73 27 138q27 64 73 113q48 51 107 77q64 28 131 28q66 0 130 -29q63 -28 124 -94q68 65 135 94t135 29q75 0 143 -31t117 -83q50 -53 78 -123q29 -72 29 -150v-271h-557v-241q0 -37 13 -66t35 -54q20 -23 51 -37q29 -13 63 -13q58 0 102 38q43 37 55 95 h179q-6 -67 -36 -126q-29 -57 -75 -101q-46 -45 -103 -68q-61 -25 -122 -25q-63 0 -125 28q-60 27 -123 87q-62 -59 -124 -87t-124 -28q-68 0 -131 29q-59 27 -107 77q-45 47 -73 113q-27 64 -27 138zM356 334q0 -70 47 -120t115 -50q35 0 62 14q30 16 50 37q22 24 34 53 q12 30 12 66l2 543q0 70 -46 119q-48 51 -114 51q-68 0 -115 -50t-47 -120v-543zM852 762h381v84q0 41 -14 76q-15 38 -41 64q-28 28 -62 44q-36 17 -74 17q-37 0 -73 -17q-35 -17 -61 -44q-27 -28 -41 -64q-15 -38 -15 -76v-84z" />
<glyph unicode="&#x178;" horiz-adv-x="634" d="M98 1458h172l144 -444l141 444h174l-233 -729v-729h-166v729zM199 1612v145h145v-145h-145zM489 1612v145h146v-145h-146z" />
<glyph unicode="&#x2c6;" horiz-adv-x="684" d="M385 1487l248 248l248 -248l-62 -62l-186 185l-187 -185z" />
<glyph unicode="&#x2dc;" horiz-adv-x="380" d="M-127 1194q22 108 60 165q40 60 116 60q13 0 39 -8t56 -21l67 -29q42 -18 70 -28l33 -12q18 -6 30 -6q50 0 77 34q29 37 36 83h51q-21 -106 -61 -165q-41 -61 -115 -61q-18 0 -58 17l-83 35q-43 20 -87 36q-45 17 -67 17q-50 0 -77 -34q-29 -37 -36 -83h-51z" />
<glyph unicode="&#x2000;" horiz-adv-x="986" />
<glyph unicode="&#x2001;" horiz-adv-x="1972" />
<glyph unicode="&#x2002;" horiz-adv-x="986" />
<glyph unicode="&#x2003;" horiz-adv-x="1972" />
<glyph unicode="&#x2004;" horiz-adv-x="657" />
<glyph unicode="&#x2005;" horiz-adv-x="493" />
<glyph unicode="&#x2006;" horiz-adv-x="328" />
<glyph unicode="&#x2007;" horiz-adv-x="328" />
<glyph unicode="&#x2008;" horiz-adv-x="246" />
<glyph unicode="&#x2009;" horiz-adv-x="394" />
<glyph unicode="&#x200a;" horiz-adv-x="109" />
<glyph unicode="&#x2010;" d="M96 559v166h633v-166h-633z" />
<glyph unicode="&#x2011;" d="M96 559v166h633v-166h-633z" />
<glyph unicode="&#x2012;" d="M96 559v166h633v-166h-633z" />
<glyph unicode="&#x2013;" horiz-adv-x="1024" d="M25 469v197h974v-197h-974z" />
<glyph unicode="&#x2014;" horiz-adv-x="1998" d="M0 469v197h1999v-197h-1999z" />
<glyph unicode="&#x2018;" horiz-adv-x="380" d="M111 1098v200l159 132v-332h-159z" />
<glyph unicode="&#x2019;" horiz-adv-x="380" d="M111 1126v332h159v-201z" />
<glyph unicode="&#x201a;" horiz-adv-x="380" d="M111 -123v332h159v-201z" />
<glyph unicode="&#x201c;" horiz-adv-x="569" d="M61 1098v200l158 132v-332h-158zM348 1098v200l160 132v-332h-160z" />
<glyph unicode="&#x201d;" horiz-adv-x="569" d="M61 1126v332h158v-201zM348 1126v332h160v-201z" />
<glyph unicode="&#x201e;" horiz-adv-x="569" d="M61 -123v332h158v-201zM348 -123v332h160v-201z" />
<glyph unicode="&#x2022;" horiz-adv-x="1024" d="M172 729q0 76 27 142q29 70 72 116q47 49 108 78q63 29 133 29q68 0 132 -29q62 -28 109 -78q43 -46 72 -116q27 -66 27 -142t-27 -142q-29 -70 -72 -116q-47 -50 -109 -78t-132 -28q-73 0 -133 28q-61 29 -108 78q-43 46 -72 116q-27 66 -27 142z" />
<glyph unicode="&#x2026;" horiz-adv-x="2048" d="M262 0v209h158v-209h-158zM944 0v209h158v-209h-158zM1626 0v209h160v-209h-160z" />
<glyph unicode="&#x202f;" horiz-adv-x="394" />
<glyph unicode="&#x2039;" horiz-adv-x="493" d="M57 567l355 375v-145l-219 -230l219 -229v-145z" />
<glyph unicode="&#x203a;" horiz-adv-x="493" d="M82 193v145l219 229l-219 230v145l354 -375z" />
<glyph unicode="&#x205f;" horiz-adv-x="493" />
<glyph unicode="&#x20ac;" horiz-adv-x="892" d="M76 509v171h120v143h-120v172h120v178q0 65 24 122q26 60 67 102q41 41 100 67q55 25 122 25q66 0 122 -25q56 -23 100 -67q43 -42 68 -102q24 -58 24 -122h-165q0 62 -45 106q-44 45 -104 45q-61 0 -106 -45q-42 -42 -42 -106v-178h314v-172h-314v-143h314v-171h-314 v-216q0 -65 42 -106q45 -43 106 -43q62 1 104 43q45 46 45 106h165q0 -64 -24 -122q-23 -56 -68 -100q-43 -43 -100 -67q-55 -24 -122 -25q-63 0 -122 25q-56 24 -100 67q-58 59 -67 100q-24 121 -24 122v216h-120z" />
<glyph unicode="&#x2122;" horiz-adv-x="2027" d="M104 1368v90h617v-90h-258v-754h-96v754h-263zM874 614v844h191l258 -704l258 704h191v-844h-97v754h-49l-280 -754h-48l-278 754h-47v-754h-99z" />
<glyph unicode="&#x25fc;" horiz-adv-x="1210" d="M0 0v1210h1210v-1210h-1210z" />
<glyph unicode="&#xfb01;" horiz-adv-x="1036" d="M180 0v1126q0 74 27 139t73 112q49 51 107 76q64 28 131 28q61 0 122 -25q58 -24 103 -66t74 -100t35 -125h-178q-12 55 -56 93t-100 38q-69 0 -115 -49q-47 -50 -47 -121v-305h127v-184h-125v-637h-178zM676 0v821h178v-821h-178z" />
<glyph unicode="&#xfb02;" horiz-adv-x="1036" d="M180 0v1126q0 66 23 129q23 62 63 110t96 78t121 36v-187q-56 -15 -91 -59q-36 -45 -36 -107v-305h125v-184h-123v-637h-178zM676 0v1456h178v-1456h-178z" />
</font>
</defs>
</svg>
