<?xml version="1.0" standalone="no"?>
<!DOCTYPE svg PUBLIC "-//W3C//DTD SVG 1.1//EN" "http://www.w3.org/Graphics/SVG/1.1/DTD/svg11.dtd" >
<svg xmlns="http://www.w3.org/2000/svg" xmlns:xlink="http://www.w3.org/1999/xlink" version="1.1">
<metadata></metadata>
<defs>
<font id="belgika16th" horiz-adv-x="2537" >
<font-face units-per-em="2048" ascent="1638" descent="-410" />
<missing-glyph horiz-adv-x="872" />
<glyph horiz-adv-x="2150" />
<glyph horiz-adv-x="2150" />
<glyph unicode="&#xd;" horiz-adv-x="2150" />
<glyph horiz-adv-x="2150" />
<glyph horiz-adv-x="2150" />
<glyph horiz-adv-x="2150" />
<glyph horiz-adv-x="2150" />
<glyph horiz-adv-x="2150" />
<glyph horiz-adv-x="2150" />
<glyph horiz-adv-x="2150" />
<glyph horiz-adv-x="2150" />
<glyph unicode="&#x9;" horiz-adv-x="2150" />
<glyph unicode="&#xa;" horiz-adv-x="2150" />
<glyph horiz-adv-x="2150" />
<glyph horiz-adv-x="2150" />
<glyph horiz-adv-x="2150" />
<glyph horiz-adv-x="2150" />
<glyph horiz-adv-x="2150" />
<glyph horiz-adv-x="2150" />
<glyph horiz-adv-x="2150" />
<glyph horiz-adv-x="2150" />
<glyph horiz-adv-x="2150" />
<glyph horiz-adv-x="2150" />
<glyph horiz-adv-x="2150" />
<glyph horiz-adv-x="2150" />
<glyph horiz-adv-x="2150" />
<glyph horiz-adv-x="2150" />
<glyph horiz-adv-x="2150" />
<glyph horiz-adv-x="2150" />
<glyph horiz-adv-x="2150" />
<glyph horiz-adv-x="2150" />
<glyph horiz-adv-x="2150" />
<glyph horiz-adv-x="2150" />
<glyph unicode=" "  horiz-adv-x="872" />
<glyph unicode="&#x09;" horiz-adv-x="872" />
<glyph unicode="&#xa0;" horiz-adv-x="872" />
<glyph unicode="!" horiz-adv-x="526" d="M215 48q0 20 14 34t34 14t34 -14t14 -34t-14 -34t-34 -14t-34 14t-14 34zM215 411v1179q0 20 14.5 34t33.5 14t33.5 -14t14.5 -34v-1179q0 -20 -14.5 -34.5t-33.5 -14.5t-33.5 14.5t-14.5 34.5z" />
<glyph unicode="&#x22;" horiz-adv-x="841" d="M215 1299v291q0 20 14.5 34t33.5 14t33.5 -14t14.5 -34v-291q0 -19 -14.5 -33.5t-33.5 -14.5t-33.5 14.5t-14.5 33.5zM531 1299v291q0 20 14.5 34t33.5 14q20 0 34.5 -14.5t14.5 -33.5v-291q0 -19 -14.5 -33.5t-34.5 -14.5q-19 0 -33.5 14.5t-14.5 33.5z" />
<glyph unicode="#" horiz-adv-x="1632" d="M215 555q0 19 14.5 33.5t33.5 14.5h189l106 332h-146q-20 0 -34.5 14.5t-14.5 33.5t14.5 33.5t34.5 14.5h177l182 574q4 15 18 24t29 9q9 0 14 -2q15 -4 24.5 -17.5t9.5 -28.5q0 -6 -3 -14l-173 -545h438l183 574q4 15 17.5 24t28.5 9q10 0 15 -2q15 -4 24 -17.5t9 -28.5 q0 -9 -2 -14l-173 -545h140q20 0 34 -14.5t14 -33.5t-14 -33.5t-34 -14.5h-171l-106 -332h147q20 0 34.5 -14.5t14.5 -33.5t-14.5 -33.5t-34.5 -14.5h-178l-151 -473q-4 -15 -17.5 -24.5t-28.5 -9.5q-9 0 -14 2q-15 4 -24.5 18t-9.5 29q0 7 3 14l141 444h-438l-151 -473 q-4 -15 -17.5 -24.5t-28.5 -9.5q-10 0 -15 2q-15 4 -24 18t-9 29q0 9 2 14l142 444h-159q-19 0 -33.5 14.5t-14.5 33.5zM553 603h439l106 332h-439z" />
<glyph unicode="$" horiz-adv-x="1257" d="M215 279q0 32 30 45q12 4 18 4q32 0 45 -30q26 -62 70 -106q98 -98 238 -98q137 0 234.5 98t97.5 236q0 72 -29.5 137t-88.5 111l-431 314q-64 47 -106.5 128.5t-42.5 159.5q0 136 89.5 237.5t222.5 119.5v90q0 19 14 33.5t34 14.5t34 -14.5t14 -33.5v-90 q121 -17 205 -101q53 -50 79 -112q3 -9 3 -18q0 -32 -29 -45q-8 -4 -18 -4q-32 0 -45 30q-18 42 -57 80q-77 77 -186 77q-110 0 -187 -77.5t-77 -186.5q0 -51 33 -115t76 -95l433 -314q79 -60 117.5 -146.5t38.5 -179.5q0 -164 -109.5 -286.5t-270.5 -140.5v-90 q0 -19 -14 -33.5t-34 -14.5t-34 14.5t-14 33.5v90q-152 17 -258 123q-57 57 -91 137q-4 12 -4 18z" />
<glyph unicode="%" horiz-adv-x="1527" d="M215 48q0 13 8 26l1002 1542q14 22 41 22q15 0 26 -7q22 -14 22 -41q0 -13 -8 -26l-1002 -1542q-14 -22 -41 -22q-13 0 -26 8q-22 14 -22 40zM215 1340q0 124 87.5 211t211.5 87t211.5 -87t87.5 -211t-87.5 -211.5t-211.5 -87.5t-211.5 87.5t-87.5 211.5zM311 1340 q0 -84 59.5 -143.5t143.5 -59.5t143 59.5t59 143.5t-59 143t-143 59t-143.5 -59t-59.5 -143zM716 299q0 124 87.5 211.5t211.5 87.5t211.5 -87.5t87.5 -211.5t-87.5 -211.5t-211.5 -87.5t-211.5 87.5t-87.5 211.5zM813 299q0 -84 59 -143.5t143 -59.5t143 59.5t59 143.5 t-59 143t-143 59t-143 -59t-59 -143z" />
<glyph unicode="&#x26;" horiz-adv-x="1648" d="M273 428q0 93 38.5 179.5t117.5 146.5l180 131l-118 109q-60 56 -102.5 132.5t-42.5 151.5q0 149 105.5 254.5t255.5 105.5t255 -105.5t105 -254.5q0 -78 -42.5 -159.5t-106.5 -128.5l-157 -114l454 -420l183 190q14 15 35 15q20 0 33 -13q15 -14 15 -35q0 -20 -13 -33 q-84 -89 -183 -190l193 -177q15 -13 15 -36q0 -17 -13 -32q-14 -16 -35 -16q-18 0 -33 13l-194 180q-59 -60 -77.5 -78.5t-59.5 -58.5t-63 -58.5t-38 -27.5q-107 -101 -279 -101q-177 0 -302.5 126.5t-125.5 303.5zM369 428q0 -138 97.5 -236t234.5 -98q74 0 123 17.5 t94 61.5q6 6 14 10q31 20 215 204l-466 431l-194 -142q-118 -91 -118 -248zM442 1278q0 -47 34 -109t80 -104l132 -123l173 126q43 31 76.5 95t33.5 115q0 109 -77 186.5t-187 77.5t-187.5 -77.5t-77.5 -186.5z" />
<glyph unicode="'" horiz-adv-x="526" d="M215 1299v291q0 20 14.5 34t33.5 14t33.5 -14t14.5 -34v-291q0 -19 -14.5 -33.5t-33.5 -14.5t-33.5 14.5t-14.5 33.5z" />
<glyph unicode="(" horiz-adv-x="665" d="M215 821q0 408 144 786q11 31 45 31q10 0 17 -3q31 -11 31 -45q0 -10 -3 -17q-138 -363 -138 -752q0 -399 136 -756q3 -7 3 -16q0 -15 -8.5 -28t-22.5 -18q-7 -3 -17 -3q-15 0 -27.5 8.5t-17.5 22.5q-142 371 -142 790z" />
<glyph unicode=")" horiz-adv-x="665" d="M215 49q0 9 3 16q138 362 138 754q0 391 -138 754q-3 7 -3 17q0 34 31 45q8 3 17 3q34 0 45 -31q144 -378 144 -788q0 -412 -144 -788q-5 -14 -17.5 -22.5t-27.5 -8.5q-9 0 -17 3q-14 5 -22.5 18t-8.5 28z" />
<glyph unicode="*" horiz-adv-x="962" d="M215 1210q0 28 24 42l147 85l-147 85q-24 14 -24 42q0 14 6 24q14 24 43 24q11 0 23 -7l148 -85v170q0 20 14.5 34t33.5 14t33.5 -14t14.5 -34v-170l147 85q12 7 24 7q28 0 42 -24q6 -10 6 -24q0 -28 -24 -42l-147 -85l147 -85q24 -14 24 -42q0 -14 -6 -24 q-14 -24 -42 -24q-14 0 -24 6l-147 85v-170q0 -19 -14.5 -33.5t-33.5 -14.5t-33.5 14.5t-14.5 33.5v170l-148 -85q-11 -6 -23 -6q-29 0 -43 24q-6 10 -6 24z" />
<glyph unicode="+" horiz-adv-x="1032" d="M215 680q0 20 14.5 34.5t33.5 14.5h206v205q0 20 14.5 34t33.5 14t33.5 -14t14.5 -34v-205h205q19 0 33.5 -14.5t14.5 -34.5t-14 -34t-34 -14h-205v-205q0 -19 -14.5 -33.5t-33.5 -14.5t-33.5 14.5t-14.5 33.5v205h-206q-19 0 -33.5 14t-14.5 34z" />
<glyph unicode="," horiz-adv-x="526" d="M215 48q0 20 14.5 34t33.5 14t33.5 -14t14.5 -34v-291q0 -19 -14.5 -33.5t-33.5 -14.5t-33.5 14.5t-14.5 33.5v291z" />
<glyph unicode="-" horiz-adv-x="1032" d="M215 680q0 20 14.5 34.5t33.5 14.5h507q19 0 33.5 -14.5t14.5 -34.5t-14 -34t-34 -14h-507q-19 0 -33.5 14t-14.5 34z" />
<glyph unicode="." horiz-adv-x="528" d="M215 48q0 20 14 34t34 14t34 -14t14 -34t-14 -34t-34 -14t-34 14t-14 34z" />
<glyph unicode="/" horiz-adv-x="1017" d="M215 49q0 9 2 14l492 1542q4 15 17.5 24t28.5 9q9 0 14 -2q15 -4 24.5 -17.5t9.5 -28.5q0 -9 -2 -14l-492 -1542q-4 -15 -17.5 -24.5t-28.5 -9.5q-9 0 -14 2q-15 4 -24.5 18t-9.5 29z" />
<glyph unicode="0" horiz-adv-x="1161" d="M107 474v691q0 129 63.5 238t172.5 172t238 63t238 -63t172.5 -172t63.5 -238v-691q0 -129 -63.5 -238t-172.5 -172.5t-238 -63.5t-238 63.5t-172.5 172.5t-63.5 238zM204 474q0 -157 110 -267.5t267 -110.5t267.5 110.5t110.5 267.5v691q0 157 -110.5 267t-267.5 110 t-267 -110t-110 -267v-691z" />
<glyph unicode="1" horiz-adv-x="1161" d="M302 1247q0 19 14 33.5t34 14.5q123 0 210 87t89 209q0 19 14 33t34 14t34 -14t14 -34v-1542q0 -20 -14.5 -34t-33.5 -14t-33.5 14t-14.5 34v1288q-55 -64 -133 -100.5t-166 -36.5q-20 0 -34 14.5t-14 33.5z" />
<glyph unicode="2" horiz-adv-x="1161" d="M143 34q0 8 3.5 18t6.5 16l3 5l661 1092q32 62 32 113q0 109 -78.5 186.5t-187.5 77.5q-107 0 -184 -77q-39 -38 -57 -80q-13 -30 -44 -30q-11 0 -19 4q-29 13 -29 45q0 10 4 18q26 61 78 112q106 104 251 104q149 0 256 -105t107 -255q0 -76 -44 -159q0 -1 -1 -1l-1 -2 l-617 -1020h666q20 0 34.5 -14.5t14.5 -33.5t-14.5 -33.5t-34.5 -14.5h-751q-55 0 -55 34z" />
<glyph unicode="3" horiz-adv-x="1161" d="M109 468q0 20 14.5 34.5t33.5 14.5t33.5 -14.5t14.5 -34.5q0 -155 109.5 -263.5t266.5 -108.5q155 0 265.5 109t110.5 263q0 153 -113.5 265.5t-268.5 112.5q-19 0 -33.5 14t-14.5 34t14.5 34.5t33.5 14.5q124 0 211.5 88t87.5 212q0 123 -88 211t-211 88t-209.5 -86.5 t-88.5 -208.5q0 -19 -14.5 -33.5t-33.5 -14.5q-20 0 -34.5 14.5t-14.5 33.5v1q2 161 117 275.5t278 114.5q164 0 280 -116t116 -279q0 -108 -53.5 -199.5t-144.5 -144.5q125 -58 203 -175t78 -256q0 -194 -139 -331t-334 -137q-128 0 -237 62.5t-172 170t-63 235.5z" />
<glyph unicode="4" horiz-adv-x="1161" d="M27 473q0 8 3.5 18t7.5 16l3 6l694 1103q5 8 18 16q10 6 23 6q5 0 13 -2q6 -2 13 -5q8 -5 16 -18q6 -10 6 -23v-1054h239q19 0 33.5 -14t14.5 -34t-14.5 -34.5t-33.5 -14.5h-239v-391q0 -20 -14 -34t-34 -14t-34 14t-14 34v391h-646q-55 0 -55 34zM169 536h559v887z" />
<glyph unicode="5" horiz-adv-x="1161" d="M94 327q0 32 29 45q8 4 18 4q32 0 45 -30q47 -112 149 -181t227 -69q170 0 289.5 120t119.5 289q0 168 -117.5 287t-286.5 124h-290q-19 0 -33.5 14t-14.5 34v626q0 20 14.5 34t33.5 14h618q20 0 34.5 -14.5t14.5 -33.5t-14.5 -33.5t-34.5 -14.5h-570v-530h243 q208 -5 353.5 -152.5t145.5 -354.5q0 -209 -148 -357t-357 -148q-154 0 -280 85.5t-185 223.5q-3 6 -3 18z" />
<glyph unicode="6" horiz-adv-x="1161" d="M74 505v626q0 137 68 254t185 185t254 68q148 0 269.5 -77.5t184.5 -205.5q5 -12 5 -21q0 -30 -27 -43q-12 -5 -21 -5q-30 0 -43 27q-51 104 -149.5 166.5t-218.5 62.5q-169 0 -289.5 -120.5t-120.5 -290.5v-329q70 97 178 153.5t232 56.5q137 0 254 -68t185 -185 t68 -254t-68 -253.5t-185 -184t-254 -67.5t-254 67.5t-185 184t-68 253.5zM171 501q2 -168 121.5 -286.5t288.5 -118.5q170 0 290.5 120t120.5 289t-121 290t-290 121t-289.5 -120.5t-120.5 -290.5v-4z" />
<glyph unicode="7" horiz-adv-x="1161" d="M70 1590q0 19 14.5 33.5t34.5 14.5h925h9l9 -3q15 -7 22 -18q8 -13 8 -27q0 -6 -1 -9q-1 -1 -1 -4t-1 -5l-617 -1542q-11 -30 -45 -30q-9 0 -18 3q-30 11 -30 46q0 8 3 17l591 1476h-854q-20 0 -34.5 14.5t-14.5 33.5z" />
<glyph unicode="8" horiz-adv-x="1161" d="M74 507q0 155 86.5 282t226.5 186q-76 49 -121 129t-45 174q0 148 105.5 254t254.5 106t255 -106t106 -254q0 -94 -45 -174t-121 -129q139 -59 225.5 -186t86.5 -282q0 -137 -68 -254t-185 -185t-254 -68t-254 68t-185 185t-68 254zM171 507q0 -170 120.5 -290.5 t289.5 -120.5t290 121t121 290t-121 290t-290 121t-289.5 -120.5t-120.5 -290.5zM317 1278q0 -109 77.5 -186.5t186.5 -77.5t186.5 77.5t77.5 186.5t-77.5 186.5t-186.5 77.5t-186.5 -77.5t-77.5 -186.5z" />
<glyph unicode="9" horiz-adv-x="1161" d="M74 1131q0 137 68 254t185 185t254 68t254 -68t185 -185t68 -254v-622v-4q0 -137 -68 -253.5t-185 -184t-254 -67.5q-148 0 -270 77.5t-185 205.5q-5 12 -5 21q0 32 26 44q12 5 21 5q31 0 44 -27q51 -104 150 -167t219 -63q111 0 205 54t149.5 147.5t56.5 203.5v4v330 q-70 -97 -178 -153.5t-233 -56.5q-137 0 -254 68t-185 184.5t-68 253.5zM171 1131q0 -169 120.5 -289.5t289.5 -120.5q170 0 290.5 120.5t120.5 289.5t-121 290t-290 121t-289.5 -120.5t-120.5 -290.5z" />
<glyph unicode=":" horiz-adv-x="526" d="M215 48q0 20 14 34t34 14t34 -14t14 -34t-14 -34t-34 -14t-34 14t-14 34zM215 885q0 20 14 34t34 14t34 -14t14 -34t-14 -34t-34 -14t-34 14t-14 34z" />
<glyph unicode=";" horiz-adv-x="526" d="M209 48q0 20 14.5 34t33.5 14q20 0 34.5 -14.5t14.5 -33.5v-291q0 -19 -14.5 -33.5t-34.5 -14.5q-19 0 -33.5 14.5t-14.5 33.5v291zM215 885q0 20 14 34t34 14t34 -14t14 -34t-14 -34t-34 -14t-34 14t-14 34z" />
<glyph unicode="&#x3c;" horiz-adv-x="1017" d="M212 465q0 19 20 36l493 420q13 12 32 12q22 0 36 -17q12 -14 12 -31q0 -23 -17 -37l-450 -383l450 -384q17 -14 17 -37q0 -17 -12 -31q-14 -17 -36 -17q-19 0 -32 12l-493 420q-20 17 -20 37z" />
<glyph unicode="=" horiz-adv-x="1032" d="M215 476q0 20 14.5 34t33.5 14h507q20 0 34 -14t14 -34t-14 -34t-34 -14h-507q-19 0 -33.5 14t-14.5 34zM215 885q0 19 14.5 33.5t33.5 14.5h507q20 0 34 -14.5t14 -33.5t-14 -33.5t-34 -14.5h-507q-19 0 -33.5 14.5t-14.5 33.5z" />
<glyph unicode="&#x3e;" horiz-adv-x="1017" d="M215 44q0 23 17 37l450 384l-450 383q-17 14 -17 37q0 17 12 31q14 17 36 17q17 0 31 -12l494 -420q20 -17 20 -36q0 -20 -20 -37l-494 -420q-14 -12 -31 -12q-22 0 -36 17q-12 13 -12 31z" />
<glyph unicode="?" horiz-adv-x="1124" d="M254 1402q0 9 3 18q29 67 79 114q104 104 253 104q150 0 255 -105.5t105 -254.5q0 -76 -44 -159q0 -1 -1 -3l-241 -402q-50 -84 -67 -151t-17 -151q0 -20 -14.5 -34t-33.5 -14t-33.5 14t-14.5 34q0 93 20.5 175t76.5 176l241 402q32 62 32 113q0 109 -77 186.5t-187 77.5 q-109 0 -186 -77q-37 -34 -57 -82q-13 -30 -45 -30q-10 0 -18 4q-29 13 -29 45zM483 50q0 20 14 34t34 14t34 -14t14 -34t-14 -34t-34 -14t-34 14t-14 34z" />
<glyph unicode="@" horiz-adv-x="2066" d="M215 818q0 86 18 171q30 142 106.5 263.5t182.5 206t238.5 132t272.5 47.5q85 0 171 -18q190 -40 339 -158.5t230 -287t81 -356.5q0 -90 -17 -169q-15 -72 -65.5 -125.5t-111 -78.5t-120.5 -25q-21 0 -46 5q-59 12 -110 56t-80 104q-52 -67 -125 -104.5t-155 -37.5 q-38 0 -70 7q-123 27 -199.5 128.5t-76.5 230.5q0 46 8 83q28 132 127.5 216.5t225.5 84.5q33 0 71 -8q123 -27 199.5 -127.5t76.5 -229.5q0 -46 -8 -83h-1q-4 -20 -4 -45q0 -56 45 -113t96 -68q9 -2 26 -2q64 0 126 43t76 109q16 80 16 149q0 166 -71.5 314.5t-203 253 t-299.5 140.5q-74 16 -151 16q-253 0 -452.5 -160t-253.5 -413q-16 -74 -16 -151q0 -253 160 -452t413 -253q73 -16 150 -16q169 0 323 76q12 5 21 5q31 0 44 -27q5 -12 5 -21q0 -30 -27 -43q-172 -86 -366 -86q-89 0 -170 17q-142 30 -263.5 106.5t-206 182.5t-132 238.5 t-47.5 272.5zM774 809q0 -98 56 -172t144 -93q21 -5 50 -5q90 0 164 62.5t95 162.5v1q7 37 7 63q0 97 -56 170.5t-144 92.5q-26 6 -51 6q-90 0 -164 -62.5t-95 -162.5q-6 -32 -6 -63z" />
<glyph unicode="A" horiz-adv-x="1290" d="M61 49q0 7 3 15l535 1542q2 8 12 18t18 12q5 2 16 2t16 -2q8 -2 18 -12q8 -8 11 -18q328 -942 538 -1542q3 -8 3 -15q0 -35 -32 -46q-7 -3 -16 -3q-35 0 -46 32q-29 85 -89.5 256.5t-82.5 235.5h-640l-170 -492q-11 -32 -46 -32q-9 0 -16 3q-32 11 -32 46zM359 621h573 q-43 124 -148 425t-139 398z" />
<glyph unicode="B" horiz-adv-x="1335" d="M215 50v1540q0 20 15.5 34t32.5 14h311q147 -2 250.5 -105.5t103.5 -250.5q0 -78 -31.5 -147t-86.5 -120q183 -30 305 -172.5t122 -331.5q0 -140 -68.5 -257.5t-186 -185.5t-256.5 -68l-463 2q-20 0 -34 14.5t-14 33.5zM311 98l415 -2q172 0 293 121.5t121 293.5 q0 171 -120 291.5t-291 122.5h-120q-24 -2 -37 -2q-6 0 -14 2h-247v-827zM311 1022h292q42 5 76 21q69 31 111 95t42 143q0 107 -76 183t-183 78h-262v-520z" />
<glyph unicode="C" horiz-adv-x="1464" d="M176 665v308q0 181 89.5 334t243 242t334.5 89q136 0 257 -51.5t213 -143.5q14 -14 14 -34t-14 -34t-34 -14t-34 14q-79 79 -182.5 123t-219.5 44t-221.5 -45t-182 -121.5t-121.5 -181.5t-45 -221v-308q0 -116 45 -221t121.5 -181.5t182 -121.5t221.5 -45t219.5 44 t182.5 123q14 14 34 14t34 -14t14 -34t-14 -34q-92 -92 -213 -143.5t-257 -51.5q-181 0 -334.5 89t-243 242t-89.5 334z" />
<glyph unicode="D" horiz-adv-x="1603" d="M215 48v1542q0 20 15.5 34t32.5 14h386q160 0 309.5 -60.5t267.5 -178.5t179 -268.5t61 -311.5t-61 -311t-179 -268t-269 -179t-310 -61h-384q-20 0 -34 15.5t-14 32.5zM311 96h336q140 0 273.5 54t237.5 158t158 237t54 274t-54 274.5t-158 237.5t-236 157.5t-273 53.5 h-338v-1446z" />
<glyph unicode="E" horiz-adv-x="1277" d="M215 48v771v771q0 17 14 32.5t34 15.5h848q20 0 34.5 -14.5t14.5 -33.5t-14.5 -33.5t-34.5 -14.5h-800v-675h646q19 0 33.5 -14.5t14.5 -33.5t-14.5 -33.5t-33.5 -14.5h-646v-675h800q20 0 34.5 -14.5t14.5 -33.5t-14.5 -33.5t-34.5 -14.5h-848q-17 0 -32.5 14t-15.5 34z " />
<glyph unicode="F" horiz-adv-x="1181" d="M215 48v771v771q0 17 14 32.5t34 15.5h848q20 0 34.5 -14.5t14.5 -33.5t-14.5 -33.5t-34.5 -14.5h-800v-675h646q19 0 33.5 -14.5t14.5 -33.5t-14.5 -33.5t-33.5 -14.5h-646v-723q0 -20 -14.5 -34t-33.5 -14t-33.5 14t-14.5 34z" />
<glyph unicode="G" horiz-adv-x="1726" d="M138 819q0 160 61 311t179 269t267.5 178.5t309.5 60.5t311.5 -60t268.5 -177q14 -14 14 -34t-14 -34t-34 -14t-34 14q-103 103 -236.5 156t-275.5 53q-141 0 -273 -53.5t-236 -157.5t-158 -237.5t-54 -274.5t54 -274t158 -237t237 -158t274 -54q136 0 265 50.5 t232 147.5v429h-377q-20 0 -34.5 14.5t-14.5 33.5t14.5 33.5t34.5 14.5h426q20 0 34 -15.5t14 -32.5v-497q0 -20 -14 -34q-118 -118 -269 -179t-311 -61t-310.5 61t-268.5 179t-179 268.5t-61 310.5z" />
<glyph unicode="H" horiz-adv-x="1449" d="M215 48v771v771q0 20 14.5 34t33.5 14t33.5 -14t14.5 -34v-723h829v723q0 20 14 34t34 14t34.5 -14.5t14.5 -33.5v-1542q0 -19 -14.5 -33.5t-34.5 -14.5t-34 14t-14 34v723h-829v-723q0 -20 -14.5 -34t-33.5 -14t-33.5 14t-14.5 34z" />
<glyph unicode="I" horiz-adv-x="571" d="M238 48v1542q0 20 14 34t34 14t34.5 -14.5t14.5 -33.5v-1542q0 -19 -14.5 -33.5t-34.5 -14.5t-34 14t-14 34z" />
<glyph unicode="J" horiz-adv-x="931" d="M61 235q0 32 29 45q6 3 19 3q31 0 44 -29q18 -44 57 -81q77 -77 186 -77q110 0 187 77t77 187v1230q0 20 14 34t34 14t34.5 -14.5t14.5 -33.5v-1230q0 -150 -105.5 -255t-255.5 -105q-149 0 -253 104q-52 51 -78 112q-4 8 -4 19z" />
<glyph unicode="K" horiz-adv-x="1296" d="M215 48v1542q0 20 14.5 34t33.5 14t33.5 -14t14.5 -34v-1542q0 -20 -14.5 -34t-33.5 -14t-33.5 14t-14.5 34zM323 819q0 20 14 34l779 771q14 14 34 14t34 -14t14 -34t-14 -34l-744 -737l744 -737q14 -14 14 -34t-14 -34t-34 -14t-34 14l-779 771q-14 13 -14 34z" />
<glyph unicode="L" horiz-adv-x="1296" d="M215 48v1542q0 20 14.5 34t33.5 14t33.5 -14t14.5 -34v-1494h877q20 0 34.5 -14.5t14.5 -33.5t-14.5 -33.5t-34.5 -14.5h-925q-17 0 -32.5 14t-15.5 34z" />
<glyph unicode="M" horiz-adv-x="2070" d="M215 48v1542q0 20 14 34t34 14q31 0 44 -27l731 -1455l728 1456q5 10 18 19q10 7 25 7q7 0 11 -1q8 -2 11 -4q10 -5 19 -18q7 -10 7 -25v-1542q0 -20 -14.5 -34t-33.5 -14t-33.5 14t-14.5 34v1338l-680 -1359q-3 -7 -9 -13q-7 -7 -12 -9q-12 -5 -22 -5q-9 0 -21 5 q-7 3 -13 9t-9 13l-684 1360v-1339q0 -20 -14.5 -34t-33.5 -14t-33.5 14t-14.5 34z" />
<glyph unicode="N" horiz-adv-x="1605" d="M215 48v1542q0 12 6 22q5 10 15 18q6 5 13 6q10 2 14 2q13 0 22 -5q11 -5 18 -15l991 -1417v1389q0 19 14.5 33.5t34.5 14.5q19 0 33.5 -14t14.5 -34v-1542q0 -12 -6 -22q-4 -9 -15 -17q-8 -6 -13 -7q-10 -2 -14 -2q-13 0 -23 6q-9 4 -17 15l-992 1416v-1389 q0 -20 -14.5 -34t-33.5 -14t-33.5 14t-14.5 34z" />
<glyph unicode="O" horiz-adv-x="1912" d="M138 819q0 167 65 318.5t174.5 261t261 174.5t318.5 65t318.5 -65t261 -174.5t174.5 -261t65 -318.5t-65 -318.5t-174.5 -261t-261 -174.5t-318.5 -65t-318.5 65t-261 174.5t-174.5 261t-65 318.5zM234 819q0 -196 97 -362.5t263.5 -263.5t362.5 -97t362.5 97 t263.5 263.5t97 362.5t-97 362.5t-263.5 263.5t-362.5 97t-362.5 -97t-263.5 -263.5t-97 -362.5z" />
<glyph unicode="P" horiz-adv-x="1331" d="M215 48v1542q0 17 14 32.5t34 15.5h463q139 -1 255.5 -69.5t184 -186t67.5 -255.5q0 -105 -40.5 -199.5t-109 -162.5t-163 -108t-198.5 -40h-411v-569q0 -20 -14.5 -34t-33.5 -14t-33.5 14t-14.5 34zM311 713h411q172 0 293 121t121 293q0 112 -54.5 207.5t-149 151 t-206.5 56.5h-415v-829z" />
<glyph unicode="Q" horiz-adv-x="1921" d="M138 819q0 167 65.5 318.5t176 261t262.5 174.5t319 65t319 -65t262.5 -174.5t176 -261t65.5 -318.5q0 -155 -54.5 -294.5t-154.5 -250.5l191 -192q14 -14 14 -34t-14 -34t-34 -14t-34 14l-192 192q-111 -98 -251.5 -152t-293.5 -54q-167 0 -319 65t-262.5 174.5 t-176 261t-65.5 318.5zM234 819q0 -147 58 -281t155.5 -230.5t232 -154t281.5 -57.5q134 0 256.5 46.5t220.5 131.5l-191 191q-14 14 -14 34t14 34t34 14t34 -14l191 -191q182 205 182 477q0 147 -58 281t-155.5 230.5t-232 154t-281.5 57.5t-281.5 -57.5t-232 -154 t-155.5 -230.5t-58 -281z" />
<glyph unicode="R" horiz-adv-x="1218" d="M215 48v1542q0 20 15.5 34t32.5 14h390q179 0 304 -127.5t125 -306.5q0 -171 -114 -294t-282 -137l353 -703q5 -12 5 -21q0 -31 -27 -44q-12 -5 -21 -5q-30 0 -43 27l-374 744h-268v-723q0 -20 -14.5 -34t-33.5 -14t-33.5 14t-14.5 34zM311 867h338q140 0 238.5 98 t98.5 239q0 140 -97 239t-236 99h-342v-675z" />
<glyph unicode="S" horiz-adv-x="1103" d="M138 281q0 32 30 45q12 4 18 4q32 0 45 -30q26 -62 70 -106q98 -98 238 -98q137 0 234 98t97 236q0 161 -117 246l-431 314q-64 47 -106.5 128.5t-42.5 159.5q0 149 105 254.5t255 105.5q147 0 253 -104q53 -50 79 -112q3 -6 3 -18q0 -32 -29 -45q-8 -4 -18 -4 q-32 0 -45 30q-18 42 -57 80q-77 77 -186 77q-110 0 -187 -77.5t-77 -186.5q0 -51 33 -115t76 -95l432 -314q80 -58 118.5 -144t38.5 -180q0 -177 -125.5 -303.5t-302.5 -126.5q-180 0 -306 126q-57 57 -91 137q-4 12 -4 18z" />
<glyph unicode="T" horiz-adv-x="1296" d="M-16 1590q0 20 14 34t34 14h617h617q20 0 34 -14t14 -34t-14 -34t-34 -14h-569v-1494q0 -20 -14.5 -34t-33.5 -14t-33.5 14t-14.5 34v1494h-569q-20 0 -34 14t-14 34z" />
<glyph unicode="U" horiz-adv-x="1681" d="M176 665v925q0 19 14.5 33.5t34.5 14.5q19 0 33.5 -14t14.5 -34v-925q0 -116 45 -221t120.5 -181.5t181 -121.5t221.5 -45q155 0 286 76t207 207t76 286v925q0 20 14 34t34 14t34 -14t14 -34v-925q0 -181 -89 -334t-242 -242t-334 -89t-334 89t-242 242t-89 334z" />
<glyph unicode="V" horiz-adv-x="1374" d="M61 1590q0 34 31 45q7 3 17 3q34 0 45 -31l533 -1422l533 1422q11 31 46 31q8 0 16 -3q32 -12 32 -45q0 -10 -3 -17l-579 -1542q-14 -38 -38 -38q-12 0 -25 9.5t-20 19.5l-7 9l-578 1542q-3 7 -3 17z" />
<glyph unicode="W" horiz-adv-x="2095" d="M61 1590q0 36 34 46q10 2 14 2q36 0 46 -34l423 -1390l424 1390q3 13 12 20q9 9 20 12q10 2 14 2t14 -2q11 -3 20 -12t12 -20l422 -1390l424 1390q10 34 47 34q3 0 13 -2q16 -4 25.5 -17t9.5 -29q0 -4 -2 -14l-471 -1542q-3 -11 -12 -20t-20 -12q-10 -2 -14 -2t-14 2 q-11 3 -20 12t-12 20l-422 1391l-424 -1391q-2 -9 -13 -20q-9 -9 -20 -12q-10 -2 -14 -2t-14 2q-11 3 -20 12t-12 20l-468 1542q-2 10 -2 14z" />
<glyph unicode="X" horiz-adv-x="1466" d="M177 48q0 16 7 27l492 744l-492 745q-7 11 -7 26q0 26 21 40q13 8 26 8q28 0 41 -21l469 -710l468 710q14 21 41 21q13 0 26 -8q21 -14 21 -40q0 -15 -7 -26l-492 -745l492 -744q7 -11 7 -27q0 -26 -21 -40q-13 -8 -26 -8q-27 0 -41 22l-468 710l-469 -710 q-14 -22 -41 -22q-13 0 -26 8q-21 14 -21 40z" />
<glyph unicode="Y" horiz-adv-x="1333" d="M61 1590q0 25 20 39q12 9 28 9q25 0 39 -20l518 -717l520 717q14 20 39 20q16 0 28 -9q20 -14 20 -39q0 -16 -9 -28l-550 -758v-756q0 -20 -14 -34t-34 -14t-34 14t-14 34v756l-548 758q-9 12 -9 28z" />
<glyph unicode="Z" horiz-adv-x="1374" d="M170 34q0 8 3 18t7 16l3 5l882 1469h-840q-20 0 -34.5 14.5t-14.5 33.5t14.5 33.5t34.5 14.5h925q9 0 13 -1t12 -5q10 -6 17 -18q6 -10 6 -24q0 -5 -2 -13q-1 -4 -5 -12l-881 -1469h840q20 0 34 -14t14 -34t-14 -34t-34 -14h-925q-55 0 -55 34z" />
<glyph unicode="[" horiz-adv-x="665" d="M215 48l2 1542q0 20 14.5 34t33.5 14h139q20 0 34 -14t14 -34t-14 -34t-34 -14h-91l-2 -1446h91q20 0 34 -14t14 -34t-14 -34t-34 -14h-139q-19 0 -33.5 14t-14.5 34z" />
<glyph unicode="\" horiz-adv-x="1017" d="M215 1590q0 15 9.5 28.5t24.5 17.5q5 2 14 2q15 0 28.5 -9t17.5 -24l494 -1542q2 -5 2 -14q0 -15 -9.5 -29t-24.5 -18q-5 -2 -14 -2q-15 0 -28.5 9.5t-17.5 24.5l-494 1542q-2 5 -2 14z" />
<glyph unicode="]" horiz-adv-x="665" d="M215 1590q0 20 14.5 34t33.5 14h139q19 0 33.5 -14t14.5 -34l2 -1542q0 -20 -14 -34t-34 -14h-139q-19 0 -33.5 14t-14.5 34t14.5 34t33.5 14h91l-2 1446h-91q-19 0 -33.5 14t-14.5 34z" />
<glyph unicode="^" horiz-adv-x="1116" d="M215 1713q0 25 21 40l295 206q27 19 55 0l295 -206q20 -14 20 -40q0 -16 -8 -27q-14 -20 -40 -20q-17 0 -28 8l-267 187l-267 -187q-11 -8 -28 -8q-25 0 -39 20q-9 12 -9 27z" />
<glyph unicode="_" horiz-adv-x="1325" d="M215 -337q0 19 14.5 33.5t33.5 14.5h800q19 0 33.5 -14.5t14.5 -33.5q0 -20 -14.5 -34.5t-33.5 -14.5h-800q-19 0 -33.5 14.5t-14.5 34.5z" />
<glyph unicode="`" horiz-adv-x="821" d="M215 1920q0 16 9 28q14 20 39 20q16 0 28 -9l295 -206q20 -14 20 -40q0 -16 -8 -27q-14 -20 -40 -20q-16 0 -27 8l-295 207q-21 15 -21 39z" />
<glyph unicode="a" horiz-adv-x="1290" d="M61 49q0 7 3 15l535 1542q2 8 12 18t18 12q5 2 16 2t16 -2q8 -2 18 -12q8 -8 11 -18q328 -942 538 -1542q3 -8 3 -15q0 -35 -32 -46q-7 -3 -16 -3q-35 0 -46 32q-29 85 -89.5 256.5t-82.5 235.5h-640l-170 -492q-11 -32 -46 -32q-9 0 -16 3q-32 11 -32 46zM359 621h573 q-43 124 -148 425t-139 398z" />
<glyph unicode="b" horiz-adv-x="1335" d="M215 50v1540q0 20 15.5 34t32.5 14h311q147 -2 250.5 -105.5t103.5 -250.5q0 -78 -31.5 -147t-86.5 -120q183 -30 305 -172.5t122 -331.5q0 -140 -68.5 -257.5t-186 -185.5t-256.5 -68l-463 2q-20 0 -34 14.5t-14 33.5zM311 98l415 -2q172 0 293 121.5t121 293.5 q0 171 -120 291.5t-291 122.5h-120q-24 -2 -37 -2q-6 0 -14 2h-247v-827zM311 1022h292q42 5 76 21q69 31 111 95t42 143q0 107 -76 183t-183 78h-262v-520z" />
<glyph unicode="c" horiz-adv-x="1464" d="M176 665v308q0 181 89.5 334t243 242t334.5 89q136 0 257 -51.5t213 -143.5q14 -14 14 -34t-14 -34t-34 -14t-34 14q-79 79 -182.5 123t-219.5 44t-221.5 -45t-182 -121.5t-121.5 -181.5t-45 -221v-308q0 -116 45 -221t121.5 -181.5t182 -121.5t221.5 -45t219.5 44 t182.5 123q14 14 34 14t34 -14t14 -34t-14 -34q-92 -92 -213 -143.5t-257 -51.5q-181 0 -334.5 89t-243 242t-89.5 334z" />
<glyph unicode="d" horiz-adv-x="1603" d="M215 48v1542q0 20 15.5 34t32.5 14h386q160 0 309.5 -60.5t267.5 -178.5t179 -268.5t61 -311.5t-61 -311t-179 -268t-269 -179t-310 -61h-384q-20 0 -34 15.5t-14 32.5zM311 96h336q140 0 273.5 54t237.5 158t158 237t54 274t-54 274.5t-158 237.5t-236 157.5t-273 53.5 h-338v-1446z" />
<glyph unicode="e" horiz-adv-x="1277" d="M215 48v771v771q0 17 14 32.5t34 15.5h848q20 0 34.5 -14.5t14.5 -33.5t-14.5 -33.5t-34.5 -14.5h-800v-675h646q19 0 33.5 -14.5t14.5 -33.5t-14.5 -33.5t-33.5 -14.5h-646v-675h800q20 0 34.5 -14.5t14.5 -33.5t-14.5 -33.5t-34.5 -14.5h-848q-17 0 -32.5 14t-15.5 34z " />
<glyph unicode="f" horiz-adv-x="1181" d="M215 48v771v771q0 17 14 32.5t34 15.5h848q20 0 34.5 -14.5t14.5 -33.5t-14.5 -33.5t-34.5 -14.5h-800v-675h646q19 0 33.5 -14.5t14.5 -33.5t-14.5 -33.5t-33.5 -14.5h-646v-723q0 -20 -14.5 -34t-33.5 -14t-33.5 14t-14.5 34z" />
<glyph unicode="g" horiz-adv-x="1726" d="M138 819q0 160 61 311t179 269t267.5 178.5t309.5 60.5t311.5 -60t268.5 -177q14 -14 14 -34t-14 -34t-34 -14t-34 14q-103 103 -236.5 156t-275.5 53q-141 0 -273 -53.5t-236 -157.5t-158 -237.5t-54 -274.5t54 -274t158 -237t237 -158t274 -54q136 0 265 50.5 t232 147.5v429h-377q-20 0 -34.5 14.5t-14.5 33.5t14.5 33.5t34.5 14.5h426q20 0 34 -15.5t14 -32.5v-497q0 -20 -14 -34q-118 -118 -269 -179t-311 -61t-310.5 61t-268.5 179t-179 268.5t-61 310.5z" />
<glyph unicode="h" horiz-adv-x="1449" d="M215 48v771v771q0 20 14.5 34t33.5 14t33.5 -14t14.5 -34v-723h829v723q0 20 14 34t34 14t34.5 -14.5t14.5 -33.5v-1542q0 -19 -14.5 -33.5t-34.5 -14.5t-34 14t-14 34v723h-829v-723q0 -20 -14.5 -34t-33.5 -14t-33.5 14t-14.5 34z" />
<glyph unicode="i" horiz-adv-x="571" d="M238 48v1542q0 20 14 34t34 14t34.5 -14.5t14.5 -33.5v-1542q0 -19 -14.5 -33.5t-34.5 -14.5t-34 14t-14 34z" />
<glyph unicode="j" horiz-adv-x="931" d="M61 235q0 32 29 45q6 3 19 3q31 0 44 -29q18 -44 57 -81q77 -77 186 -77q110 0 187 77t77 187v1230q0 20 14 34t34 14t34.5 -14.5t14.5 -33.5v-1230q0 -150 -105.5 -255t-255.5 -105q-149 0 -253 104q-52 51 -78 112q-4 8 -4 19z" />
<glyph unicode="k" horiz-adv-x="1296" d="M215 48v1542q0 20 14.5 34t33.5 14t33.5 -14t14.5 -34v-1542q0 -20 -14.5 -34t-33.5 -14t-33.5 14t-14.5 34zM323 819q0 20 14 34l779 771q14 14 34 14t34 -14t14 -34t-14 -34l-744 -737l744 -737q14 -14 14 -34t-14 -34t-34 -14t-34 14l-779 771q-14 13 -14 34z" />
<glyph unicode="l" horiz-adv-x="1296" d="M215 48v1542q0 20 14.5 34t33.5 14t33.5 -14t14.5 -34v-1494h877q20 0 34.5 -14.5t14.5 -33.5t-14.5 -33.5t-34.5 -14.5h-925q-17 0 -32.5 14t-15.5 34z" />
<glyph unicode="m" horiz-adv-x="2070" d="M215 48v1542q0 20 14 34t34 14q31 0 44 -27l731 -1455l728 1456q5 10 18 19q10 7 25 7q7 0 11 -1q8 -2 11 -4q10 -5 19 -18q7 -10 7 -25v-1542q0 -20 -14.5 -34t-33.5 -14t-33.5 14t-14.5 34v1338l-680 -1359q-3 -7 -9 -13q-7 -7 -12 -9q-12 -5 -22 -5q-9 0 -21 5 q-7 3 -13 9t-9 13l-684 1360v-1339q0 -20 -14.5 -34t-33.5 -14t-33.5 14t-14.5 34z" />
<glyph unicode="n" horiz-adv-x="1605" d="M215 48v1542q0 12 6 22q5 10 15 18q6 5 13 6q10 2 14 2q13 0 22 -5q11 -5 18 -15l991 -1417v1389q0 19 14.5 33.5t34.5 14.5q19 0 33.5 -14t14.5 -34v-1542q0 -12 -6 -22q-4 -9 -15 -17q-8 -6 -13 -7q-10 -2 -14 -2q-13 0 -23 6q-9 4 -17 15l-992 1416v-1389 q0 -20 -14.5 -34t-33.5 -14t-33.5 14t-14.5 34z" />
<glyph unicode="o" horiz-adv-x="1912" d="M138 819q0 167 65 318.5t174.5 261t261 174.5t318.5 65t318.5 -65t261 -174.5t174.5 -261t65 -318.5t-65 -318.5t-174.5 -261t-261 -174.5t-318.5 -65t-318.5 65t-261 174.5t-174.5 261t-65 318.5zM234 819q0 -196 97 -362.5t263.5 -263.5t362.5 -97t362.5 97 t263.5 263.5t97 362.5t-97 362.5t-263.5 263.5t-362.5 97t-362.5 -97t-263.5 -263.5t-97 -362.5z" />
<glyph unicode="p" horiz-adv-x="1331" d="M215 48v1542q0 17 14 32.5t34 15.5h463q139 -1 255.5 -69.5t184 -186t67.5 -255.5q0 -105 -40.5 -199.5t-109 -162.5t-163 -108t-198.5 -40h-411v-569q0 -20 -14.5 -34t-33.5 -14t-33.5 14t-14.5 34zM311 713h411q172 0 293 121t121 293q0 112 -54.5 207.5t-149 151 t-206.5 56.5h-415v-829z" />
<glyph unicode="q" horiz-adv-x="1921" d="M138 819q0 167 65.5 318.5t176 261t262.5 174.5t319 65t319 -65t262.5 -174.5t176 -261t65.5 -318.5q0 -155 -54.5 -294.5t-154.5 -250.5l191 -192q14 -14 14 -34t-14 -34t-34 -14t-34 14l-192 192q-111 -98 -251.5 -152t-293.5 -54q-167 0 -319 65t-262.5 174.5 t-176 261t-65.5 318.5zM234 819q0 -147 58 -281t155.5 -230.5t232 -154t281.5 -57.5q134 0 256.5 46.5t220.5 131.5l-191 191q-14 14 -14 34t14 34t34 14t34 -14l191 -191q182 205 182 477q0 147 -58 281t-155.5 230.5t-232 154t-281.5 57.5t-281.5 -57.5t-232 -154 t-155.5 -230.5t-58 -281z" />
<glyph unicode="r" horiz-adv-x="1218" d="M215 48v1542q0 20 15.5 34t32.5 14h390q179 0 304 -127.5t125 -306.5q0 -171 -114 -294t-282 -137l353 -703q5 -12 5 -21q0 -31 -27 -44q-12 -5 -21 -5q-30 0 -43 27l-374 744h-268v-723q0 -20 -14.5 -34t-33.5 -14t-33.5 14t-14.5 34zM311 867h338q140 0 238.5 98 t98.5 239q0 140 -97 239t-236 99h-342v-675z" />
<glyph unicode="s" horiz-adv-x="1103" d="M138 281q0 32 30 45q12 4 18 4q32 0 45 -30q26 -62 70 -106q98 -98 238 -98q137 0 234 98t97 236q0 161 -117 246l-431 314q-64 47 -106.5 128.5t-42.5 159.5q0 149 105 254.5t255 105.5q147 0 253 -104q53 -50 79 -112q3 -6 3 -18q0 -32 -29 -45q-8 -4 -18 -4 q-32 0 -45 30q-18 42 -57 80q-77 77 -186 77q-110 0 -187 -77.5t-77 -186.5q0 -51 33 -115t76 -95l432 -314q80 -58 118.5 -144t38.5 -180q0 -177 -125.5 -303.5t-302.5 -126.5q-180 0 -306 126q-57 57 -91 137q-4 12 -4 18z" />
<glyph unicode="t" horiz-adv-x="1296" d="M-16 1590q0 20 14 34t34 14h617h617q20 0 34 -14t14 -34t-14 -34t-34 -14h-569v-1494q0 -20 -14.5 -34t-33.5 -14t-33.5 14t-14.5 34v1494h-569q-20 0 -34 14t-14 34z" />
<glyph unicode="u" horiz-adv-x="1681" d="M176 665v925q0 19 14.5 33.5t34.5 14.5q19 0 33.5 -14t14.5 -34v-925q0 -116 45 -221t120.5 -181.5t181 -121.5t221.5 -45q155 0 286 76t207 207t76 286v925q0 20 14 34t34 14t34 -14t14 -34v-925q0 -181 -89 -334t-242 -242t-334 -89t-334 89t-242 242t-89 334z" />
<glyph unicode="v" horiz-adv-x="1374" d="M61 1590q0 34 31 45q7 3 17 3q34 0 45 -31l533 -1422l533 1422q11 31 46 31q8 0 16 -3q32 -12 32 -45q0 -10 -3 -17l-579 -1542q-14 -38 -38 -38q-12 0 -25 9.5t-20 19.5l-7 9l-578 1542q-3 7 -3 17z" />
<glyph unicode="w" horiz-adv-x="2095" d="M61 1590q0 36 34 46q10 2 14 2q36 0 46 -34l423 -1390l424 1390q3 13 12 20q9 9 20 12q10 2 14 2t14 -2q11 -3 20 -12t12 -20l422 -1390l424 1390q10 34 47 34q3 0 13 -2q16 -4 25.5 -17t9.5 -29q0 -4 -2 -14l-471 -1542q-3 -11 -12 -20t-20 -12q-10 -2 -14 -2t-14 2 q-11 3 -20 12t-12 20l-422 1391l-424 -1391q-2 -9 -13 -20q-9 -9 -20 -12q-10 -2 -14 -2t-14 2q-11 3 -20 12t-12 20l-468 1542q-2 10 -2 14z" />
<glyph unicode="x" horiz-adv-x="1466" d="M177 48q0 16 7 27l492 744l-492 745q-7 11 -7 26q0 26 21 40q13 8 26 8q28 0 41 -21l469 -710l468 710q14 21 41 21q13 0 26 -8q21 -14 21 -40q0 -15 -7 -26l-492 -745l492 -744q7 -11 7 -27q0 -26 -21 -40q-13 -8 -26 -8q-27 0 -41 22l-468 710l-469 -710 q-14 -22 -41 -22q-13 0 -26 8q-21 14 -21 40z" />
<glyph unicode="y" horiz-adv-x="1333" d="M61 1590q0 25 20 39q12 9 28 9q25 0 39 -20l518 -717l520 717q14 20 39 20q16 0 28 -9q20 -14 20 -39q0 -16 -9 -28l-550 -758v-756q0 -20 -14 -34t-34 -14t-34 14t-14 34v756l-548 758q-9 12 -9 28z" />
<glyph unicode="z" horiz-adv-x="1374" d="M170 34q0 8 3 18t7 16l3 5l882 1469h-840q-20 0 -34.5 14.5t-14.5 33.5t14.5 33.5t34.5 14.5h925q9 0 13 -1t12 -5q10 -6 17 -18q6 -10 6 -24q0 -5 -2 -13q-1 -4 -5 -12l-881 -1469h840q20 0 34 -14t14 -34t-14 -34t-34 -14h-925q-55 0 -55 34z" />
<glyph unicode="{" horiz-adv-x="860" d="M215 819q0 19 14.5 33.5t33.5 14.5q49 0 84.5 35.5t35.5 84.5v435q0 90 63 153t153 63q19 0 33.5 -14t14.5 -34t-14.5 -34t-33.5 -14q-49 0 -84.5 -35t-35.5 -85v-435q0 -103 -80 -168q80 -65 80 -168v-435q0 -50 35.5 -85t84.5 -35q19 0 33.5 -14t14.5 -34t-14.5 -34 t-33.5 -14q-90 0 -153 63t-63 153v435q0 49 -35.5 84.5t-84.5 35.5q-19 0 -33.5 14.5t-14.5 33.5z" />
<glyph unicode="|" horiz-adv-x="526" d="M215 -337v1927q0 20 14.5 34t33.5 14t33.5 -14t14.5 -34v-1927q0 -20 -14.5 -34.5t-33.5 -14.5t-33.5 14.5t-14.5 34.5z" />
<glyph unicode="}" horiz-adv-x="860" d="M215 48q0 20 14.5 34t33.5 14q49 0 84.5 35t35.5 85v436q0 102 80 167q-80 65 -80 168v436q0 49 -35 84t-85 35q-19 0 -33.5 14t-14.5 34t14.5 34t33.5 14q89 0 152.5 -63t63.5 -152v-436q0 -49 35.5 -84.5t84.5 -35.5q19 0 33.5 -14.5t14.5 -33.5t-14.5 -33.5 t-33.5 -14.5q-50 0 -85 -35t-35 -84v-436q0 -89 -63.5 -152.5t-152.5 -63.5q-19 0 -33.5 14t-14.5 34z" />
<glyph unicode="~" horiz-adv-x="999" d="M215 750q0 20 14 34q63 63 153 63q89 0 152 -63q35 -35 85 -35q49 0 84 35q14 14 35 14q20 0 34 -14t14 -34t-14 -34q-63 -63 -153 -63t-153 63q-35 35 -84 35q-50 0 -85 -35q-14 -14 -34 -14t-34 14t-14 34z" />
<glyph />
<glyph />
<glyph />
<glyph />
<glyph />
<glyph />
<glyph unicode="&#x85;" />
<glyph />
<glyph />
<glyph />
<glyph />
<glyph />
<glyph />
<glyph />
<glyph />
<glyph />
<glyph />
<glyph />
<glyph />
<glyph />
<glyph />
<glyph />
<glyph />
<glyph />
<glyph />
<glyph />
<glyph />
<glyph />
<glyph />
<glyph />
<glyph />
<glyph />
<glyph />
<glyph unicode="&#xa1;" horiz-adv-x="526" d="M215 -48v1179q0 20 14.5 34.5t33.5 14.5t33.5 -14.5t14.5 -34.5v-1179q0 -20 -14.5 -34t-33.5 -14t-33.5 14t-14.5 34zM215 1494q0 20 14 34t34 14t34 -14t14 -34t-14 -34t-34 -14t-34 14t-14 34z" />
<glyph unicode="&#xa2;" horiz-adv-x="1464" d="M176 665v308q0 173 82.5 321.5t224.5 239.5t312 103v77q0 20 14.5 34t33.5 14q20 0 34.5 -14.5t14.5 -33.5v-77q245 -18 421 -194q14 -14 14 -34t-14 -34t-34 -14t-34 14q-79 79 -182.5 123t-219.5 44t-221.5 -45t-182 -121.5t-121.5 -181.5t-45 -221v-308 q0 -114 44 -218t119 -180t178 -121.5t217 -48.5q4 1 12 1q9 0 13 -1q227 4 389 166q14 14 34 14t34 -14t14 -34t-14 -34q-175 -175 -421 -193v-75q0 -19 -14.5 -33.5t-34.5 -14.5q-19 0 -33.5 14.5t-14.5 33.5v75q-170 12 -312 103t-224.5 239t-82.5 321z" />
<glyph unicode="&#xa3;" horiz-adv-x="1097" d="M3 48q0 20 14.5 34t33.5 14h172v609h-87q-19 0 -33.5 14.5t-14.5 34.5t14 34t34 14h87v476q0 150 105 255t255 105q149 0 253 -104q54 -52 79 -112q3 -6 3 -18q0 -32 -29 -45q-8 -4 -18 -4q-32 0 -45 30q-18 42 -57 80q-77 77 -186 77q-110 0 -187 -77t-77 -187v-476h584 q19 0 33.5 -14t14.5 -34t-14.5 -34.5t-33.5 -14.5h-584v-609h725q20 0 34 -14t14 -34t-14 -34t-34 -14h-773h-220q-19 0 -33.5 14t-14.5 34z" />
<glyph unicode="&#xa4;" horiz-adv-x="331" />
<glyph unicode="&#xa5;" horiz-adv-x="1333" d="M61 1590q0 25 20 39q12 9 28 9q25 0 39 -20l518 -717l520 717q14 20 39 20q16 0 28 -9q20 -14 20 -39q0 -16 -9 -28l-550 -758v-2h326q20 0 34 -14t14 -34t-14.5 -34.5t-33.5 -14.5h-326v-657q0 -20 -14 -34t-34 -14t-34 14t-14 34v657h-345q-19 0 -33.5 14.5t-14.5 34.5 t14.5 34t33.5 14h345v2l-548 758q-9 12 -9 28z" />
<glyph unicode="&#xa6;" horiz-adv-x="526" d="M215 -337v1927q0 20 14.5 34t33.5 14t33.5 -14t14.5 -34v-1927q0 -20 -14.5 -34.5t-33.5 -14.5t-33.5 14.5t-14.5 34.5z" />
<glyph unicode="&#xa7;" horiz-adv-x="1103" d="M138 156q0 32 30 45q9 3 18 3q32 0 45 -29q26 -62 70 -106q98 -98 238 -98q132 0 228 92t103 224q-60 -74 -146 -116t-185 -42q-180 0 -306 126q-57 57 -91 137q-4 12 -4 18q0 32 30 45q12 4 18 4q32 0 45 -30q26 -62 70 -106q97 -97 238 -97q103 0 186.5 57t120.5 150 q-31 73 -93 118l-431 314q-64 47 -106.5 128.5t-42.5 159.5q0 68 25 132q-25 63 -25 122q0 149 105 255t255 106q146 0 253 -105q53 -50 79 -112q3 -6 3 -18q0 -32 -29 -45q-8 -4 -18 -4q-32 0 -45 30q-18 42 -57 80q-77 77 -186 77q-110 0 -187 -77.5t-77 -186.5v-9 q107 115 264 115q147 0 253 -104q53 -50 79 -112q3 -6 3 -19q0 -31 -29 -44q-8 -4 -18 -4q-32 0 -45 29q-18 44 -57 81q-77 77 -186 77q-72 0 -132.5 -35.5t-95.5 -95.5q33 -59 73 -89l432 -314q80 -58 118.5 -144t38.5 -180q0 -63 -19 -126q19 -61 19 -128 q0 -177 -125.5 -303.5t-302.5 -126.5q-180 0 -306 126q-57 57 -91 137q-4 12 -4 18zM269 1153q0 -51 33 -115t76 -95l432 -314q36 -26 60 -55q-7 150 -117 231l-431 315q-30 22 -53 48v-15z" />
<glyph unicode="&#xa8;" horiz-adv-x="821" d="M215 1714v2q0 20 14.5 34t33.5 14t33.5 -14t14.5 -34v-2q0 -20 -14 -34.5t-34 -14.5t-34 14.5t-14 34.5zM510 1714v2q0 20 14 34t34 14t34 -14t14 -34v-2q0 -20 -14.5 -34.5t-33.5 -14.5t-33.5 14.5t-14.5 34.5z" />
<glyph unicode="&#xa9;" horiz-adv-x="1464" d="M176 665v308q0 173 82.5 321.5t224.5 239.5t312 103v77q0 20 14.5 34t33.5 14q20 0 34.5 -14.5t14.5 -33.5v-77q245 -18 421 -194q14 -14 14 -34t-14 -34t-34 -14t-34 14q-79 79 -182.5 123t-219.5 44t-221.5 -45t-182 -121.5t-121.5 -181.5t-45 -221v-308 q0 -114 44 -218t119 -180t178 -121.5t217 -48.5q4 1 12 1q9 0 13 -1q227 4 389 166q14 14 34 14t34 -14t14 -34t-14 -34q-175 -175 -421 -193v-75q0 -19 -14.5 -33.5t-34.5 -14.5q-19 0 -33.5 14.5t-14.5 33.5v75q-170 12 -312 103t-224.5 239t-82.5 321z" />
<glyph unicode="&#xaa;" horiz-adv-x="1290" d="M61 49q0 7 3 15l535 1542q2 8 12 18t18 12q5 2 16 2t16 -2q8 -2 18 -12q8 -8 11 -18q328 -942 538 -1542q3 -8 3 -15q0 -35 -32 -46q-7 -3 -16 -3q-35 0 -46 32q-29 85 -89.5 256.5t-82.5 235.5h-640l-170 -492q-11 -32 -46 -32q-9 0 -16 3q-32 11 -32 46zM359 621h573 q-43 124 -148 425t-139 398z" />
<glyph unicode="&#xab;" horiz-adv-x="1212" d="M215 465q0 14 10 29l320 420q14 19 38 19q16 0 29 -10q19 -14 19 -38q0 -17 -9 -29l-298 -391l298 -391q9 -12 9 -29q0 -25 -19 -39q-13 -10 -29 -10q-24 0 -38 19l-320 420q-10 15 -10 30zM581 465q0 14 10 29l320 420q14 19 39 19q16 0 29 -10q18 -14 18 -38 q0 -17 -9 -29l-298 -391l298 -391q9 -12 9 -29q0 -25 -18 -39q-13 -10 -29 -10q-25 0 -39 19l-320 420q-10 15 -10 30z" />
<glyph unicode="&#xac;" horiz-adv-x="1032" d="M215 680q0 20 14.5 34.5t33.5 14.5h507q19 0 33.5 -14.5t14.5 -34.5v-140q0 -20 -14 -34t-34 -14t-34 14t-14 34v92h-459q-19 0 -33.5 14t-14.5 34z" />
<glyph unicode="&#xad;" horiz-adv-x="1032" d="M215 680q0 20 14.5 34.5t33.5 14.5h507q19 0 33.5 -14.5t14.5 -34.5t-14 -34t-34 -14h-507q-19 0 -33.5 14t-14.5 34z" />
<glyph unicode="&#xae;" horiz-adv-x="1218" d="M215 48v1542q0 20 15.5 34t32.5 14h293v79q0 20 14.5 34.5t33.5 14.5q20 0 34.5 -15t14.5 -34v-79q179 0 304 -127.5t125 -306.5q0 -171 -114 -294t-282 -137l353 -703q5 -12 5 -21q0 -31 -27 -44q-12 -5 -21 -5q-30 0 -43 27l-374 744h-268v-723q0 -20 -14.5 -34 t-33.5 -14t-33.5 14t-14.5 34zM311 867h338q140 0 238.5 98t98.5 239q0 140 -97 239t-236 99h-342v-675zM556 48q0 20 14 34t34 14t34.5 -14.5t14.5 -33.5v-123q0 -19 -14.5 -33.5t-34.5 -14.5t-34 14.5t-14 33.5v123z" />
<glyph unicode="&#xaf;" horiz-adv-x="1032" d="M215 1717q0 20 14.5 34.5t33.5 14.5h507q19 0 33.5 -14.5t14.5 -34.5q0 -19 -14 -33.5t-34 -14.5h-507q-19 0 -33.5 14.5t-14.5 33.5z" />
<glyph unicode="&#xb0;" horiz-adv-x="1026" d="M215 1340q0 124 87.5 211t211.5 87t211.5 -87t87.5 -211t-87.5 -211.5t-211.5 -87.5t-211.5 87.5t-87.5 211.5zM311 1340q0 -84 59.5 -143.5t143.5 -59.5t143 59.5t59 143.5t-59 143t-143 59t-143.5 -59t-59.5 -143z" />
<glyph unicode="&#xb1;" horiz-adv-x="1032" d="M215 295q0 19 14.5 33.5t33.5 14.5h507q20 0 34 -14.5t14 -33.5t-14 -33.5t-34 -14.5h-507q-19 0 -33.5 14.5t-14.5 33.5zM215 680q0 20 14.5 34.5t33.5 14.5h206v205q0 20 14.5 34t33.5 14t33.5 -14t14.5 -34v-205h205q19 0 33.5 -14.5t14.5 -34.5t-14 -34t-34 -14h-205 v-205q0 -19 -14.5 -33.5t-33.5 -14.5t-33.5 14.5t-14.5 33.5v205h-206q-19 0 -33.5 14t-14.5 34z" />
<glyph unicode="&#xb2;" horiz-adv-x="1161" d="M143 34q0 8 3.5 18t6.5 16l3 5l661 1092q32 62 32 113q0 109 -78.5 186.5t-187.5 77.5q-107 0 -184 -77q-39 -38 -57 -80q-13 -30 -44 -30q-11 0 -19 4q-29 13 -29 45q0 10 4 18q26 61 78 112q106 104 251 104q149 0 256 -105t107 -255q0 -76 -44 -159q0 -1 -1 -1l-1 -2 l-617 -1020h666q20 0 34.5 -14.5t14.5 -33.5t-14.5 -33.5t-34.5 -14.5h-751q-55 0 -55 34z" />
<glyph unicode="&#xb3;" horiz-adv-x="1161" d="M109 468q0 20 14 34.5t34 14.5q19 0 34 -14.5t15 -34.5q0 -155 109 -263.5t266 -108.5q155 0 265.5 109t110.5 263q0 153 -113.5 265.5t-268.5 112.5q-19 0 -33.5 14t-14.5 34t14.5 34.5t33.5 14.5h1q124 0 211 88t87 212q0 123 -88 211t-211 88t-209.5 -86.5 t-88.5 -208.5q0 -19 -14.5 -33.5t-33.5 -14.5q-20 0 -34.5 14.5t-14.5 33.5q0 162 116.5 276.5t278.5 114.5q164 0 280 -116t116 -279q0 -108 -53.5 -199.5t-144.5 -144.5q125 -58 203 -175t78 -256q0 -194 -139 -331t-334 -137q-128 0 -237 62.5t-172 170t-63 235.5z" />
<glyph unicode="&#xb4;" horiz-adv-x="819" d="M215 1713q0 26 20 40l293 206q12 9 28 9q26 0 40 -20q8 -11 8 -28q0 -26 -20 -40l-293 -206q-11 -8 -28 -8q-25 0 -39 20q-9 12 -9 27z" />
<glyph unicode="&#xb5;" horiz-adv-x="1681" d="M176 665v925q0 19 14.5 33.5t34.5 14.5q19 0 33.5 -14t14.5 -34v-925q0 -116 45 -221t120.5 -181.5t181 -121.5t221.5 -45q155 0 286 76t207 207t76 286v925q0 20 14 34t34 14t34 -14t14 -34v-925q0 -181 -89 -334t-242 -242t-334 -89t-334 89t-242 242t-89 334z" />
<glyph unicode="&#xb6;" horiz-adv-x="1331" d="M215 1127q0 138 67.5 255.5t184 186t255.5 69.5h227h236q20 0 34 -15.5t14 -32.5v-1542q0 -20 -14.5 -34t-33.5 -14q-20 0 -34.5 14.5t-14.5 33.5v569h-138v-569q0 -19 -14.5 -33.5t-34.5 -14.5q-19 0 -33.5 14t-14.5 34v569h-175q-104 0 -198.5 40t-163 108t-109 162.5 t-40.5 199.5zM311 1127q0 -172 121.5 -293t293.5 -121h175v829h-179q-112 -1 -206.5 -56.5t-149.5 -151t-55 -207.5zM998 713h138v829h-138v-829z" />
<glyph unicode="&#xb7;" horiz-adv-x="526" d="M215 819q0 20 14 34t34 14t34 -14t14 -34t-14 -34t-34 -14t-34 14t-14 34z" />
<glyph unicode="&#xb8;" horiz-adv-x="526" d="M215 48q0 20 14.5 34t33.5 14t33.5 -14t14.5 -34v-291q0 -19 -14.5 -33.5t-33.5 -14.5t-33.5 14.5t-14.5 33.5v291z" />
<glyph unicode="&#xb9;" horiz-adv-x="1161" d="M302 1247q0 19 14 33.5t34 14.5q123 0 210 87t89 209q0 19 14 33t34 14t34 -14t14 -34v-1542q0 -20 -14.5 -34t-33.5 -14t-33.5 14t-14.5 34v1288q-55 -64 -133 -100.5t-166 -36.5q-20 0 -34 14.5t-14 33.5z" />
<glyph unicode="&#xba;" horiz-adv-x="1026" d="M215 1340q0 124 87.5 211t211.5 87t211.5 -87t87.5 -211t-87.5 -211.5t-211.5 -87.5t-211.5 87.5t-87.5 211.5zM311 1340q0 -84 59.5 -143.5t143.5 -59.5t143 59.5t59 143.5t-59 143t-143 59t-143.5 -59t-59.5 -143z" />
<glyph unicode="&#xbb;" horiz-adv-x="1212" d="M215 45q0 16 10 29l298 391l-298 391q-10 13 -10 29q0 24 19 38q13 10 29 10q25 0 39 -19l320 -420q9 -14 9 -29q0 -17 -9 -30l-320 -420q-14 -19 -39 -19q-16 0 -29 10q-19 14 -19 39zM581 45q0 16 10 29l298 391l-298 391q-10 13 -10 29q0 24 19 38q13 10 29 10 q25 0 39 -19l320 -420q10 -15 10 -29q0 -15 -10 -30l-320 -420q-14 -19 -39 -19q-16 0 -29 10q-19 14 -19 39z" />
<glyph unicode="&#xbc;" horiz-adv-x="1161" d="M27 473q0 8 3.5 18t7.5 16l3 6l473 751v72q-55 -64 -133 -100.5t-166 -36.5q-19 0 -33.5 14.5t-14.5 33.5t14.5 33.5t33.5 14.5q123 0 210 87t89 209q6 -1 14 -1q9 0 34 0.5t34 0.5l14 -1v-173l125 199q5 8 18 16q10 6 23 6q5 0 13 -2q6 -2 13 -5q8 -5 16 -18 q6 -10 6 -23v-1054h239q19 0 33.5 -14t14.5 -34t-14.5 -34.5t-33.5 -14.5h-239v-391q0 -20 -14 -34t-34 -14t-34 14t-14 34v391h-118v-391q0 -20 -14 -34t-34 -14t-34 14t-14 34v391h-432q-55 0 -55 34zM169 536h345v547zM610 536h118v887l-118 -187v-700z" />
<glyph unicode="&#xbd;" horiz-adv-x="1161" d="M143 34q0 8 3.5 18t6.5 16l3 5l493 814v449q-55 -64 -133 -100.5t-166 -36.5q-20 0 -34 14.5t-14 33.5t14 33.5t34 14.5q108 0 190.5 68.5t102.5 171.5q-33 7 -60 7q-107 0 -184 -77q-39 -38 -57 -80q-13 -30 -44 -30q-11 0 -19 4q-29 13 -29 45q0 10 4 18q26 61 78 112 q106 104 251 104q46 0 85 -10q13 10 29 10q20 0 34 -14q10 -10 13 -23q91 -45 146.5 -131.5t55.5 -191.5q0 -76 -44 -159q0 -1 -1 -1l-1 -2l-155 -256v-764h204q20 0 34.5 -14.5t14.5 -33.5t-14.5 -33.5t-34.5 -14.5h-252h-499q-55 0 -55 34zM283 96h366v605zM745 1046 l72 119q32 62 32 113q0 63 -28 117.5t-76 91.5v-441z" />
<glyph unicode="&#xbe;" horiz-adv-x="1161" d="M27 473q0 8 3.5 18t7.5 16l3 6l636 1011q-48 18 -102 18q-123 0 -209.5 -86.5t-88.5 -208.5q0 -19 -14.5 -33.5t-33.5 -14.5q-20 0 -34.5 14.5t-14.5 33.5v1q2 161 117 275.5t278 114.5q82 0 155 -31l5 9q5 8 18 16q10 6 23 6q5 0 13 -2q6 -2 13 -5q8 -5 16 -18 q6 -10 6 -23v-40q68 -56 107.5 -136.5t39.5 -170.5q0 -91 -39 -171.5t-108 -136.5v-63q90 -56 149.5 -144t75.5 -192h14q19 0 33.5 -14t14.5 -34t-14.5 -34.5t-33.5 -14.5h-10q-7 -117 -68.5 -215t-160.5 -157v-19q0 -20 -14 -34t-34 -14q-29 0 -42 25q-75 -25 -153 -25 q-124 0 -229.5 58t-170 158.5t-71.5 222.5h-28q-55 0 -55 34zM169 536h559v277q-74 33 -153 33q-19 0 -33.5 14t-14.5 34t14.5 34.5t33.5 14.5h1q84 0 152 42v438zM207 439q11 -145 118 -244t256 -99q76 0 147 30v313h-521zM824 184q56 47 91 113.5t41 141.5h-132v-255z M824 536h127q-24 126 -127 216v-216zM824 1077q50 75 50 166q0 92 -50 165v-331z" />
<glyph unicode="&#xbf;" horiz-adv-x="1124" d="M215 266q0 76 44 159q0 1 1 3l241 402q50 84 67 150.5t17 150.5q0 20 14.5 34.5t33.5 14.5t34 -15t15 -34q0 -92 -21 -174t-77 -176l-240 -402q-33 -64 -33 -113q0 -109 77 -186.5t187 -77.5t187 77q35 32 56 82q13 30 45 30q10 0 18 -4q30 -13 30 -45q0 -6 -4 -18 q-29 -68 -78 -114q-104 -104 -254 -104t-255 105.5t-105 254.5zM585 1494q0 20 14 34t34 14t34.5 -14t14.5 -34t-14.5 -34t-34.5 -14t-34 14t-14 34z" />
<glyph unicode="&#xc0;" horiz-adv-x="1290" d="M61 49q0 7 3 15l535 1542q2 8 12 18t18 12q5 2 16 2t16 -2q8 -2 18 -12q8 -8 11 -18q328 -942 538 -1542q3 -8 3 -15q0 -35 -32 -46q-7 -3 -16 -3q-35 0 -46 32q-29 85 -89.5 256.5t-82.5 235.5h-640l-170 -492q-11 -32 -46 -32q-9 0 -16 3q-32 11 -32 46zM359 621h573 q-43 124 -148 425t-139 398zM443 1920q0 17 8 28q14 20 40 20q15 0 27 -9l295 -206q21 -15 21 -40q0 -15 -9 -27q-14 -20 -40 -20q-16 0 -27 8l-295 207q-20 14 -20 39z" />
<glyph unicode="&#xc1;" horiz-adv-x="1290" d="M61 49q0 7 3 15l535 1542q2 8 12 18t18 12q5 2 16 2t16 -2q8 -2 18 -12q8 -8 11 -18q328 -942 538 -1542q3 -8 3 -15q0 -35 -32 -46q-7 -3 -16 -3q-35 0 -46 32q-29 85 -89.5 256.5t-82.5 235.5h-640l-170 -492q-11 -32 -46 -32q-9 0 -16 3q-32 11 -32 46zM359 621h573 q-43 124 -148 425t-139 398zM439 1713q0 26 20 40l293 206q12 9 28 9q25 0 39 -20q9 -12 9 -28q0 -26 -20 -40l-293 -206q-11 -8 -28 -8q-26 0 -40 20q-8 11 -8 27z" />
<glyph unicode="&#xc2;" horiz-adv-x="1290" d="M61 49q0 7 3 15l535 1542q2 8 12 18t18 12q5 2 16 2t16 -2q8 -2 18 -12q8 -8 11 -18q328 -942 538 -1542q3 -8 3 -15q0 -35 -32 -46q-7 -3 -16 -3q-35 0 -46 32q-29 85 -89.5 256.5t-82.5 235.5h-640l-170 -492q-11 -32 -46 -32q-9 0 -16 3q-32 11 -32 46zM296 1713 q0 25 21 40l294 206q28 19 56 0l295 -206q20 -14 20 -40q0 -15 -9 -27q-14 -20 -39 -20q-17 0 -28 8l-267 187l-267 -187q-11 -8 -28 -8q-25 0 -39 20q-9 12 -9 27zM359 621h573q-43 124 -148 425t-139 398z" />
<glyph unicode="&#xc3;" horiz-adv-x="1290" d="M61 49q0 7 3 15l535 1542q2 8 12 18t18 12q5 2 16 2t16 -2q8 -2 18 -12q8 -8 11 -18q328 -942 538 -1542q3 -8 3 -15q0 -35 -32 -46q-7 -3 -16 -3q-35 0 -46 32q-29 85 -89.5 256.5t-82.5 235.5h-640l-170 -492q-11 -32 -46 -32q-9 0 -16 3q-32 11 -32 46zM359 621h573 q-43 124 -148 425t-139 398zM366 1760q0 20 14 34q63 63 152 63q90 0 153 -63q35 -35 84 -35q50 0 85 35q14 14 34 14t34 -14t14 -34t-14 -34q-63 -63 -153 -63q-89 0 -152 63q-35 35 -85 35q-49 0 -84 -35q-14 -14 -34 -14t-34 14t-14 34z" />
<glyph unicode="&#xc4;" horiz-adv-x="1290" d="M61 49q0 7 3 15l535 1542q2 8 12 18t18 12q5 2 16 2t16 -2q8 -2 18 -12q8 -8 11 -18q328 -942 538 -1542q3 -8 3 -15q0 -35 -32 -46q-7 -3 -16 -3q-35 0 -46 32q-29 85 -89.5 256.5t-82.5 235.5h-640l-170 -492q-11 -32 -46 -32q-9 0 -16 3q-32 11 -32 46zM359 621h573 q-43 124 -148 425t-139 398zM441 1714v2q0 20 14.5 34t33.5 14t33.5 -14t14.5 -34v-2q0 -20 -14 -34.5t-34 -14.5t-34 14.5t-14 34.5zM735 1714v2q0 19 14.5 33.5t34.5 14.5t34 -14t14 -34v-2q0 -20 -14.5 -34.5t-33.5 -14.5q-20 0 -34.5 14.5t-14.5 34.5z" />
<glyph unicode="&#xc5;" horiz-adv-x="1290" d="M61 49q0 7 3 15l515 1482q-99 23 -164 104.5t-65 186.5q0 124 87.5 211.5t211.5 87.5t211.5 -87.5t87.5 -211.5q0 -107 -67 -188.5t-169 -103.5q1 -4 205 -589.5t311 -891.5q3 -8 3 -15q0 -35 -32 -46q-7 -3 -16 -3q-35 0 -46 32q-29 85 -89.5 256.5t-82.5 235.5h-640 l-170 -492q-11 -32 -46 -32q-9 0 -16 3q-32 11 -32 46zM359 621h573q-43 124 -148 425t-139 398zM446 1837q0 -79 52.5 -136t129.5 -65h1q5 2 16 2t16 -2q1 0 1 -0.5t1 -0.5q80 5 134 63t54 139q0 84 -59 143t-143 59t-143.5 -59t-59.5 -143z" />
<glyph unicode="&#xc6;" horiz-adv-x="2129" d="M82 49q0 11 7 23l898 1542q10 16 26 22q5 2 15 2h849q19 0 33.5 -14t14.5 -34t-14.5 -34t-33.5 -14h-800v-675h645q20 0 34.5 -14.5t14.5 -33.5t-14.5 -33.5t-34.5 -14.5h-645v-675h800q19 0 33.5 -14t14.5 -34t-14.5 -34t-33.5 -14h-849q-17 0 -32.5 14t-15.5 34v477 l-515 3l-293 -504q-14 -24 -42 -24q-12 0 -24 7q-24 14 -24 42zM521 624l459 -3v198v593z" />
<glyph unicode="&#xc7;" horiz-adv-x="1464" d="M176 665v308q0 181 89.5 334t243 242t334.5 89q136 0 257 -51.5t213 -143.5q14 -14 14 -34t-14 -34t-34 -14t-34 14q-79 79 -182.5 123t-219.5 44t-221.5 -45t-182 -121.5t-121.5 -181.5t-45 -221v-308q0 -116 45 -221t121.5 -181.5t182 -121.5t221.5 -45t219.5 44 t182.5 123q14 14 34 14t34 -14t14 -34t-14 -34q-175 -175 -421 -193v-245q0 -19 -14.5 -33.5t-34.5 -14.5q-19 0 -33.5 14.5t-14.5 33.5v245q-170 12 -312 103t-224.5 239t-82.5 321z" />
<glyph unicode="&#xc8;" horiz-adv-x="1277" d="M215 48v771v771q0 17 14 32.5t34 15.5h848q20 0 34.5 -14.5t14.5 -33.5t-14.5 -33.5t-34.5 -14.5h-800v-675h646q19 0 33.5 -14.5t14.5 -33.5t-14.5 -33.5t-33.5 -14.5h-646v-675h800q20 0 34.5 -14.5t14.5 -33.5t-14.5 -33.5t-34.5 -14.5h-848q-17 0 -32.5 14t-15.5 34z M488 1920q0 16 9 28q14 20 40 20q15 0 27 -9l295 -206q20 -14 20 -40q0 -16 -8 -27q-14 -20 -40 -20q-16 0 -27 8l-295 207q-21 15 -21 39z" />
<glyph unicode="&#xc9;" horiz-adv-x="1277" d="M215 48v771v771q0 17 14 32.5t34 15.5h848q20 0 34.5 -14.5t14.5 -33.5t-14.5 -33.5t-34.5 -14.5h-800v-675h646q19 0 33.5 -14.5t14.5 -33.5t-14.5 -33.5t-33.5 -14.5h-646v-675h800q20 0 34.5 -14.5t14.5 -33.5t-14.5 -33.5t-34.5 -14.5h-848q-17 0 -32.5 14t-15.5 34z M510 1713q0 26 20 40l293 206q12 9 27 9q26 0 40 -20q9 -12 9 -28q0 -25 -21 -40l-293 -206q-11 -8 -27 -8q-26 0 -40 20q-8 11 -8 27z" />
<glyph unicode="&#xca;" horiz-adv-x="1277" d="M215 48v771v771q0 17 14 32.5t34 15.5h848q20 0 34.5 -14.5t14.5 -33.5t-14.5 -33.5t-34.5 -14.5h-800v-675h646q19 0 33.5 -14.5t14.5 -33.5t-14.5 -33.5t-33.5 -14.5h-646v-675h800q20 0 34.5 -14.5t14.5 -33.5t-14.5 -33.5t-34.5 -14.5h-848q-17 0 -32.5 14t-15.5 34z M355 1713q0 25 21 40l295 206q27 19 55 0l295 -206q20 -14 20 -40q0 -16 -8 -27q-14 -20 -40 -20q-16 0 -27 8l-268 187l-267 -187q-11 -8 -27 -8q-26 0 -40 20q-9 12 -9 27z" />
<glyph unicode="&#xcb;" horiz-adv-x="1277" d="M215 48v771v771q0 17 14 32.5t34 15.5h848q20 0 34.5 -14.5t14.5 -33.5t-14.5 -33.5t-34.5 -14.5h-800v-675h646q19 0 33.5 -14.5t14.5 -33.5t-14.5 -33.5t-33.5 -14.5h-646v-675h800q20 0 34.5 -14.5t14.5 -33.5t-14.5 -33.5t-34.5 -14.5h-848q-17 0 -32.5 14t-15.5 34z M490 1710v2q0 20 14 34t34 14t34.5 -14.5t14.5 -33.5v-2q0 -20 -14.5 -34t-34.5 -14t-34 14t-14 34zM785 1710v2q0 20 14.5 34t33.5 14t33.5 -14t14.5 -34v-2q0 -20 -14.5 -34t-33.5 -14t-33.5 14t-14.5 34z" />
<glyph unicode="&#xcc;" horiz-adv-x="571" d="M91 1920q0 17 8 28q14 20 40 20q16 0 28 -9l294 -206q21 -15 21 -40q0 -15 -9 -27q-14 -20 -39 -20q-17 0 -28 8l-295 207q-20 14 -20 39zM241 48v1542q0 20 14.5 34t33.5 14t33.5 -14t14.5 -34v-1542q0 -20 -14.5 -34t-33.5 -14t-33.5 14t-14.5 34z" />
<glyph unicode="&#xcd;" horiz-adv-x="571" d="M92 1713q0 26 20 40l293 206q12 9 28 9q25 0 39 -20q9 -12 9 -28q0 -26 -20 -40l-293 -206q-11 -8 -28 -8q-26 0 -40 20q-8 11 -8 27zM246 48v1542q0 20 14 34t34 14t34 -14t14 -34v-1542q0 -20 -14 -34t-34 -14t-34 14t-14 34z" />
<glyph unicode="&#xce;" horiz-adv-x="571" d="M-57 1713q0 25 21 40l295 206q27 19 55 0l295 -206q20 -14 20 -40q0 -16 -8 -27q-14 -20 -40 -20q-16 0 -27 8l-268 187l-267 -187q-11 -8 -27 -8q-26 0 -40 20q-9 12 -9 27zM232 48v1542q0 19 14.5 33.5t34.5 14.5q19 0 33.5 -14t14.5 -34v-1542q0 -20 -14.5 -34 t-33.5 -14q-20 0 -34.5 14.5t-14.5 33.5z" />
<glyph unicode="&#xcf;" horiz-adv-x="571" d="M90 1717v2q0 20 14.5 34.5t33.5 14.5t33.5 -14.5t14.5 -34.5v-2q0 -20 -14 -34t-34 -14t-34 14t-14 34zM259 48v1542q0 19 14.5 33.5t34.5 14.5t34 -14t14 -34v-1542q0 -20 -14 -34t-34 -14t-34.5 14.5t-14.5 33.5zM385 1717v2q0 20 14.5 34.5t33.5 14.5t33.5 -14.5 t14.5 -34.5v-2q0 -19 -14.5 -33.5t-33.5 -14.5t-33.5 14.5t-14.5 33.5z" />
<glyph unicode="&#xd0;" horiz-adv-x="1644" d="M2 819q0 19 14 33.5t34 14.5h208v723q0 20 16 34t33 14h385q160 0 310 -60.5t268 -178.5t178.5 -268.5t60.5 -311.5t-60.5 -311t-178.5 -268t-269.5 -179t-310.5 -61h-383q-21 0 -35 15.5t-14 32.5v723h-208q-20 0 -34 14.5t-14 33.5zM355 96h335q140 0 274 54t238 158 t157.5 236.5t53.5 274.5t-53.5 275t-157.5 237t-236.5 157.5t-273.5 53.5h-337v-675h202q19 0 33.5 -14.5t14.5 -33.5t-14.5 -33.5t-33.5 -14.5h-202v-675z" />
<glyph unicode="&#xd1;" horiz-adv-x="1605" d="M215 48v1542q0 12 6 22q5 10 15 18q6 5 13 6q10 2 14 2q13 0 22 -5q11 -5 18 -15l991 -1417v1389q0 19 14.5 33.5t34.5 14.5q19 0 33.5 -14t14.5 -34v-1542q0 -12 -6 -22q-4 -9 -15 -17q-8 -6 -13 -7q-10 -2 -14 -2q-13 0 -23 6q-9 4 -17 15l-992 1416v-1389 q0 -20 -14.5 -34t-33.5 -14t-33.5 14t-14.5 34zM517 1760q0 20 14 34q63 63 153 63t153 -63q35 -35 84 -35q50 0 85 35q14 14 34 14t34 -14t14 -34t-14 -34q-63 -63 -153 -63t-153 63q-35 35 -84 35q-50 0 -85 -35q-14 -14 -34 -14t-34 14t-14 34z" />
<glyph unicode="&#xd2;" horiz-adv-x="1912" d="M138 819q0 167 65 318.5t174.5 261t261 174.5t318.5 65t318.5 -65t261 -174.5t174.5 -261t65 -318.5t-65 -318.5t-174.5 -261t-261 -174.5t-318.5 -65t-318.5 65t-261 174.5t-174.5 261t-65 318.5zM234 819q0 -196 97 -362.5t263.5 -263.5t362.5 -97t362.5 97 t263.5 263.5t97 362.5t-97 362.5t-263.5 263.5t-362.5 97t-362.5 -97t-263.5 -263.5t-97 -362.5zM759 1920q0 17 8 28q14 20 40 20q15 0 27 -9l295 -206q21 -15 21 -40q0 -15 -9 -27q-14 -20 -40 -20q-16 0 -27 8l-295 207q-20 14 -20 39z" />
<glyph unicode="&#xd3;" horiz-adv-x="1912" d="M138 819q0 167 65 318.5t174.5 261t261 174.5t318.5 65t318.5 -65t261 -174.5t174.5 -261t65 -318.5t-65 -318.5t-174.5 -261t-261 -174.5t-318.5 -65t-318.5 65t-261 174.5t-174.5 261t-65 318.5zM234 819q0 -196 97 -362.5t263.5 -263.5t362.5 -97t362.5 97 t263.5 263.5t97 362.5t-97 362.5t-263.5 263.5t-362.5 97t-362.5 -97t-263.5 -263.5t-97 -362.5zM755 1713q0 26 20 40l293 206q12 9 28 9q25 0 39 -20q9 -12 9 -28q0 -26 -20 -40l-293 -206q-11 -8 -28 -8q-25 0 -39 20q-9 12 -9 27z" />
<glyph unicode="&#xd4;" horiz-adv-x="1912" d="M138 819q0 167 65 318.5t174.5 261t261 174.5t318.5 65t318.5 -65t261 -174.5t174.5 -261t65 -318.5t-65 -318.5t-174.5 -261t-261 -174.5t-318.5 -65t-318.5 65t-261 174.5t-174.5 261t-65 318.5zM234 819q0 -196 97 -362.5t263.5 -263.5t362.5 -97t362.5 97 t263.5 263.5t97 362.5t-97 362.5t-263.5 263.5t-362.5 97t-362.5 -97t-263.5 -263.5t-97 -362.5zM616 1713q0 25 21 40l294 206q28 19 56 0l295 -206q20 -14 20 -40q0 -15 -9 -27q-14 -20 -39 -20q-17 0 -28 8l-267 187l-267 -187q-11 -8 -28 -8q-25 0 -39 20q-9 12 -9 27z " />
<glyph unicode="&#xd5;" horiz-adv-x="1912" d="M138 819q0 167 65 318.5t174.5 261t261 174.5t318.5 65t318.5 -65t261 -174.5t174.5 -261t65 -318.5t-65 -318.5t-174.5 -261t-261 -174.5t-318.5 -65t-318.5 65t-261 174.5t-174.5 261t-65 318.5zM234 819q0 -196 97 -362.5t263.5 -263.5t362.5 -97t362.5 97 t263.5 263.5t97 362.5t-97 362.5t-263.5 263.5t-362.5 97t-362.5 -97t-263.5 -263.5t-97 -362.5zM678 1760q0 20 14 34q63 63 152 63q90 0 153 -63q35 -35 85 -35q49 0 84 35q14 14 34 14t34 -14t14 -34t-14 -34q-63 -63 -152 -63q-90 0 -153 63q-35 35 -85 35 q-49 0 -84 -35q-14 -14 -34 -14t-34 14t-14 34z" />
<glyph unicode="&#xd6;" horiz-adv-x="1912" d="M138 819q0 167 65 318.5t174.5 261t261 174.5t318.5 65t318.5 -65t261 -174.5t174.5 -261t65 -318.5t-65 -318.5t-174.5 -261t-261 -174.5t-318.5 -65t-318.5 65t-261 174.5t-174.5 261t-65 318.5zM234 819q0 -196 97 -362.5t263.5 -263.5t362.5 -97t362.5 97 t263.5 263.5t97 362.5t-97 362.5t-263.5 263.5t-362.5 97t-362.5 -97t-263.5 -263.5t-97 -362.5zM755 1714v2q0 20 14.5 34t33.5 14t33.5 -14t14.5 -34v-2q0 -20 -14 -34.5t-34 -14.5t-34 14.5t-14 34.5zM1050 1714v2q0 20 14 34t34 14t34 -14t14 -34v-2q0 -20 -14.5 -34.5 t-33.5 -14.5t-33.5 14.5t-14.5 34.5z" />
<glyph unicode="&#xd7;" horiz-adv-x="882" d="M249 441q0 20 14 34l145 145l-145 146q-14 14 -14 34t14 34t34 14t34 -14l146 -145l145 145q14 14 34 14t34 -14t14 -34t-14 -34l-145 -146l145 -145q14 -14 14 -34t-14 -34t-34 -14t-34 14l-145 145l-146 -145q-14 -14 -34 -14t-34 14t-14 34z" />
<glyph unicode="&#xd8;" horiz-adv-x="1912" d="M138 819q0 167 65 318.5t174.5 261t261 174.5t318.5 65q114 0 216 -28q12 28 45 28q9 0 14 -2q15 -4 24 -17.5t9 -28.5q0 -7 -1 -11q228 -92 370 -298.5t142 -461.5q0 -167 -65 -318.5t-174.5 -261t-261 -174.5t-318.5 -65q-102 0 -191 22q-14 -22 -41 -22q-9 0 -14 2 q-15 4 -24 17.5t-9 29.5q-239 87 -389.5 297.5t-150.5 472.5zM234 819q0 -230 131 -414.5t340 -262.5l439 1376q-90 24 -187 24q-196 0 -362.5 -97t-263.5 -263.5t-97 -362.5zM797 114q76 -18 160 -18q196 0 362.5 97t263.5 263.5t97 362.5q0 223 -123 404t-322 264z" />
<glyph unicode="&#xd9;" horiz-adv-x="1685" d="M176 665v925q0 19 14.5 33.5t34.5 14.5q19 0 33.5 -14t14.5 -34v-925q0 -116 45 -221t120.5 -181.5t181 -121.5t221.5 -45q155 0 286 76t207 207t76 286v925q0 20 14 34t34 14t34 -14t14 -34v-925q0 -181 -89 -334t-242 -242t-334 -89t-334 89t-242 242t-89 334z M650 1920q0 16 9 28q14 20 40 20q15 0 27 -9l295 -206q20 -14 20 -40q0 -16 -8 -27q-14 -20 -40 -20q-16 0 -27 8l-295 207q-21 15 -21 39z" />
<glyph unicode="&#xda;" horiz-adv-x="1685" d="M176 665v925q0 19 14.5 33.5t34.5 14.5q19 0 33.5 -14t14.5 -34v-925q0 -116 45 -221t120.5 -181.5t181 -121.5t221.5 -45q155 0 286 76t207 207t76 286v925q0 20 14 34t34 14t34 -14t14 -34v-925q0 -181 -89 -334t-242 -242t-334 -89t-334 89t-242 242t-89 334z M646 1713q0 25 21 40l293 206q12 9 27 9q26 0 40 -20q9 -12 9 -28q0 -25 -21 -40l-293 -206q-11 -8 -27 -8q-26 0 -40 20q-9 12 -9 27z" />
<glyph unicode="&#xdb;" horiz-adv-x="1685" d="M176 665v925q0 19 14.5 33.5t34.5 14.5q19 0 33.5 -14t14.5 -34v-925q0 -116 45 -221t120.5 -181.5t181 -121.5t221.5 -45q155 0 286 76t207 207t76 286v925q0 20 14 34t34 14t34 -14t14 -34v-925q0 -181 -89 -334t-242 -242t-334 -89t-334 89t-242 242t-89 334z M500 1713q0 26 20 40l295 206q28 19 56 0l294 -206q21 -15 21 -40q0 -15 -9 -27q-14 -20 -39 -20q-17 0 -28 8l-267 187l-267 -187q-11 -8 -28 -8q-25 0 -39 20q-9 12 -9 27z" />
<glyph unicode="&#xdc;" horiz-adv-x="1681" d="M176 665v925q0 19 14.5 33.5t34.5 14.5q19 0 33.5 -14t14.5 -34v-925q0 -116 45 -221t120.5 -181.5t181 -121.5t221.5 -45q155 0 286 76t207 207t76 286v925q0 20 14 34t34 14t34 -14t14 -34v-925q0 -181 -89 -334t-242 -242t-334 -89t-334 89t-242 242t-89 334z M645 1714v2q0 20 14.5 34t33.5 14t33.5 -14t14.5 -34v-2q0 -20 -14 -34.5t-34 -14.5t-34 14.5t-14 34.5zM940 1714v2q0 20 14 34t34 14t34 -14t14 -34v-2q0 -20 -14.5 -34.5t-33.5 -14.5t-33.5 14.5t-14.5 34.5z" />
<glyph unicode="&#xdd;" horiz-adv-x="1333" d="M61 1590q0 25 20 39q12 9 28 9q25 0 39 -20l518 -717l520 717q14 20 39 20q16 0 28 -9q20 -14 20 -39q0 -16 -9 -28l-550 -758v-756q0 -20 -14 -34t-34 -14t-34 14t-14 34v756l-548 758q-9 12 -9 28zM493 1713q0 26 20 40l293 206q12 9 27 9q26 0 40 -20q9 -12 9 -28 q0 -25 -21 -40l-293 -206q-11 -8 -27 -8q-26 0 -40 20q-8 11 -8 27z" />
<glyph unicode="&#xde;" horiz-adv-x="1331" d="M215 48v386v1156q0 20 14.5 34t33.5 14t33.5 -14t14.5 -34v-183h415q139 -1 255.5 -69.5t184 -186t67.5 -255.5q0 -105 -40.5 -199.5t-109 -162.5t-163 -108t-198.5 -40h-411v-338q0 -20 -14.5 -34t-33.5 -14t-33.5 14t-14.5 34zM311 482h411q172 0 293 121t121 293 q0 112 -54.5 207.5t-149 151t-206.5 56.5h-415v-829z" />
<glyph unicode="&#xdf;" horiz-adv-x="1488" d="M138 281q0 32 30 45q12 4 18 4q32 0 45 -30q26 -62 70 -106q98 -98 238 -98q46 0 96 15q-6 5 -16 15q-59 59 -92 137q-3 9 -3 18q0 32 29 45q12 4 18 4q32 0 45 -30q25 -60 71 -106q24 -24 43 -37q65 46 102.5 118t37.5 155q0 161 -117 246l-431 314q-64 47 -106.5 128.5 t-42.5 159.5q0 149 105 254.5t255 105.5q103 0 193 -56q90 56 193 56q147 0 253 -104q51 -48 78 -112q4 -8 4 -18q0 -32 -30 -45q-8 -4 -18 -4q-32 0 -45 30q-18 44 -56 80q-77 77 -186 77q-61 0 -115 -26q38 -41 61 -94q3 -6 3 -18q0 -32 -29 -45q-8 -4 -18 -4 q-32 0 -45 30q-18 42 -50 74q-71 -76 -71 -181q0 -51 33 -115t76 -95l432 -314q80 -58 118 -144t38 -180q0 -177 -125.5 -303.5t-302.5 -126.5q-104 0 -194 45q-90 -45 -191 -45q-180 0 -306 126q-57 57 -91 137q-4 12 -4 18zM269 1278q0 -51 33 -115t76 -95l432 -314 q80 -58 118.5 -144t38.5 -180q0 -93 -37.5 -176t-103.5 -143q52 -15 98 -15q137 0 234.5 98t97.5 236q0 161 -117 246l-432 314q-64 47 -106.5 128.5t-42.5 159.5q0 135 90 238q-54 26 -115 26q-110 0 -187 -77.5t-77 -186.5z" />
<glyph unicode="&#xe0;" horiz-adv-x="1290" d="M61 49q0 7 3 15l535 1542q2 8 12 18t18 12q5 2 16 2t16 -2q8 -2 18 -12q8 -8 11 -18q328 -942 538 -1542q3 -8 3 -15q0 -35 -32 -46q-7 -3 -16 -3q-35 0 -46 32q-29 85 -89.5 256.5t-82.5 235.5h-640l-170 -492q-11 -32 -46 -32q-9 0 -16 3q-32 11 -32 46zM359 621h573 q-43 124 -148 425t-139 398zM443 1920q0 17 8 28q14 20 40 20q15 0 27 -9l295 -206q21 -15 21 -40q0 -15 -9 -27q-14 -20 -40 -20q-16 0 -27 8l-295 207q-20 14 -20 39z" />
<glyph unicode="&#xe1;" horiz-adv-x="1290" d="M61 49q0 7 3 15l535 1542q2 8 12 18t18 12q5 2 16 2t16 -2q8 -2 18 -12q8 -8 11 -18q328 -942 538 -1542q3 -8 3 -15q0 -35 -32 -46q-7 -3 -16 -3q-35 0 -46 32q-29 85 -89.5 256.5t-82.5 235.5h-640l-170 -492q-11 -32 -46 -32q-9 0 -16 3q-32 11 -32 46zM359 621h573 q-43 124 -148 425t-139 398zM439 1713q0 26 20 40l293 206q12 9 28 9q25 0 39 -20q9 -12 9 -28q0 -26 -20 -40l-293 -206q-11 -8 -28 -8q-26 0 -40 20q-8 11 -8 27z" />
<glyph unicode="&#xe2;" horiz-adv-x="1290" d="M61 49q0 7 3 15l535 1542q2 8 12 18t18 12q5 2 16 2t16 -2q8 -2 18 -12q8 -8 11 -18q328 -942 538 -1542q3 -8 3 -15q0 -35 -32 -46q-7 -3 -16 -3q-35 0 -46 32q-29 85 -89.5 256.5t-82.5 235.5h-640l-170 -492q-11 -32 -46 -32q-9 0 -16 3q-32 11 -32 46zM296 1713 q0 25 21 40l294 206q28 19 56 0l295 -206q20 -14 20 -40q0 -15 -9 -27q-14 -20 -39 -20q-17 0 -28 8l-267 187l-267 -187q-11 -8 -28 -8q-25 0 -39 20q-9 12 -9 27zM359 621h573q-43 124 -148 425t-139 398z" />
<glyph unicode="&#xe3;" horiz-adv-x="1290" d="M61 49q0 7 3 15l535 1542q2 8 12 18t18 12q5 2 16 2t16 -2q8 -2 18 -12q8 -8 11 -18q328 -942 538 -1542q3 -8 3 -15q0 -35 -32 -46q-7 -3 -16 -3q-35 0 -46 32q-29 85 -89.5 256.5t-82.5 235.5h-640l-170 -492q-11 -32 -46 -32q-9 0 -16 3q-32 11 -32 46zM359 621h573 q-43 124 -148 425t-139 398zM366 1760q0 20 14 34q63 63 152 63q90 0 153 -63q35 -35 84 -35q50 0 85 35q14 14 34 14t34 -14t14 -34t-14 -34q-63 -63 -153 -63q-89 0 -152 63q-35 35 -85 35q-49 0 -84 -35q-14 -14 -34 -14t-34 14t-14 34z" />
<glyph unicode="&#xe4;" horiz-adv-x="1290" d="M61 49q0 7 3 15l535 1542q2 8 12 18t18 12q5 2 16 2t16 -2q8 -2 18 -12q8 -8 11 -18q328 -942 538 -1542q3 -8 3 -15q0 -35 -32 -46q-7 -3 -16 -3q-35 0 -46 32q-29 85 -89.5 256.5t-82.5 235.5h-640l-170 -492q-11 -32 -46 -32q-9 0 -16 3q-32 11 -32 46zM359 621h573 q-43 124 -148 425t-139 398zM441 1714v2q0 20 14.5 34t33.5 14t33.5 -14t14.5 -34v-2q0 -20 -14 -34.5t-34 -14.5t-34 14.5t-14 34.5zM735 1714v2q0 19 14.5 33.5t34.5 14.5t34 -14t14 -34v-2q0 -20 -14.5 -34.5t-33.5 -14.5q-20 0 -34.5 14.5t-14.5 34.5z" />
<glyph unicode="&#xe5;" horiz-adv-x="1290" d="M61 49q0 7 3 15l515 1482q-99 23 -164 104.5t-65 186.5q0 124 87.5 211.5t211.5 87.5t211.5 -87.5t87.5 -211.5q0 -107 -67 -188.5t-169 -103.5q1 -4 205 -589.5t311 -891.5q3 -8 3 -15q0 -35 -32 -46q-7 -3 -16 -3q-35 0 -46 32q-29 85 -89.5 256.5t-82.5 235.5h-640 l-170 -492q-11 -32 -46 -32q-9 0 -16 3q-32 11 -32 46zM359 621h573q-43 124 -148 425t-139 398zM446 1837q0 -79 52.5 -136t129.5 -65h1q5 2 16 2t16 -2q1 0 1 -0.5t1 -0.5q80 5 134 63t54 139q0 84 -59 143t-143 59t-143.5 -59t-59.5 -143z" />
<glyph unicode="&#xe6;" horiz-adv-x="2129" d="M82 49q0 11 7 23l898 1542q10 16 26 22q5 2 15 2h849q19 0 33.5 -14t14.5 -34t-14.5 -34t-33.5 -14h-800v-675h645q20 0 34.5 -14.5t14.5 -33.5t-14.5 -33.5t-34.5 -14.5h-645v-675h800q19 0 33.5 -14t14.5 -34t-14.5 -34t-33.5 -14h-849q-17 0 -32.5 14t-15.5 34v477 l-515 3l-293 -504q-14 -24 -42 -24q-12 0 -24 7q-24 14 -24 42zM521 624l459 -3v198v593z" />
<glyph unicode="&#xe7;" horiz-adv-x="1464" d="M176 665v308q0 181 89.5 334t243 242t334.5 89q136 0 257 -51.5t213 -143.5q14 -14 14 -34t-14 -34t-34 -14t-34 14q-79 79 -182.5 123t-219.5 44t-221.5 -45t-182 -121.5t-121.5 -181.5t-45 -221v-308q0 -116 45 -221t121.5 -181.5t182 -121.5t221.5 -45t219.5 44 t182.5 123q14 14 34 14t34 -14t14 -34t-14 -34q-175 -175 -421 -193v-245q0 -19 -14.5 -33.5t-34.5 -14.5q-19 0 -33.5 14.5t-14.5 33.5v245q-170 12 -312 103t-224.5 239t-82.5 321z" />
<glyph unicode="&#xe8;" horiz-adv-x="1277" d="M215 48v771v771q0 17 14 32.5t34 15.5h848q20 0 34.5 -14.5t14.5 -33.5t-14.5 -33.5t-34.5 -14.5h-800v-675h646q19 0 33.5 -14.5t14.5 -33.5t-14.5 -33.5t-33.5 -14.5h-646v-675h800q20 0 34.5 -14.5t14.5 -33.5t-14.5 -33.5t-34.5 -14.5h-848q-17 0 -32.5 14t-15.5 34z M488 1920q0 16 9 28q14 20 40 20q15 0 27 -9l295 -206q20 -14 20 -40q0 -16 -8 -27q-14 -20 -40 -20q-16 0 -27 8l-295 207q-21 15 -21 39z" />
<glyph unicode="&#xe9;" horiz-adv-x="1277" d="M215 48v771v771q0 17 14 32.5t34 15.5h848q20 0 34.5 -14.5t14.5 -33.5t-14.5 -33.5t-34.5 -14.5h-800v-675h646q19 0 33.5 -14.5t14.5 -33.5t-14.5 -33.5t-33.5 -14.5h-646v-675h800q20 0 34.5 -14.5t14.5 -33.5t-14.5 -33.5t-34.5 -14.5h-848q-17 0 -32.5 14t-15.5 34z M510 1713q0 26 20 40l293 206q12 9 27 9q26 0 40 -20q9 -12 9 -28q0 -25 -21 -40l-293 -206q-11 -8 -27 -8q-26 0 -40 20q-8 11 -8 27z" />
<glyph unicode="&#xea;" horiz-adv-x="1277" d="M215 48v771v771q0 17 14 32.5t34 15.5h848q20 0 34.5 -14.5t14.5 -33.5t-14.5 -33.5t-34.5 -14.5h-800v-675h646q19 0 33.5 -14.5t14.5 -33.5t-14.5 -33.5t-33.5 -14.5h-646v-675h800q20 0 34.5 -14.5t14.5 -33.5t-14.5 -33.5t-34.5 -14.5h-848q-17 0 -32.5 14t-15.5 34z M355 1713q0 25 21 40l295 206q27 19 55 0l295 -206q20 -14 20 -40q0 -16 -8 -27q-14 -20 -40 -20q-16 0 -27 8l-268 187l-267 -187q-11 -8 -27 -8q-26 0 -40 20q-9 12 -9 27z" />
<glyph unicode="&#xeb;" horiz-adv-x="1277" d="M215 48v771v771q0 17 14 32.5t34 15.5h848q20 0 34.5 -14.5t14.5 -33.5t-14.5 -33.5t-34.5 -14.5h-800v-675h646q19 0 33.5 -14.5t14.5 -33.5t-14.5 -33.5t-33.5 -14.5h-646v-675h800q20 0 34.5 -14.5t14.5 -33.5t-14.5 -33.5t-34.5 -14.5h-848q-17 0 -32.5 14t-15.5 34z M490 1710v2q0 20 14 34t34 14t34.5 -14.5t14.5 -33.5v-2q0 -20 -14.5 -34t-34.5 -14t-34 14t-14 34zM785 1710v2q0 20 14.5 34t33.5 14t33.5 -14t14.5 -34v-2q0 -20 -14.5 -34t-33.5 -14t-33.5 14t-14.5 34z" />
<glyph unicode="&#xec;" horiz-adv-x="571" d="M91 1920q0 17 8 28q14 20 40 20q16 0 28 -9l294 -206q21 -15 21 -40q0 -15 -9 -27q-14 -20 -39 -20q-17 0 -28 8l-295 207q-20 14 -20 39zM241 48v1542q0 20 14.5 34t33.5 14t33.5 -14t14.5 -34v-1542q0 -20 -14.5 -34t-33.5 -14t-33.5 14t-14.5 34z" />
<glyph unicode="&#xed;" horiz-adv-x="571" d="M92 1713q0 26 20 40l293 206q12 9 28 9q25 0 39 -20q9 -12 9 -28q0 -26 -20 -40l-293 -206q-11 -8 -28 -8q-26 0 -40 20q-8 11 -8 27zM246 48v1542q0 20 14 34t34 14t34 -14t14 -34v-1542q0 -20 -14 -34t-34 -14t-34 14t-14 34z" />
<glyph unicode="&#xee;" horiz-adv-x="571" d="M-57 1713q0 25 21 40l295 206q27 19 55 0l295 -206q20 -14 20 -40q0 -16 -8 -27q-14 -20 -40 -20q-16 0 -27 8l-268 187l-267 -187q-11 -8 -27 -8q-26 0 -40 20q-9 12 -9 27zM232 48v1542q0 19 14.5 33.5t34.5 14.5q19 0 33.5 -14t14.5 -34v-1542q0 -20 -14.5 -34 t-33.5 -14q-20 0 -34.5 14.5t-14.5 33.5z" />
<glyph unicode="&#xef;" horiz-adv-x="571" d="M90 1717v2q0 20 14.5 34.5t33.5 14.5t33.5 -14.5t14.5 -34.5v-2q0 -20 -14 -34t-34 -14t-34 14t-14 34zM259 48v1542q0 19 14.5 33.5t34.5 14.5t34 -14t14 -34v-1542q0 -20 -14 -34t-34 -14t-34.5 14.5t-14.5 33.5zM385 1717v2q0 20 14.5 34.5t33.5 14.5t33.5 -14.5 t14.5 -34.5v-2q0 -19 -14.5 -33.5t-33.5 -14.5t-33.5 14.5t-14.5 33.5z" />
<glyph unicode="&#xf0;" horiz-adv-x="1644" d="M2 819q0 19 14 33.5t34 14.5h208v723q0 20 16 34t33 14h385q160 0 310 -60.5t268 -178.5t178.5 -268.5t60.5 -311.5t-60.5 -311t-178.5 -268t-269.5 -179t-310.5 -61h-383q-21 0 -35 15.5t-14 32.5v723h-208q-20 0 -34 14.5t-14 33.5zM355 96h335q140 0 274 54t238 158 t157.5 236.5t53.5 274.5t-53.5 275t-157.5 237t-236.5 157.5t-273.5 53.5h-337v-675h202q19 0 33.5 -14.5t14.5 -33.5t-14.5 -33.5t-33.5 -14.5h-202v-675z" />
<glyph unicode="&#xf1;" horiz-adv-x="1605" d="M215 48v1542q0 12 6 22q5 10 15 18q6 5 13 6q10 2 14 2q13 0 22 -5q11 -5 18 -15l991 -1417v1389q0 19 14.5 33.5t34.5 14.5q19 0 33.5 -14t14.5 -34v-1542q0 -12 -6 -22q-4 -9 -15 -17q-8 -6 -13 -7q-10 -2 -14 -2q-13 0 -23 6q-9 4 -17 15l-992 1416v-1389 q0 -20 -14.5 -34t-33.5 -14t-33.5 14t-14.5 34zM517 1760q0 20 14 34q63 63 153 63t153 -63q35 -35 84 -35q50 0 85 35q14 14 34 14t34 -14t14 -34t-14 -34q-63 -63 -153 -63t-153 63q-35 35 -84 35q-50 0 -85 -35q-14 -14 -34 -14t-34 14t-14 34z" />
<glyph unicode="&#xf2;" horiz-adv-x="1912" d="M138 819q0 167 65 318.5t174.5 261t261 174.5t318.5 65t318.5 -65t261 -174.5t174.5 -261t65 -318.5t-65 -318.5t-174.5 -261t-261 -174.5t-318.5 -65t-318.5 65t-261 174.5t-174.5 261t-65 318.5zM234 819q0 -196 97 -362.5t263.5 -263.5t362.5 -97t362.5 97 t263.5 263.5t97 362.5t-97 362.5t-263.5 263.5t-362.5 97t-362.5 -97t-263.5 -263.5t-97 -362.5zM759 1920q0 17 8 28q14 20 40 20q15 0 27 -9l295 -206q21 -15 21 -40q0 -15 -9 -27q-14 -20 -40 -20q-16 0 -27 8l-295 207q-20 14 -20 39z" />
<glyph unicode="&#xf3;" horiz-adv-x="1912" d="M138 819q0 167 65 318.5t174.5 261t261 174.5t318.5 65t318.5 -65t261 -174.5t174.5 -261t65 -318.5t-65 -318.5t-174.5 -261t-261 -174.5t-318.5 -65t-318.5 65t-261 174.5t-174.5 261t-65 318.5zM234 819q0 -196 97 -362.5t263.5 -263.5t362.5 -97t362.5 97 t263.5 263.5t97 362.5t-97 362.5t-263.5 263.5t-362.5 97t-362.5 -97t-263.5 -263.5t-97 -362.5zM755 1713q0 26 20 40l293 206q12 9 28 9q25 0 39 -20q9 -12 9 -28q0 -26 -20 -40l-293 -206q-11 -8 -28 -8q-25 0 -39 20q-9 12 -9 27z" />
<glyph unicode="&#xf4;" horiz-adv-x="1912" d="M138 819q0 167 65 318.5t174.5 261t261 174.5t318.5 65t318.5 -65t261 -174.5t174.5 -261t65 -318.5t-65 -318.5t-174.5 -261t-261 -174.5t-318.5 -65t-318.5 65t-261 174.5t-174.5 261t-65 318.5zM234 819q0 -196 97 -362.5t263.5 -263.5t362.5 -97t362.5 97 t263.5 263.5t97 362.5t-97 362.5t-263.5 263.5t-362.5 97t-362.5 -97t-263.5 -263.5t-97 -362.5zM616 1713q0 25 21 40l294 206q28 19 56 0l295 -206q20 -14 20 -40q0 -15 -9 -27q-14 -20 -39 -20q-17 0 -28 8l-267 187l-267 -187q-11 -8 -28 -8q-25 0 -39 20q-9 12 -9 27z " />
<glyph unicode="&#xf5;" horiz-adv-x="1912" d="M138 819q0 167 65 318.5t174.5 261t261 174.5t318.5 65t318.5 -65t261 -174.5t174.5 -261t65 -318.5t-65 -318.5t-174.5 -261t-261 -174.5t-318.5 -65t-318.5 65t-261 174.5t-174.5 261t-65 318.5zM234 819q0 -196 97 -362.5t263.5 -263.5t362.5 -97t362.5 97 t263.5 263.5t97 362.5t-97 362.5t-263.5 263.5t-362.5 97t-362.5 -97t-263.5 -263.5t-97 -362.5zM678 1760q0 20 14 34q63 63 152 63q90 0 153 -63q35 -35 85 -35q49 0 84 35q14 14 34 14t34 -14t14 -34t-14 -34q-63 -63 -152 -63q-90 0 -153 63q-35 35 -85 35 q-49 0 -84 -35q-14 -14 -34 -14t-34 14t-14 34z" />
<glyph unicode="&#xf6;" horiz-adv-x="1912" d="M138 819q0 167 65 318.5t174.5 261t261 174.5t318.5 65t318.5 -65t261 -174.5t174.5 -261t65 -318.5t-65 -318.5t-174.5 -261t-261 -174.5t-318.5 -65t-318.5 65t-261 174.5t-174.5 261t-65 318.5zM234 819q0 -196 97 -362.5t263.5 -263.5t362.5 -97t362.5 97 t263.5 263.5t97 362.5t-97 362.5t-263.5 263.5t-362.5 97t-362.5 -97t-263.5 -263.5t-97 -362.5zM755 1714v2q0 20 14.5 34t33.5 14t33.5 -14t14.5 -34v-2q0 -20 -14 -34.5t-34 -14.5t-34 14.5t-14 34.5zM1050 1714v2q0 20 14 34t34 14t34 -14t14 -34v-2q0 -20 -14.5 -34.5 t-33.5 -14.5t-33.5 14.5t-14.5 34.5z" />
<glyph unicode="&#xf7;" horiz-adv-x="1017" d="M215 49q0 9 2 14l492 1542q4 15 17.5 24t28.5 9q9 0 14 -2q15 -4 24.5 -17.5t9.5 -28.5q0 -9 -2 -14l-492 -1542q-4 -15 -17.5 -24.5t-28.5 -9.5q-9 0 -14 2q-15 4 -24.5 18t-9.5 29z" />
<glyph unicode="&#xf8;" horiz-adv-x="1912" d="M138 819q0 167 65 318.5t174.5 261t261 174.5t318.5 65q114 0 216 -28q12 28 45 28q9 0 14 -2q15 -4 24 -17.5t9 -28.5q0 -7 -1 -11q228 -92 370 -298.5t142 -461.5q0 -167 -65 -318.5t-174.5 -261t-261 -174.5t-318.5 -65q-102 0 -191 22q-14 -22 -41 -22q-9 0 -14 2 q-15 4 -24 17.5t-9 29.5q-239 87 -389.5 297.5t-150.5 472.5zM234 819q0 -230 131 -414.5t340 -262.5l439 1376q-90 24 -187 24q-196 0 -362.5 -97t-263.5 -263.5t-97 -362.5zM797 114q76 -18 160 -18q196 0 362.5 97t263.5 263.5t97 362.5q0 223 -123 404t-322 264z" />
<glyph unicode="&#xf9;" horiz-adv-x="1685" d="M176 665v925q0 19 14.5 33.5t34.5 14.5q19 0 33.5 -14t14.5 -34v-925q0 -116 45 -221t120.5 -181.5t181 -121.5t221.5 -45q155 0 286 76t207 207t76 286v925q0 20 14 34t34 14t34 -14t14 -34v-925q0 -181 -89 -334t-242 -242t-334 -89t-334 89t-242 242t-89 334z M650 1920q0 16 9 28q14 20 40 20q15 0 27 -9l295 -206q20 -14 20 -40q0 -16 -8 -27q-14 -20 -40 -20q-16 0 -27 8l-295 207q-21 15 -21 39z" />
<glyph unicode="&#xfa;" horiz-adv-x="1685" d="M176 665v925q0 19 14.5 33.5t34.5 14.5q19 0 33.5 -14t14.5 -34v-925q0 -116 45 -221t120.5 -181.5t181 -121.5t221.5 -45q155 0 286 76t207 207t76 286v925q0 20 14 34t34 14t34 -14t14 -34v-925q0 -181 -89 -334t-242 -242t-334 -89t-334 89t-242 242t-89 334z M646 1713q0 25 21 40l293 206q12 9 27 9q26 0 40 -20q9 -12 9 -28q0 -25 -21 -40l-293 -206q-11 -8 -27 -8q-26 0 -40 20q-9 12 -9 27z" />
<glyph unicode="&#xfb;" horiz-adv-x="1685" d="M176 665v925q0 19 14.5 33.5t34.5 14.5q19 0 33.5 -14t14.5 -34v-925q0 -116 45 -221t120.5 -181.5t181 -121.5t221.5 -45q155 0 286 76t207 207t76 286v925q0 20 14 34t34 14t34 -14t14 -34v-925q0 -181 -89 -334t-242 -242t-334 -89t-334 89t-242 242t-89 334z M500 1713q0 26 20 40l295 206q28 19 56 0l294 -206q21 -15 21 -40q0 -15 -9 -27q-14 -20 -39 -20q-17 0 -28 8l-267 187l-267 -187q-11 -8 -28 -8q-25 0 -39 20q-9 12 -9 27z" />
<glyph unicode="&#xfc;" horiz-adv-x="1681" d="M176 665v925q0 19 14.5 33.5t34.5 14.5q19 0 33.5 -14t14.5 -34v-925q0 -116 45 -221t120.5 -181.5t181 -121.5t221.5 -45q155 0 286 76t207 207t76 286v925q0 20 14 34t34 14t34 -14t14 -34v-925q0 -181 -89 -334t-242 -242t-334 -89t-334 89t-242 242t-89 334z M645 1714v2q0 20 14.5 34t33.5 14t33.5 -14t14.5 -34v-2q0 -20 -14 -34.5t-34 -14.5t-34 14.5t-14 34.5zM940 1714v2q0 20 14 34t34 14t34 -14t14 -34v-2q0 -20 -14.5 -34.5t-33.5 -14.5t-33.5 14.5t-14.5 34.5z" />
<glyph unicode="&#xfd;" horiz-adv-x="1333" d="M61 1590q0 25 20 39q12 9 28 9q25 0 39 -20l518 -717l520 717q14 20 39 20q16 0 28 -9q20 -14 20 -39q0 -16 -9 -28l-550 -758v-756q0 -20 -14 -34t-34 -14t-34 14t-14 34v756l-548 758q-9 12 -9 28zM493 1713q0 26 20 40l293 206q12 9 27 9q26 0 40 -20q9 -12 9 -28 q0 -25 -21 -40l-293 -206q-11 -8 -27 -8q-26 0 -40 20q-8 11 -8 27z" />
<glyph unicode="&#xfe;" horiz-adv-x="1331" d="M215 48v386v1156q0 20 14.5 34t33.5 14t33.5 -14t14.5 -34v-183h415q139 -1 255.5 -69.5t184 -186t67.5 -255.5q0 -105 -40.5 -199.5t-109 -162.5t-163 -108t-198.5 -40h-411v-338q0 -20 -14.5 -34t-33.5 -14t-33.5 14t-14.5 34zM311 482h411q172 0 293 121t121 293 q0 112 -54.5 207.5t-149 151t-206.5 56.5h-415v-829z" />
<glyph unicode="&#xff;" horiz-adv-x="1333" d="M61 1590q0 25 20 39q12 9 28 9q25 0 39 -20l518 -717l520 717q14 20 39 20q16 0 28 -9q20 -14 20 -39q0 -16 -9 -28l-550 -758v-756q0 -20 -14 -34t-34 -14t-34 14t-14 34v756l-548 758q-9 12 -9 28zM466 1714v2q0 20 14 34t34 14t34 -14t14 -34v-2q0 -20 -14 -34.5 t-34 -14.5t-34 14.5t-14 34.5zM761 1714v2q0 20 14.5 34t33.5 14t33.5 -14t14.5 -34v-2q0 -20 -14.5 -34.5t-33.5 -14.5t-33.5 14.5t-14.5 34.5z" />
<glyph unicode="&#x2000;" horiz-adv-x="1068" />
<glyph unicode="&#x2001;" horiz-adv-x="2136" />
<glyph unicode="&#x2002;" horiz-adv-x="1068" />
<glyph unicode="&#x2003;" horiz-adv-x="2136" />
<glyph unicode="&#x2004;" horiz-adv-x="712" />
<glyph unicode="&#x2005;" horiz-adv-x="534" />
<glyph unicode="&#x2006;" horiz-adv-x="356" />
<glyph unicode="&#x2007;" horiz-adv-x="356" />
<glyph unicode="&#x2008;" horiz-adv-x="267" />
<glyph unicode="&#x2009;" horiz-adv-x="427" />
<glyph unicode="&#x200a;" horiz-adv-x="118" />
<glyph unicode="&#x2010;" horiz-adv-x="1032" d="M215 680q0 20 14.5 34.5t33.5 14.5h507q19 0 33.5 -14.5t14.5 -34.5t-14 -34t-34 -14h-507q-19 0 -33.5 14t-14.5 34z" />
<glyph unicode="&#x2011;" horiz-adv-x="1032" d="M215 680q0 20 14.5 34.5t33.5 14.5h507q19 0 33.5 -14.5t14.5 -34.5t-14 -34t-34 -14h-507q-19 0 -33.5 14t-14.5 34z" />
<glyph unicode="&#x2012;" horiz-adv-x="1032" d="M215 680q0 20 14.5 34.5t33.5 14.5h507q19 0 33.5 -14.5t14.5 -34.5t-14 -34t-34 -14h-507q-19 0 -33.5 14t-14.5 34z" />
<glyph unicode="&#x2013;" horiz-adv-x="1453" d="M215 680q0 20 24.5 34.5t57.5 14.5h860q33 0 57.5 -14.5t24.5 -34.5t-24 -34t-58 -14h-860q-33 0 -57.5 14t-24.5 34z" />
<glyph unicode="&#x2014;" horiz-adv-x="2477" d="M215 680q0 20 49 34.5t114 14.5h1722q65 0 114 -14.5t49 -34.5t-47.5 -34t-115.5 -14h-1722q-65 0 -114 14t-49 34z" />
<glyph unicode="&#x202f;" horiz-adv-x="427" />
<glyph unicode="&#x205f;" horiz-adv-x="534" />
<glyph unicode="&#x25fc;" horiz-adv-x="1638" d="M0 0v1638h1638v-1638h-1638z" />
</font>
</defs>
</svg>
