<?xml version="1.0" standalone="no"?>
<!DOCTYPE svg PUBLIC "-//W3C//DTD SVG 1.1//EN" "http://www.w3.org/Graphics/SVG/1.1/DTD/svg11.dtd" >
<svg xmlns="http://www.w3.org/2000/svg">
<metadata></metadata>
<defs>
<font id="urw_grotesk_tbold" horiz-adv-x="1243" >
<font-face units-per-em="2048" ascent="1638" descent="-410" />
<missing-glyph horiz-adv-x="512" />
<glyph horiz-adv-x="0" />
<glyph horiz-adv-x="682" />
<glyph unicode=" "  horiz-adv-x="512" />
<glyph unicode="&#x09;" horiz-adv-x="512" />
<glyph unicode="&#xa0;" horiz-adv-x="512" />
<glyph unicode="!" horiz-adv-x="665" d="M123 174q0 86 60 143.5t149 57.5q92 0 151.5 -56.5t59.5 -144.5t-59.5 -144.5t-151.5 -56.5q-91 0 -150 57.5t-59 143.5zM127 956v410h410v-410l-78 -475h-254z" />
<glyph unicode="&#x22;" horiz-adv-x="845" d="M84 1366h295l-49 -549h-197zM467 1366h297l-51 -549h-197z" />
<glyph unicode="#" horiz-adv-x="1038" d="M31 209l39 221h186l86 508h-182l39 223h184l37 205h119l-35 -205h188l35 205h125l-35 -205h191l-39 -223h-193l-86 -508h189l-33 -221h-197l-37 -209h-125l37 209h-188l-37 -209h-121l37 209h-184zM375 430h186l90 508h-186z" />
<glyph unicode="$" horiz-adv-x="1366" d="M20 338l383 117q13 -85 56.5 -126t140.5 -61v232q-196 39 -271 64.5t-128 74.5q-119 107 -119 289q0 140 59.5 235t186.5 156q57 26 115 39t157 20v176h137v-176q145 -5 208.5 -20t135.5 -62q89 -56 129.5 -118.5t49.5 -159.5l-377 -74q-7 75 -39 104.5t-107 34.5v-245 q318 -46 444 -140t126 -286q0 -207 -150.5 -323t-419.5 -116v-245h-137v245q-144 0 -223 15.5t-154 58.5q-84 47 -131 115t-72 176zM453 981q0 -44 38.5 -75.5t108.5 -43.5v223h-14q-133 -3 -133 -104zM737 256h43q56 0 86.5 26.5t30.5 77.5q0 54 -30.5 76.5t-129.5 44.5 v-225z" />
<glyph unicode="%" horiz-adv-x="1540" d="M86 1026q0 162 81 251t228 89q148 0 229 -88.5t81 -251.5q0 -152 -81 -234.5t-229 -82.5t-228.5 82.5t-80.5 234.5zM125 -197l1081 1649l137 -25l-1077 -1648zM285 1040q0 -80 29 -126t81 -46q51 0 81 46.5t30 125.5q0 78 -30 124t-81 46q-52 0 -81 -45.5t-29 -124.5z M838 317q0 162 81 251t228 89q148 0 228.5 -88.5t80.5 -251.5q0 -152 -80.5 -234.5t-228.5 -82.5t-228.5 82.5t-80.5 234.5zM1036 332q0 -80 29.5 -126t81.5 -46t81 46t29 126q0 79 -29 124.5t-81 45.5t-81.5 -45.5t-29.5 -124.5z" />
<glyph unicode="&#x26;" horiz-adv-x="1572" d="M47 408q0 142 75.5 228t246.5 140q-80 131 -80 252q0 170 116.5 266.5t323.5 96.5q418 0 418 -330q0 -121 -62.5 -202t-203.5 -146l28 -29q39 -39 82 -74q21 -16 33 -26q36 61 48.5 107.5t14.5 125.5h398q-7 -120 -39.5 -204.5t-120.5 -213.5q60 -34 101 -49.5t133 -40.5 l-222 -336q-101 34 -155.5 60t-151.5 88q-179 -148 -438 -148q-255 0 -400 116t-145 319zM455 436q0 -64 41 -102.5t110 -38.5q84 0 146 51q-77 60 -121.5 103t-98.5 112q-43 -32 -60 -60t-17 -65zM616 1063q0 -43 31 -96q2 -4 5 -7.5t7.5 -10t8.5 -11.5l22 -25 q133 65 133 162q0 43 -26.5 67.5t-73.5 24.5q-51 0 -79 -27t-28 -77z" />
<glyph unicode="'" horiz-adv-x="460" d="M84 1366h295l-49 -549h-197z" />
<glyph unicode="(" horiz-adv-x="700" d="M68 516q0 277 68 491.5t226 440.5l261 -25q-117 -226 -162 -411t-45 -430q0 -335 71 -633q26 -108 57 -186t89 -183l-260 -31q-82 101 -125.5 178.5t-81.5 190.5q-98 270 -98 598z" />
<glyph unicode=")" horiz-adv-x="700" d="M68 1419l260 29q82 -101 125.5 -178.5t81.5 -190.5q98 -270 98 -598q0 -276 -68 -490t-227 -442l-260 25q117 228 162 412.5t45 431.5q0 329 -72 631q-26 109 -56.5 186t-88.5 184z" />
<glyph unicode="*" horiz-adv-x="860" d="M82 1163l20 58l252 -33l45 264h62l45 -264l250 33l22 -58l-225 -131l125 -225l-49 -39l-199 209l-201 -209l-47 39l125 225z" />
<glyph unicode="+" d="M109 514v363h323v348h375v-348h326v-363h-326v-346h-375v346h-323z" />
<glyph unicode="," horiz-adv-x="610" d="M35 -299l67 240q25 84 31 125q14 82 14 145v192h322v-286l-221 -387z" />
<glyph unicode="-" horiz-adv-x="557" d="M0 373v252h557v-252h-557z" />
<glyph unicode="." horiz-adv-x="610" d="M96 174q0 86 60 143.5t149 57.5q92 0 151.5 -56.5t59.5 -144.5t-59.5 -144.5t-151.5 -56.5q-91 0 -150 57.5t-59 143.5z" />
<glyph unicode="/" horiz-adv-x="944" d="M41 -422l582 1870l200 -25l-579 -1874z" />
<glyph unicode="0" d="M74 684q0 191 31.5 313.5t103.5 216.5q74 94 172 136.5t242 42.5t241.5 -42.5t169.5 -136.5q72 -96 103.5 -218t31.5 -312q0 -361 -134 -536t-412 -175q-144 0 -243 43t-171 136q-72 96 -103.5 218.5t-31.5 313.5zM465 682q0 -410 158 -410q155 0 155 410q0 412 -155 412 q-158 0 -158 -412z" />
<glyph unicode="1" d="M156 848v280q205 10 303 61.5t149 176.5h344v-1366h-395v881z" />
<glyph unicode="2" d="M66 0v309q117 90 323 252l76 62q149 117 198.5 177.5t49.5 125.5q0 57 -36 89t-99 32q-57 0 -90 -32t-48 -102q-3 -12 -14 -63l-346 168q51 207 167.5 292t348.5 85q252 0 384 -101t132 -293q0 -175 -104 -307q-59 -75 -134 -142t-266 -212h561v-340h-1103z" />
<glyph unicode="3" d="M45 354l367 121q19 -104 55.5 -144t112.5 -40q75 0 119 35.5t44 95.5q0 105 -133 127q-46 6 -155 6v260h41q235 0 235 150q0 51 -39 81.5t-104 30.5q-75 0 -115 -41.5t-55 -134.5l-350 119q34 203 146 288t347 85q282 0 428 -95t146 -278q0 -215 -191 -322 q110 -28 163.5 -99t53.5 -191q0 -98 -48 -190t-128 -148q-141 -97 -401 -97q-253 0 -381.5 90.5t-157.5 290.5z" />
<glyph unicode="4" d="M66 272v299l555 795h421v-795h170v-299h-170v-272h-378v272h-598zM360 571h304v478z" />
<glyph unicode="5" d="M47 285l375 127q34 -119 149 -119q75 0 122.5 48.5t47.5 125.5t-46 123.5t-122 46.5q-56 0 -91.5 -22.5t-69.5 -77.5l-334 98l78 731h946v-309h-627l-24 -209q68 54 126.5 74t151.5 20q198 0 314 -119.5t116 -322.5q0 -258 -151 -392.5t-443 -134.5q-213 0 -340 76.5 t-178 235.5z" />
<glyph unicode="6" d="M72 635q0 387 149 572.5t461 185.5q167 0 265.5 -45.5t180.5 -161.5l-245 -201q-35 67 -74 95t-98 28q-114 0 -179 -96q-19 -29 -28.5 -69.5t-18.5 -127.5q69 58 136 82.5t157 24.5q78 0 159 -34.5t132 -88.5q102 -111 102 -314q0 -243 -140.5 -377.5t-393.5 -134.5 q-136 0 -249.5 48.5t-184.5 136.5q-69 86 -100 198.5t-31 278.5zM467 444q0 -78 42 -124t114 -46q74 0 119.5 53.5t45.5 139.5q0 78 -40.5 124t-110.5 46q-78 0 -124 -52.5t-46 -140.5z" />
<glyph unicode="7" d="M76 1055v311h1083v-274l-545 -1092h-456l542 1055h-624z" />
<glyph unicode="8" d="M61 393q0 119 49 194t158 122q-97 68 -132.5 131t-35.5 170q0 183 136.5 283t386.5 100q249 0 384.5 -99.5t135.5 -283.5q0 -107 -35.5 -170t-132.5 -131q109 -47 158 -122.5t49 -195.5q0 -206 -141.5 -312t-417.5 -106q-277 0 -419.5 106.5t-142.5 313.5zM444 422 q0 -67 51 -111.5t128 -44.5q75 0 125.5 44.5t50.5 111.5q0 68 -47 107.5t-129 39.5q-83 0 -131 -39.5t-48 -107.5zM479 969q0 -62 40 -101t104 -39q63 0 102 39t39 101q0 61 -38 96t-103 35q-66 0 -105 -35.5t-39 -95.5z" />
<glyph unicode="9" d="M68 891q0 233 137.5 367.5t376.5 134.5q302 0 440.5 -156.5t138.5 -499.5q0 -483 -229 -665q-128 -99 -387 -99q-177 0 -269.5 37t-189.5 146l250 217q76 -115 188 -115q107 0 158 65.5t70 227.5q-64 -60 -124 -83.5t-145 -23.5q-196 0 -305.5 118t-109.5 329zM446 907 q0 -81 40.5 -127.5t111.5 -46.5q75 0 120.5 51.5t45.5 137.5q0 82 -39 127t-109 45q-75 0 -122.5 -52t-47.5 -135z" />
<glyph unicode=":" horiz-adv-x="610" d="M96 174q0 86 60 143.5t149 57.5q92 0 151.5 -56.5t59.5 -144.5t-59.5 -144.5t-151.5 -56.5q-91 0 -150 57.5t-59 143.5zM96 756q0 88 59 144t150 56q92 0 151.5 -56t59.5 -144t-59.5 -144.5t-151.5 -56.5q-91 0 -150 56.5t-59 144.5z" />
<glyph unicode=";" horiz-adv-x="610" d="M35 -299l67 240q19 64 31 125q14 82 14 145v192h322v-286l-221 -387zM96 756q0 88 59 144t150 56q92 0 151.5 -56t59.5 -144t-59.5 -144.5t-151.5 -56.5q-91 0 -150 56.5t-59 144.5z" />
<glyph unicode="&#x3c;" d="M109 522v344l1024 500v-412l-588 -262l585 -262l3 -407z" />
<glyph unicode="=" d="M109 276v363h1024v-363h-1024zM109 748v362h1024v-362h-1024z" />
<glyph unicode="&#x3e;" d="M109 23v409l587 262l-585 264l-2 408l1024 -502v-342z" />
<glyph unicode="?" horiz-adv-x="1021" d="M41 1057q44 184 147 259t312 75q222 0 337 -91t115 -266q0 -134 -61.5 -217t-239.5 -190q-51 -31 -70.5 -56t-19.5 -59q0 -13 8 -37h-301q-12 53 -12 84q0 80 35.5 127.5t134.5 101.5q78 43 113.5 87.5t35.5 99.5q0 52 -28 82t-76 30q-59 0 -85 -35.5t-36 -133.5z M219 174q0 86 59 143.5t150 57.5q92 0 151.5 -56.5t59.5 -144.5q0 -87 -59.5 -144t-151.5 -57q-91 0 -150 57.5t-59 143.5z" />
<glyph unicode="@" horiz-adv-x="1501" d="M61 657q0 150 58.5 286t157 234t234.5 156t286 58q286 0 466.5 -165.5t180.5 -426.5q0 -125 -48.5 -237.5t-130 -179.5t-171.5 -67q-62 0 -106 30t-56 81q-43 -60 -111.5 -94.5t-144.5 -34.5q-121 0 -202 90t-81 225q0 107 50.5 203.5t135 154.5t179.5 58q63 0 115 -26 t81 -72l17 76h190l-84 -388q-14 -63 -14 -90q0 -63 45 -63q63 0 119.5 106t56.5 226q0 195 -128.5 312.5t-342.5 117.5q-155 0 -284 -75.5t-203 -206.5t-74 -288q0 -106 37.5 -203.5t105.5 -168.5q72 -75 167.5 -109.5t230.5 -34.5q176 0 368 62l39 -166q-189 -62 -412 -62 q-321 0 -516 183q-100 94 -155.5 226t-55.5 273zM608 625q0 -63 35 -102.5t92 -39.5q69 0 122.5 65t53.5 150q0 62 -35 101t-90 39q-71 0 -124.5 -64t-53.5 -149z" />
<glyph unicode="A" horiz-adv-x="1361" d="M-41 0l492 1366h487l420 -1366h-438l-54 203h-442l-68 -203h-397zM520 487h273l-121 426z" />
<glyph unicode="B" horiz-adv-x="1417" d="M137 0v1366h762q186 0 295 -90.5t109 -245.5q0 -103 -45 -176t-140 -127q117 -41 167 -114.5t50 -202.5q0 -198 -130 -304t-376 -106h-692zM547 313h102q89 0 119 3.5t55 17.5q54 28 54 102q0 40 -25.5 67t-71.5 34q-18 4 -157 4h-76v-228zM547 819h86q136 0 181.5 26 t45.5 103q0 60 -45 82.5t-168 22.5h-100v-234z" />
<glyph unicode="C" horiz-adv-x="1372" d="M72 690q0 182 49.5 309t159.5 228q101 92 224 133t300 41q270 0 398 -97t163 -327l-387 -141q-9 127 -58.5 182t-154.5 55q-115 0 -177.5 -106t-62.5 -301q0 -177 63.5 -276t176.5 -99q88 0 138 56.5t75 182.5l389 -143q-53 -218 -196.5 -320t-399.5 -102 q-355 0 -527.5 179t-172.5 546z" />
<glyph unicode="D" horiz-adv-x="1492" d="M137 0v1366h643q113 0 222.5 -31.5t191.5 -87.5q122 -86 175.5 -215t53.5 -334q0 -338 -173 -518t-498 -180h-615zM561 328h96q85 0 133.5 14.5t86.5 52.5q47 45 74.5 129.5t27.5 180.5q0 112 -35 190.5t-100 112.5q-59 30 -193 30h-90v-710z" />
<glyph unicode="E" d="M137 0v1366h944v-328h-520v-198h520v-308h-520v-204h602v-328h-1026z" />
<glyph unicode="F" horiz-adv-x="1128" d="M137 0v1366h944v-328h-520v-225h520v-307h-520v-506h-424z" />
<glyph unicode="G" horiz-adv-x="1490" d="M72 668q0 181 39 304.5t125 215.5q201 213 585 213q252 0 395 -93t156 -266l-375 -141q-26 93 -75 131.5t-142 38.5q-117 0 -185.5 -114t-68.5 -310q0 -132 46.5 -223.5t129.5 -120.5q55 -18 166 -18h4q3 0 8.5 0.5t12.5 1t16.5 0.5h18.5q6 2 30 2v151h-196v322h612v-762 q-194 -9 -377 -23q-138 -12 -233 -12q-163 0 -298.5 50t-229.5 145q-87 89 -125.5 208t-38.5 300z" />
<glyph unicode="H" horiz-adv-x="1519" d="M137 0v1366h424v-514h397v514h424v-1366h-424v514h-397v-514h-424z" />
<glyph unicode="I" horiz-adv-x="696" d="M137 0v1366h424v-1366h-424z" />
<glyph unicode="J" horiz-adv-x="1132" d="M-51 344l403 117q1 -86 25.5 -121t81.5 -35q41 0 72.5 24.5t43.5 65.5q11 34 11 142v829h424v-829q0 -166 -31.5 -263.5t-104.5 -160.5q-80 -71 -210 -109.5t-291 -38.5q-206 0 -300.5 84.5t-123.5 294.5z" />
<glyph unicode="K" horiz-adv-x="1423" d="M137 0v1366h416v-571l367 571h475l-414 -635l483 -731h-540l-371 575v-575h-416z" />
<glyph unicode="L" horiz-adv-x="1062" d="M137 0v1366h424v-1038h488v-328h-912z" />
<glyph unicode="M" horiz-adv-x="1974" d="M137 0v1366h561l291 -717l299 717h549v-1366h-410v791l-274 -791h-324l-282 791v-791h-410z" />
<glyph unicode="N" horiz-adv-x="1632" d="M137 0v1366h404l532 -711v711h424v-1366h-424l-512 678v-678h-424z" />
<glyph unicode="O" horiz-adv-x="1595" d="M72 696q0 335 190.5 520t536.5 185q288 0 479 -139q129 -94 188.5 -233.5t59.5 -346.5q0 -205 -59.5 -344t-188.5 -234q-188 -139 -479 -139q-292 0 -480 139q-132 96 -189.5 235.5t-57.5 356.5zM528 684q0 -178 74 -284.5t197 -106.5t196.5 106.5t73.5 284.5 q0 177 -73.5 283t-196.5 106t-197 -105.5t-74 -283.5z" />
<glyph unicode="P" horiz-adv-x="1318" d="M137 0v1366h647q124 0 195.5 -18.5t138.5 -69.5q160 -120 160 -346q0 -160 -78.5 -274t-224.5 -166q-73 -26 -144 -34.5t-208 -8.5h-64v-449h-422zM559 784h55q129 0 178.5 27t49.5 96q0 129 -174 129h-64h-45v-252z" />
<glyph unicode="Q" horiz-adv-x="1601" d="M70 698q0 324 172 496q98 98 247.5 152.5t321.5 54.5q314 0 512 -170q109 -94 159 -223t50 -318q0 -249 -86 -402t-277 -245l795 -213l-326 -262l-1081 426q-251 77 -369 247.5t-118 456.5zM528 684q0 -180 73 -284.5t198 -104.5t197.5 104.5t72.5 284.5t-72 284.5 t-198 104.5t-198.5 -104t-72.5 -285z" />
<glyph unicode="R" horiz-adv-x="1388" d="M137 0v1366h584h31q137 0 208 -14t132 -54q178 -118 178 -346q0 -132 -48 -221t-157 -160l285 -571h-486l-198 489h-111v-489h-418zM555 799h76h12q106 0 148.5 27t42.5 94q0 63 -45.5 88.5t-157.5 25.5h-31l-45 -4v-231z" />
<glyph unicode="S" horiz-adv-x="1302" d="M-2 334l399 117q32 -85 84 -122.5t137 -37.5q148 0 148 96q0 67 -84 98q-33 12 -55.5 17t-149.5 30q-178 37 -285.5 155t-107.5 278q0 202 155.5 319t424.5 117q241 0 374.5 -74t184.5 -235l-365 -140q-22 77 -72 118.5t-120 41.5q-64 0 -107 -31t-43 -77q0 -58 72 -89 q41 -19 65.5 -25t167.5 -36q211 -44 310.5 -144.5t99.5 -267.5q0 -110 -49.5 -205.5t-143.5 -162.5q-79 -58 -178.5 -83.5t-247.5 -25.5q-249 0 -395.5 88.5t-218.5 280.5z" />
<glyph unicode="T" horiz-adv-x="1026" d="M-55 1042v324h1136v-324h-356v-1042h-424v1042h-356z" />
<glyph unicode="U" horiz-adv-x="1490" d="M123 569v797h424v-791q0 -163 42 -222.5t156 -59.5t156.5 60.5t42.5 221.5v791h424v-797q0 -157 -26.5 -252.5t-92.5 -173.5q-78 -94 -198 -136t-306 -42q-215 0 -346.5 59.5t-203.5 188.5q-40 71 -56 149.5t-16 206.5z" />
<glyph unicode="V" horiz-adv-x="1333" d="M-16 1366h454l240 -864l299 864h414l-517 -1366h-450z" />
<glyph unicode="W" horiz-adv-x="2054" d="M27 1366h446l164 -678l229 678h367l184 -692l244 692h422l-455 -1366h-385l-217 707l-264 -707h-391z" />
<glyph unicode="X" horiz-adv-x="1304" d="M-72 0l484 715l-383 651h501l152 -256l172 256h461l-410 -629l443 -737h-514l-193 326l-213 -326h-500z" />
<glyph unicode="Y" horiz-adv-x="1267" d="M-82 1366h469l279 -465l245 465h432l-497 -819v-547h-424v528z" />
<glyph unicode="Z" horiz-adv-x="1189" d="M12 0v297l584 741h-524v328h1046v-313l-549 -725h615v-328h-1172z" />
<glyph unicode="[" horiz-adv-x="667" d="M104 -436v1870h486v-119l-203 -33v-1575l203 -22v-121h-486z" />
<glyph unicode="\" horiz-adv-x="944" d="M121 1423l201 25l581 -1870l-203 -29z" />
<glyph unicode="]" horiz-adv-x="667" d="M78 -317l201 32v1575l-201 23v121h483v-1870h-483v119z" />
<glyph unicode="^" d="M117 682l276 694h457l276 -694h-358l-145 416l-146 -416h-360z" />
<glyph unicode="_" d="M0 -94h1243v-240h-1243v240z" />
<glyph unicode="`" horiz-adv-x="1024" d="M70 1364l297 100l315 -374l-137 -27z" />
<glyph unicode="a" horiz-adv-x="1296" d="M68 469q0 250 119 382t343 132q104 0 162 -29.5t105 -107.5v110h395v-956h-395v94q-62 -68 -129 -94.5t-176 -26.5q-201 0 -312.5 130.5t-111.5 365.5zM487 477q0 -109 39 -167t111 -58q82 0 121 56t39 173q0 104 -40.5 162.5t-111.5 58.5q-77 0 -117.5 -57.5 t-40.5 -167.5z" />
<glyph unicode="b" horiz-adv-x="1300" d="M102 0v1434h396v-566q77 63 144 89t153 26q207 0 322.5 -130.5t115.5 -365.5q0 -238 -121 -376t-330 -138q-84 0 -144 23.5t-140 87.5l-52 -84h-344zM498 481q0 -110 42 -169.5t119 -59.5q72 0 113 59.5t41 165.5q0 107 -39.5 166t-111.5 59q-76 0 -120 -59t-44 -162z " />
<glyph unicode="c" horiz-adv-x="1126" d="M68 473q0 127 41.5 230t119.5 171q66 57 158.5 83t230.5 26q229 0 345.5 -73.5t154.5 -243.5l-364 -105q0 189 -115 189q-74 0 -113 -78t-39 -226q0 -235 131 -235q112 0 130 195l378 -97q-28 -100 -66 -156t-104 -96q-144 -84 -374 -84q-227 0 -344 88q-80 62 -125 171 t-45 241z" />
<glyph unicode="d" horiz-adv-x="1296" d="M68 469q0 249 118.5 381.5t339.5 132.5q97 0 159 -25t112 -84v560h395v-1434h-395v82q-73 -61 -138.5 -85t-156.5 -24q-209 0 -321.5 129t-112.5 367zM487 477q0 -109 39 -167t111 -58q82 0 121 56t39 173q0 104 -40 162.5t-112 58.5q-77 0 -117.5 -57.5t-40.5 -167.5z " />
<glyph unicode="e" horiz-adv-x="1185" d="M68 471q0 512 538 512q512 0 512 -498q0 -7 -4 -73h-649v-21q0 -101 31 -148.5t96 -47.5q56 0 87 27t48 91l348 -69q-51 -138 -171 -204.5t-318 -66.5q-518 0 -518 498zM471 600h266q-3 86 -35 124t-100 38q-116 0 -131 -162z" />
<glyph unicode="f" horiz-adv-x="735" d="M10 649v307h133v50q0 232 91 330t305 98q104 0 235 -29l-61 -283q-41 8 -66 8q-106 0 -106 -129v-45h172v-307h-172v-649h-398v649h-133z" />
<glyph unicode="g" horiz-adv-x="1294" d="M66 467q0 284 147 410q122 106 303 106q99 0 161.5 -27.5t119.5 -95.5v96h395v-942q0 -471 -635 -471q-212 0 -310 66.5t-130 230.5l383 88q12 -63 41.5 -90.5t85.5 -27.5q78 0 124 56.5t46 151.5v76q-75 -69 -142.5 -95t-167.5 -26q-200 0 -310.5 129.5t-110.5 364.5z M485 477q0 -109 39 -167t111 -58q82 0 121 56t39 173q0 104 -40 162.5t-112 58.5q-77 0 -117.5 -57.5t-40.5 -167.5z" />
<glyph unicode="h" horiz-adv-x="1275" d="M102 0v1434h396v-605q79 86 151.5 120t175.5 34q97 0 174.5 -34t120.5 -95q29 -41 41.5 -96.5t12.5 -147.5v-610h-396v449q0 127 -25.5 167.5t-105.5 40.5q-85 0 -117 -50.5t-32 -182.5v-424h-396z" />
<glyph unicode="i" horiz-adv-x="600" d="M84 1225q0 89 59.5 145.5t151.5 56.5q94 0 153.5 -56.5t59.5 -145.5t-59.5 -146t-153.5 -57q-92 0 -151.5 57t-59.5 146zM102 0v956h396v-956h-396z" />
<glyph unicode="j" horiz-adv-x="600" d="M-141 -135h49q103 0 148.5 35t45.5 114v942h396v-944q0 -189 -53.5 -277.5t-194.5 -131.5q-118 -39 -299 -39zM90 1235q0 88 56.5 140t150.5 52t149.5 -52t55.5 -140t-55.5 -140.5t-149.5 -52.5q-95 0 -151 52.5t-56 140.5z" />
<glyph unicode="k" horiz-adv-x="1226" d="M102 0v1434h396v-879l272 401h416l-305 -403l362 -553h-500l-245 436v-436h-396z" />
<glyph unicode="l" horiz-adv-x="600" d="M102 0v1434h396v-1434h-396z" />
<glyph unicode="m" horiz-adv-x="1871" d="M102 0v956h396v-108q69 75 133 105t153 30q114 0 182 -32t128 -115q76 79 151 113t172 34q355 0 355 -358v-625h-396v475q0 95 -27.5 137.5t-88.5 42.5q-68 0 -96.5 -46t-28.5 -156v-453h-396v477q0 91 -28 134.5t-88 43.5q-68 0 -96.5 -54t-28.5 -183v-418h-396z" />
<glyph unicode="n" horiz-adv-x="1275" d="M102 0v956h396v-127q82 87 153.5 120.5t173.5 33.5q97 0 175.5 -34t119.5 -95q29 -41 41.5 -97t12.5 -147v-610h-396v449q0 127 -25.5 167.5t-105.5 40.5q-85 0 -117 -50.5t-32 -182.5v-424h-396z" />
<glyph unicode="o" horiz-adv-x="1282" d="M68 477q0 263 139 384.5t440 121.5q153 0 249.5 -22.5t164.5 -73.5q73 -57 113 -161t40 -237q0 -132 -40 -236.5t-115 -170.5q-67 -58 -174 -84.5t-275 -26.5q-296 0 -419 114.5t-123 391.5zM487 479q0 -109 40.5 -169t113.5 -60t113.5 60t40.5 169q0 108 -40.5 168 t-113.5 60t-113.5 -60t-40.5 -168z" />
<glyph unicode="p" horiz-adv-x="1300" d="M102 -436v1392h396v-102q66 73 130 101t165 28q209 0 324.5 -130.5t115.5 -365.5q0 -238 -121.5 -376t-331.5 -138q-84 0 -143.5 23.5t-138.5 87.5v-520h-396zM498 481q0 -109 42.5 -169t118.5 -60q72 0 113 59.5t41 165.5q0 107 -39.5 166t-111.5 59q-76 0 -120 -59 t-44 -162z" />
<glyph unicode="q" horiz-adv-x="1294" d="M68 471q0 247 118.5 379.5t339.5 132.5q97 0 159 -25t112 -84l71 82h324v-1392h-395v518q-74 -60 -139.5 -84.5t-155.5 -24.5q-210 0 -322 128.5t-112 369.5zM487 477q0 -109 39 -167t111 -58q82 0 121 56t39 173q0 104 -40.5 162.5t-111.5 58.5q-77 0 -117.5 -57.5 t-40.5 -167.5z" />
<glyph unicode="r" horiz-adv-x="903" d="M102 0v956h383v-157q66 104 126 145t145 41q68 0 180 -43l-119 -377q-73 41 -139 41q-95 0 -137.5 -76t-42.5 -245v-285h-396z" />
<glyph unicode="s" horiz-adv-x="1085" d="M16 258l344 88q31 -65 70.5 -94t97.5 -29q41 0 65.5 18.5t24.5 47.5q0 19 -3 28.5t-21 19.5t-45 16.5t-86 19.5q-131 26 -189.5 48t-101.5 60q-47 41 -67.5 83t-20.5 98q0 155 130.5 238t373.5 83q194 0 299.5 -54.5t142.5 -174.5l-338 -92q-23 56 -47.5 73t-81.5 17 q-44 0 -69 -16t-25 -44q0 -37 35 -56.5t114 -25.5q136 -12 202 -31t114 -59q96 -80 96 -194q0 -172 -145.5 -263.5t-415.5 -91.5q-200 0 -306.5 67.5t-146.5 219.5z" />
<glyph unicode="t" horiz-adv-x="798" d="M8 653v303h131v230l398 129v-359h198v-303h-198v-131q0 -124 49 -169.5t184 -47.5l-72 -305h-82h-110q-203 0 -285 97.5t-82 338.5v217h-131z" />
<glyph unicode="u" horiz-adv-x="1273" d="M102 352v68v536h396v-415q0 -135 31 -188.5t108 -53.5q45 0 80 23t47 61q9 26 10.5 47.5t1.5 106.5v419h395v-956h-395v127q-85 -88 -152 -121t-161 -33q-72 0 -141 22t-115 60q-105 89 -105 297z" />
<glyph unicode="v" horiz-adv-x="1026" d="M0 956h410l125 -421l178 421h366l-409 -956h-381z" />
<glyph unicode="w" horiz-adv-x="1685" d="M23 956h411l105 -464l143 464h371l129 -487l135 487h379l-322 -956h-413l-127 512l-154 -512h-412z" />
<glyph unicode="x" horiz-adv-x="1118" d="M-41 0l379 504l-301 452h446l97 -145l106 145h408l-314 -452l340 -504h-452l-121 195l-139 -195h-449z" />
<glyph unicode="y" horiz-adv-x="1056" d="M-47 -119q37 -2 76 -2q74 0 109 1.5t67 5t46.5 14.5t25 24t24.5 41l16 33l-335 958h440l131 -512l172 512h379l-373 -886q-29 -67 -98 -213q-39 -79 -71 -127t-69 -83.5t-87 -51.5t-110 -23q-53 -6 -132 -6h-23q-9 0 -43 -1t-59 -1z" />
<glyph unicode="z" horiz-adv-x="1064" d="M27 0v252l426 401h-383v303h911v-284l-395 -369h444v-303h-1003z" />
<glyph unicode="{" horiz-adv-x="675" d="M27 399v219q57 12 82.5 48t25.5 104v377q0 155 70.5 221t236.5 66q43 0 86 -2q6 0 30.5 -1t41.5 -1v-230h-39q-39 -1 -61 -2t-41.5 -7t-28 -13t-14.5 -24t-7 -36t-1 -53v-313q0 -102 -24.5 -152.5t-98.5 -101.5q70 -43 96.5 -97.5t26.5 -154.5v-314q0 -35 1 -54.5t8 -37 t15.5 -25t29 -13t44 -6.5t65.5 -1h29v-227q-17 0 -41.5 -1t-30.5 -1q-49 -2 -90 -2q-161 0 -232 67t-71 219v377q0 83 -24 121.5t-84 50.5z" />
<glyph unicode="|" d="M424 -342v1708h395v-1708h-395z" />
<glyph unicode="}" horiz-adv-x="675" d="M76 -203h41q100 0 124.5 22.5t24.5 114.5v314q0 101 24.5 151t98.5 101q-70 44 -96.5 98t-26.5 154v313q0 36 -1 55.5t-8 37.5t-15.5 25.5t-29.5 13t-44 6.5t-64 1q-16 0 -28 -2v230h69q19 1 39.5 2t30.5 1.5t12 0.5q169 0 240.5 -66t71.5 -223v-377q0 -82 25 -121 t85 -49v-219q-58 -12 -84 -48t-26 -104v-376q0 -157 -71.5 -223t-240.5 -66q-1 0 -13 0.5t-31 1t-38 0.5q-14 2 -69 2v229z" />
<glyph unicode="~" d="M113 1241q66 167 145 241t191 74q39 0 89 -14t212 -72q41 -14 65 -14q36 0 61.5 22.5t59.5 84.5l201 -166q-71 -171 -147.5 -243.5t-186.5 -72.5q-38 0 -82.5 12.5t-151.5 51.5q-104 39 -141 39q-31 0 -57 -24.5t-58 -84.5z" />
<glyph unicode="&#xa1;" horiz-adv-x="665" d="M123 905q0 88 59.5 144.5t151.5 56.5q91 0 150 -56.5t59 -144.5t-59 -144t-150 -56q-92 0 -151.5 56t-59.5 144zM129 123l78 475h254l78 -475v-410h-410v410z" />
<glyph unicode="&#xa2;" horiz-adv-x="1146" d="M76 680q0 305 211 432q56 34 118.5 51.5t165.5 26.5v141h72v-141q126 -8 189.5 -24t115.5 -54q56 -41 84.5 -88.5t40.5 -118.5l-319 -74q-14 74 -37.5 104t-73.5 34v-576q46 19 64.5 43t46.5 99l317 -93q-59 -132 -159.5 -194.5t-268.5 -69.5v-184h-72v184 q-241 -1 -368 127.5t-127 374.5zM436 678q0 -129 32.5 -196.5t102.5 -84.5v574q-135 -28 -135 -293z" />
<glyph unicode="&#xa3;" d="M43 0v307q135 1 187 61t67 230h-156v274h191l8 72q20 142 42 199t79 114q132 129 360 129q108 0 182.5 -19.5t155.5 -70.5l-35 -278q-77 48 -117.5 64t-82.5 16q-167 0 -197 -183l-6 -43h309v-274h-342q-44 -168 -184 -281h694v-317h-1155z" />
<glyph unicode="&#xa4;" horiz-adv-x="1501" d="M55 219l217 217q-61 122 -61 260q0 123 70 260l-224 222l211 213l228 -228q130 62 256 62q120 0 252 -60l225 221l209 -208l-217 -217q73 -132 73 -267q0 -133 -63 -256l215 -217l-207 -211l-215 215q-129 -73 -276 -73q-70 0 -131 16t-138 55l-215 -211zM569 694 q0 -77 54.5 -131.5t130.5 -54.5t130 54.5t54 131.5q0 76 -54.5 130.5t-129.5 54.5q-76 0 -130.5 -54.5t-54.5 -130.5z" />
<glyph unicode="&#xa5;" horiz-adv-x="1366" d="M-41 1366h496l256 -487l256 487h391l-256 -453h215v-120h-285l-100 -179h385v-127h-426v-487h-412v487h-424v127h357l-109 179h-248v120h176z" />
<glyph unicode="&#xa6;" d="M424 313h395v-655h-395v655zM424 618v748h395v-748h-395z" />
<glyph unicode="&#xa7;" d="M53 -51l322 84q6 -94 68.5 -148.5t164.5 -54.5q73 0 112.5 28t39.5 81q0 57 -41 82t-170 47q-227 38 -336 116q-69 54 -112.5 145t-43.5 183q0 179 152 313q-21 57 -28 92t-7 82q0 186 133.5 294t362.5 108q207 0 322.5 -66t156.5 -207l-299 -145q-23 107 -60.5 144.5 t-119.5 37.5q-69 0 -109.5 -28.5t-40.5 -77.5q0 -62 60 -94q33 -18 61 -26.5t143 -35.5q223 -53 313.5 -133t90.5 -227q0 -156 -127 -310q92 -102 92 -243q0 -200 -151.5 -323.5t-395.5 -123.5q-473 0 -553 406zM369 573q0 -93 127 -147q58 -25 135 -41l41 -8l39 -8l39 -9 q2 -1 11 -2.5t21.5 -4.5t26.5 -7q29 42 29 84q0 43 -23 69.5t-83.5 51.5t-184.5 57q-104 29 -152 45q-26 -44 -26 -80z" />
<glyph unicode="&#xa8;" horiz-adv-x="1024" d="M115 1253q0 72 49 119t127 47t127 -46t49 -120q0 -73 -49.5 -120.5t-126.5 -47.5t-126.5 47.5t-49.5 120.5zM555 1253q0 74 48.5 120t127.5 46q78 0 127 -46t49 -120q0 -73 -49.5 -120.5t-126.5 -47.5q-79 0 -127.5 46.5t-48.5 121.5z" />
<glyph unicode="&#xa9;" horiz-adv-x="1562" d="M68 684q0 195 95.5 360t261 261t361.5 96q190 0 353 -96.5t258.5 -262t95.5 -358.5q0 -117 -36 -226.5t-101.5 -198t-152.5 -155t-194.5 -103t-222.5 -36.5q-196 0 -361.5 96.5t-261 262t-95.5 360.5zM211 684q0 -160 76.5 -296t208.5 -215t288 -79q153 0 283.5 79.5 t206.5 215.5t76 295t-76 294.5t-206.5 214.5t-283.5 79q-156 0 -288 -78.5t-208.5 -214t-76.5 -295.5zM403 694q0 184 107.5 284.5t302.5 100.5q152 0 223.5 -53t91.5 -182l-225 -80q-5 71 -29 100t-81 29q-60 0 -92.5 -55t-32.5 -156q0 -91 33 -142t92 -51q46 0 72 30 t38 99l227 -79q-29 -123 -109.5 -179.5t-225.5 -56.5q-392 0 -392 391z" />
<glyph unicode="&#xaa;" horiz-adv-x="747" d="M0 578v129h748v-129h-748zM20 1096q0 135 72 209.5t203 74.5q55 0 87.5 -13.5t57.5 -47.5v47h242v-547h-242v43q-60 -57 -164 -57q-126 0 -191 74t-65 217zM274 1094q0 -119 80 -119q86 0 86 121q0 54 -22 84t-60 30q-84 0 -84 -116z" />
<glyph unicode="&#xab;" horiz-adv-x="993" d="M61 477l256 479h205l-143 -479l143 -477h-205zM457 477l256 479h205l-144 -479l146 -477h-205z" />
<glyph unicode="&#xac;" d="M109 252v362h1024v-614h-396v252h-628z" />
<glyph unicode="&#xad;" horiz-adv-x="557" d="M0 373v252h557v-252h-557z" />
<glyph unicode="&#xae;" horiz-adv-x="1562" d="M68 684q0 195 95.5 360t261 261t361.5 96q190 0 353 -96.5t258.5 -262t95.5 -358.5q0 -117 -36 -226.5t-101.5 -198t-152.5 -155t-194.5 -103t-222.5 -36.5q-196 0 -361.5 96.5t-261 262t-95.5 360.5zM211 684q0 -160 76.5 -296t208.5 -215t288 -79q153 0 283.5 79.5 t206.5 215.5t76 295t-76 294.5t-206.5 214.5t-283.5 79q-156 0 -288 -78.5t-208.5 -214t-76.5 -295.5zM473 313v740h326q96 0 137.5 -7t79.5 -30q106 -64 106 -189q0 -70 -29.5 -118t-95.5 -86l160 -310h-283l-108 262h-51v-262h-242zM715 725h35h10q66 0 91.5 18.5 t25.5 65.5q0 46 -28.5 64t-100.5 18h-15l-18 -2v-164z" />
<glyph unicode="&#xaf;" horiz-adv-x="1024" d="M188 1167v160h650v-160h-650z" />
<glyph unicode="&#xb0;" horiz-adv-x="819" d="M102 1096q0 127 91 218t219 91q131 0 218 -89t87 -222q0 -132 -89 -223t-218 -91t-218.5 91.5t-89.5 224.5zM217 1087q0 -75 56.5 -132.5t129.5 -57.5q84 0 140.5 55.5t56.5 137.5q0 85 -54.5 141.5t-137.5 56.5q-80 0 -135.5 -58.5t-55.5 -142.5z" />
<glyph unicode="&#xb1;" horiz-adv-x="1124" d="M20 741v113h486v502h112v-502h486v-113h-486v-477h-112v477h-486zM23 0v113h1073v-113h-1073z" />
<glyph unicode="&#xb2;" horiz-adv-x="784" d="M39 547v192q54 39 199 150q131 102 162.5 136t31.5 77q0 27 -20.5 44t-53.5 17q-32 0 -50 -16.5t-27 -56.5q-1 -4 -5 -19.5t-6 -26.5l-225 107q34 128 106 179.5t218 51.5q157 0 239 -61t82 -178q0 -101 -56.5 -175.5t-236.5 -207.5h301v-213h-659z" />
<glyph unicode="&#xb3;" horiz-adv-x="784" d="M37 768l235 76q10 -65 31 -89t66 -24q44 0 69 19t25 51q0 57 -76 69q-36 4 -100 4v166h30q138 0 138 84q0 28 -22 44t-62 16q-41 0 -64.5 -26t-30.5 -83l-227 76q22 126 91.5 178.5t217.5 52.5q175 0 266 -57.5t91 -169.5q0 -123 -105 -188q121 -35 121 -174 q0 -124 -95 -193.5t-265 -69.5q-159 0 -239 57t-95 181z" />
<glyph unicode="&#xb4;" horiz-adv-x="1024" d="M330 1085l319 377l293 -100l-471 -303z" />
<glyph unicode="&#xb5;" horiz-adv-x="1179" d="M68 -307q0 44 4.5 71.5t29.5 120.5q25 95 25 156v983h180v-678q0 -107 49.5 -167t137.5 -60q66 0 120.5 35.5t108.5 113.5v756h182v-756q0 -83 28 -133.5t73 -50.5q37 0 66.5 40.5t33.5 98.5l55 -2q-22 -120 -85 -184t-161 -64q-76 0 -120.5 45t-69.5 146 q-164 -191 -317 -191q-52 0 -94 20t-107 75q0 -61 4 -91t20 -86q25 -91 32 -123.5t7 -64.5q0 -69 -28 -110.5t-74 -41.5q-43 0 -71.5 41t-28.5 101z" />
<glyph unicode="&#xb6;" horiz-adv-x="1501" d="M41 1018q0 95 47 177t129 128q46 25 94.5 34t134.5 9h957v-317h-184v-1221h-334v1221h-142v-1221h-333v846h-21q-145 0 -246.5 100.5t-101.5 243.5z" />
<glyph unicode="&#xb7;" horiz-adv-x="630" d="M96 530q0 100 62.5 166t158.5 66q95 0 157.5 -66t62.5 -166q0 -98 -63 -163.5t-157 -65.5q-96 0 -158.5 65t-62.5 164z" />
<glyph unicode="&#xb8;" horiz-adv-x="1024" d="M324 -385q77 3 119 35.5t42 89.5q0 43 -59 110l203 123q41 -59 57 -95.5t16 -74.5q0 -104 -90.5 -169t-257.5 -80z" />
<glyph unicode="&#xb9;" horiz-adv-x="784" d="M86 1047v180q127 4 187 34t92 105h221v-819h-256v518z" />
<glyph unicode="&#xba;" horiz-adv-x="747" d="M0 578v129h748v-129h-748zM39 1092q0 149 82.5 218.5t257.5 69.5q178 0 256 -65.5t78 -214.5q0 -155 -84.5 -225t-270.5 -70q-173 0 -246 66t-73 221zM293 1094q0 -58 22 -89.5t62 -31.5q39 0 60.5 31.5t21.5 89.5q0 57 -21.5 87.5t-60.5 30.5q-40 0 -62 -30.5t-22 -87.5 z" />
<glyph unicode="&#xbb;" horiz-adv-x="993" d="M76 956h205l256 -477l-254 -479h-205l141 479zM471 956h205l258 -477l-256 -479h-205l141 479z" />
<glyph unicode="&#xbc;" horiz-adv-x="1816" d="M86 1047v180q127 4 187 34t92 105h221v-819h-256v518zM367 -47l962 1485l144 -23l-961 -1483zM1079 162v186l342 471h267v-467h104v-190h-104v-162h-244v162h-365zM1278 352h166v250z" />
<glyph unicode="&#xbd;" horiz-adv-x="1816" d="M86 1047v180q127 4 187 34t92 105h221v-819h-256v518zM367 -47l962 1485l144 -23l-961 -1483zM1071 0v193q108 79 199 149q131 102 162.5 136t31.5 77q0 28 -20.5 44.5t-52.5 16.5q-33 0 -51 -17t-27 -56q-1 -4 -4.5 -19t-5.5 -26l-226 104q34 129 106 181.5t218 52.5 q157 0 239 -61.5t82 -178.5q0 -102 -56.5 -176t-235.5 -207h301v-213h-660z" />
<glyph unicode="&#xbe;" horiz-adv-x="1816" d="M37 768l235 76q10 -65 31 -89t66 -24q44 0 69 19t25 51q0 57 -76 69q-36 4 -100 4v166h30q138 0 138 84q0 28 -22 44t-62 16q-41 0 -64.5 -26t-30.5 -83l-227 76q22 126 91.5 178.5t217.5 52.5q175 0 266 -57.5t91 -169.5q0 -123 -105 -188q121 -35 121 -174 q0 -124 -95 -193.5t-265 -69.5q-159 0 -239 57t-95 181zM367 -47l962 1485l144 -23l-961 -1483zM1079 162v186l342 471h267v-467h104v-190h-104v-162h-244v162h-365zM1278 352h166v250z" />
<glyph unicode="&#xbf;" horiz-adv-x="1060" d="M68 68q0 184 112 290q29 26 52.5 41t101.5 56q41 23 59.5 58.5t20.5 94.5h377v-30q0 -106 -45 -170t-171 -136q-68 -40 -94 -76.5t-26 -91.5q0 -51 28.5 -81.5t75.5 -30.5q62 0 89.5 41.5t27.5 136.5v27l344 -136q-28 -191 -145 -281.5t-336 -90.5q-230 0 -350.5 97 t-120.5 282zM389 905q0 88 59.5 144.5t151.5 56.5q91 0 150 -56.5t59 -144.5t-59 -144t-150 -56q-92 0 -151.5 56t-59.5 144z" />
<glyph unicode="&#xc0;" horiz-adv-x="1361" d="M-41 0l492 1366h487l420 -1366h-438l-54 203h-442l-68 -203h-397zM252 1772l291 100l321 -377l-141 -27zM520 487h273l-121 426z" />
<glyph unicode="&#xc1;" horiz-adv-x="1361" d="M-41 0l492 1366h487l420 -1366h-438l-54 203h-442l-68 -203h-397zM512 1495l319 377l293 -100l-471 -304zM520 487h273l-121 426z" />
<glyph unicode="&#xc2;" horiz-adv-x="1361" d="M-41 0l492 1366h487l420 -1366h-438l-54 203h-442l-68 -203h-397zM270 1516l324 327h184l336 -327l-113 -37l-315 192l-303 -192zM520 487h273l-121 426z" />
<glyph unicode="&#xc3;" horiz-adv-x="1361" d="M-41 0l492 1366h487l420 -1366h-438l-54 203h-442l-68 -203h-397zM283 1548q87 240 262 240q33 0 72.5 -13t115.5 -49q90 -43 158 -43q46 0 93.5 28.5t76.5 72.5l55 -31q-114 -231 -295 -231q-32 0 -52 5t-62 25q-37 19 -82 37q-104 47 -150 47q-43 0 -71 -23.5 t-66 -92.5zM520 487h273l-121 426z" />
<glyph unicode="&#xc4;" horiz-adv-x="1361" d="M-41 0l492 1366h487l420 -1366h-438l-54 203h-442l-68 -203h-397zM276 1655q0 76 51.5 125t131.5 49q82 0 133 -48.5t51 -125.5t-51 -125.5t-133 -48.5q-80 0 -131.5 49t-51.5 125zM520 487h273l-121 426zM731 1655q0 78 50 126t132 48t133.5 -48.5t51.5 -125.5 t-51.5 -125.5t-133.5 -48.5t-132 48t-50 126z" />
<glyph unicode="&#xc5;" horiz-adv-x="1361" d="M-41 0l492 1366h487l420 -1366h-438l-54 203h-442l-68 -203h-397zM412 1657q0 95 72.5 149t201.5 54t202 -54t73 -149t-73 -149t-202 -54t-201.5 54t-72.5 149zM520 487h273l-121 426zM571 1657q0 -50 31.5 -80.5t83.5 -30.5t83.5 30.5t31.5 80.5t-31.5 80t-83.5 30 t-83.5 -30t-31.5 -80z" />
<glyph unicode="&#xc6;" horiz-adv-x="1818" d="M-96 0l704 1366h1051v-332h-459v-198h459v-310h-459v-198h539v-328h-922v221h-338l-94 -221h-481zM596 510h221v512z" />
<glyph unicode="&#xc7;" horiz-adv-x="1372" d="M72 690q0 182 49.5 309t159.5 228q101 92 224 133t300 41q270 0 398 -97t163 -327l-387 -141q-9 127 -58.5 182t-154.5 55q-115 0 -177.5 -106t-62.5 -301q0 -177 63.5 -276t176.5 -99q88 0 138 56.5t75 182.5l389 -143q-53 -218 -196.5 -320t-399.5 -102 q-355 0 -527.5 179t-172.5 546zM477 -391q76 3 118 35t42 88q0 26 -12.5 49.5t-46.5 60.5l204 123q41 -58 56.5 -94t15.5 -74q0 -104 -90 -169.5t-256 -80.5z" />
<glyph unicode="&#xc8;" d="M137 0v1366h944v-328h-520v-198h520v-308h-520v-204h602v-328h-1026zM193 1772l290 100l322 -377l-141 -27z" />
<glyph unicode="&#xc9;" d="M137 0v1366h944v-328h-520v-198h520v-308h-520v-204h602v-328h-1026zM426 1495l319 377l293 -100l-471 -304z" />
<glyph unicode="&#xca;" d="M137 0v1366h944v-328h-520v-198h520v-308h-520v-204h602v-328h-1026zM195 1516l323 327h184l336 -327l-112 -37l-316 192l-303 -192z" />
<glyph unicode="&#xcb;" d="M137 0v1366h944v-328h-520v-198h520v-308h-520v-204h602v-328h-1026zM207 1655q0 76 51 125t131 49q82 0 133 -48.5t51 -125.5t-51 -125.5t-133 -48.5q-80 0 -131 49t-51 125zM662 1655q0 78 50 126t132 48t133 -48.5t51 -125.5t-51 -125.5t-133 -48.5t-132 48t-50 126z " />
<glyph unicode="&#xcc;" horiz-adv-x="696" d="M-53 1772l291 100l280 -377l-141 -27zM137 0v1366h424v-1366h-424z" />
<glyph unicode="&#xcd;" horiz-adv-x="696" d="M137 0v1366h424v-1366h-424zM180 1495l279 377l291 -100l-428 -304z" />
<glyph unicode="&#xce;" horiz-adv-x="696" d="M-39 1516l289 327h184l303 -327l-112 -37l-283 192l-268 -192zM137 0v1366h424v-1366h-424z" />
<glyph unicode="&#xcf;" horiz-adv-x="696" d="M-14 1616q0 69 46 112.5t118 43.5t117.5 -43.5t45.5 -112.5t-45.5 -112.5t-117.5 -43.5t-118 43.5t-46 112.5zM137 0v1366h424v-1366h-424zM385 1616q0 69 46 112.5t118 43.5t118 -43.5t46 -112.5t-46 -112.5t-118 -43.5t-118 44t-46 112z" />
<glyph unicode="&#xd0;" horiz-adv-x="1492" d="M0 655v129h137v582h641q115 0 224.5 -31.5t191.5 -87.5q122 -86 175.5 -215t53.5 -334q0 -338 -173.5 -518t-497.5 -180h-615v655h-137zM561 328h96q84 0 133 14.5t87 52.5q47 44 74.5 128.5t27.5 181.5q0 112 -35 190.5t-100 112.5q-59 30 -195 30h-88v-254h232v-129 h-232v-327z" />
<glyph unicode="&#xd1;" horiz-adv-x="1632" d="M137 0v1366h404l532 -711v711h424v-1366h-424l-512 678v-678h-424zM414 1548q87 240 262 240q33 0 72.5 -13t115.5 -49q90 -43 158 -43q46 0 93.5 28.5t76.5 72.5l55 -31q-114 -231 -295 -231q-32 0 -52 5t-62 25q-37 19 -82 37q-104 47 -150 47q-43 0 -71 -23.5 t-66 -92.5z" />
<glyph unicode="&#xd2;" horiz-adv-x="1595" d="M72 696q0 335 190.5 520t536.5 185q288 0 479 -139q129 -94 188.5 -233.5t59.5 -346.5q0 -205 -59.5 -344t-188.5 -234q-188 -139 -479 -139q-292 0 -480 139q-132 96 -189.5 235.5t-57.5 356.5zM371 1772l291 100l321 -377l-141 -27zM528 684q0 -178 74 -284.5 t197 -106.5t196.5 106.5t73.5 284.5q0 177 -73.5 283t-196.5 106t-197 -105.5t-74 -283.5z" />
<glyph unicode="&#xd3;" horiz-adv-x="1595" d="M72 696q0 335 190.5 520t536.5 185q288 0 479 -139q129 -94 188.5 -233.5t59.5 -346.5q0 -205 -59.5 -344t-188.5 -234q-188 -139 -479 -139q-292 0 -480 139q-132 96 -189.5 235.5t-57.5 356.5zM528 684q0 -178 74 -284.5t197 -106.5t196.5 106.5t73.5 284.5 q0 177 -73.5 283t-196.5 106t-197 -105.5t-74 -283.5zM616 1495l320 377l293 -100l-471 -304z" />
<glyph unicode="&#xd4;" horiz-adv-x="1595" d="M72 696q0 335 190.5 520t536.5 185q288 0 479 -139q129 -94 188.5 -233.5t59.5 -346.5q0 -205 -59.5 -344t-188.5 -234q-188 -139 -479 -139q-292 0 -480 139q-132 96 -189.5 235.5t-57.5 356.5zM377 1516l323 327h185l336 -327l-113 -37l-315 192l-304 -192zM528 684 q0 -178 74 -284.5t197 -106.5t196.5 106.5t73.5 284.5q0 177 -73.5 283t-196.5 106t-197 -105.5t-74 -283.5z" />
<glyph unicode="&#xd5;" horiz-adv-x="1595" d="M72 696q0 335 190.5 520t536.5 185q288 0 479 -139q129 -94 188.5 -233.5t59.5 -346.5q0 -205 -59.5 -344t-188.5 -234q-188 -139 -479 -139q-292 0 -480 139q-132 96 -189.5 235.5t-57.5 356.5zM395 1548q87 240 262 240q33 0 73 -13t116 -49q90 -43 158 -43 q46 0 93.5 28.5t76.5 72.5l55 -31q-114 -231 -295 -231q-32 0 -53 5t-62 25q-37 19 -82 37q-104 47 -149 47q-43 0 -71 -23.5t-66 -92.5zM528 684q0 -178 74 -284.5t197 -106.5t196.5 106.5t73.5 284.5q0 177 -73.5 283t-196.5 106t-197 -105.5t-74 -283.5z" />
<glyph unicode="&#xd6;" horiz-adv-x="1595" d="M72 696q0 335 190.5 520t536.5 185q288 0 479 -139q129 -94 188.5 -233.5t59.5 -346.5q0 -205 -59.5 -344t-188.5 -234q-188 -139 -479 -139q-292 0 -480 139q-132 96 -189.5 235.5t-57.5 356.5zM389 1655q0 76 51 125t131 49q82 0 133.5 -48.5t51.5 -125.5t-51.5 -125.5 t-133.5 -48.5q-80 0 -131 49t-51 125zM528 684q0 -178 74 -284.5t197 -106.5t196.5 106.5t73.5 284.5q0 177 -73.5 283t-196.5 106t-197 -105.5t-74 -283.5zM844 1655q0 78 50 126t132 48t133 -48.5t51 -125.5t-51 -125.5t-133 -48.5t-132 48t-50 126z" />
<glyph unicode="&#xd7;" d="M88 420l272 272l-272 271l266 266l271 -273l272 273l256 -256l-272 -273l272 -270l-266 -266l-271 272l-272 -272z" />
<glyph unicode="&#xd8;" horiz-adv-x="1595" d="M72 684q0 206 59 343.5t188 232.5q190 141 480 141q135 0 214.5 -19.5t217.5 -85.5l131 142l98 -80l-125 -137q99 -103 145 -223t46 -275q0 -226 -59 -375t-187 -244q-190 -139 -479 -139q-133 0 -231 25t-220 88l-123 -148l-102 76l127 152q-101 117 -140.5 231.5 t-39.5 294.5zM530 684q0 -70 27 -186l408 508q-44 37 -82 52t-84 15q-124 0 -196.5 -104.5t-72.5 -284.5zM616 373q81 -78 183 -78q129 0 198.5 103t69.5 294q0 56 -6.5 95.5t-26.5 103.5z" />
<glyph unicode="&#xd9;" horiz-adv-x="1490" d="M123 569v797h424v-791q0 -163 42 -222.5t156 -59.5t156.5 60.5t42.5 221.5v791h424v-797q0 -157 -26.5 -252.5t-92.5 -173.5q-78 -94 -198 -136t-306 -42q-215 0 -346.5 59.5t-203.5 188.5q-40 71 -56 149.5t-16 206.5zM324 1772l290 100l322 -377l-141 -27z" />
<glyph unicode="&#xda;" horiz-adv-x="1490" d="M123 569v797h424v-791q0 -163 42 -222.5t156 -59.5t156.5 60.5t42.5 221.5v791h424v-797q0 -157 -26.5 -252.5t-92.5 -173.5q-78 -94 -198 -136t-306 -42q-215 0 -346.5 59.5t-203.5 188.5q-40 71 -56 149.5t-16 206.5zM555 1495l319 377l293 -100l-471 -304z" />
<glyph unicode="&#xdb;" horiz-adv-x="1490" d="M123 569v797h424v-791q0 -163 42 -222.5t156 -59.5t156.5 60.5t42.5 221.5v791h424v-797q0 -157 -26.5 -252.5t-92.5 -173.5q-78 -94 -198 -136t-306 -42q-215 0 -346.5 59.5t-203.5 188.5q-40 71 -56 149.5t-16 206.5zM324 1516l323 327h184l336 -327l-112 -37l-316 192 l-303 -192z" />
<glyph unicode="&#xdc;" horiz-adv-x="1490" d="M123 569v797h424v-791q0 -163 42 -222.5t156 -59.5t156.5 60.5t42.5 221.5v791h424v-797q0 -157 -26.5 -252.5t-92.5 -173.5q-78 -94 -198 -136t-306 -42q-215 0 -346.5 59.5t-203.5 188.5q-40 71 -56 149.5t-16 206.5zM336 1655q0 76 51 125t131 49q82 0 133 -48.5 t51 -125.5t-51 -125.5t-133 -48.5q-80 0 -131 49t-51 125zM791 1655q0 78 50 126t132 48t133 -48.5t51 -125.5t-51 -125.5t-133 -48.5t-132 48t-50 126z" />
<glyph unicode="&#xdd;" horiz-adv-x="1267" d="M-82 1366h469l279 -465l245 465h432l-497 -819v-547h-424v528zM465 1495l319 377l293 -100l-471 -304z" />
<glyph unicode="&#xde;" horiz-adv-x="1310" d="M137 0v1366h420v-154h55q21 -1 29 -1h15t42.5 -1t92.5 -2q145 -3 229 -30t151 -93q113 -107 113 -307q0 -175 -91 -294t-261 -165q-58 -17 -236 -24q-31 -2 -71 -2h-68v-293h-420zM557 631h27h59q109 0 155 29t46 98q0 105 -119 123q-46 4 -141 4h-27v-254z" />
<glyph unicode="&#xdf;" horiz-adv-x="1300" d="M-16 653v303h131v29q0 217 141.5 340t390.5 123q217 0 341 -92t124 -252q0 -74 -45 -201q-23 -63 -23 -102q0 -43 17.5 -73t103.5 -132q55 -64 78 -119t23 -123q0 -167 -120 -274t-308 -107q-95 0 -222 27l43 317q43 -12 64 -12q38 0 63 23.5t25 58.5q0 25 -15.5 52 t-74.5 102q-72 96 -72 166q0 43 13 77.5t51 92.5q65 101 65 165q0 50 -33.5 81.5t-85.5 31.5q-74 0 -108.5 -58t-34.5 -184v-913h-401v653h-131z" />
<glyph unicode="&#xe0;" horiz-adv-x="1296" d="M68 469q0 250 119 382t343 132q104 0 162 -29.5t105 -107.5v110h395v-956h-395v94q-62 -68 -129 -94.5t-176 -26.5q-201 0 -312.5 130.5t-111.5 365.5zM238 1364l297 100l315 -374l-137 -27zM487 477q0 -109 39 -167t111 -58q82 0 121 56t39 173q0 104 -40.5 162.5 t-111.5 58.5q-77 0 -117.5 -57.5t-40.5 -167.5z" />
<glyph unicode="&#xe1;" horiz-adv-x="1296" d="M68 469q0 250 119 382t343 132q104 0 162 -29.5t105 -107.5v110h395v-956h-395v94q-62 -68 -129 -94.5t-176 -26.5q-201 0 -312.5 130.5t-111.5 365.5zM485 1085l320 377l293 -100l-471 -303zM487 477q0 -109 39 -167t111 -58q82 0 121 56t39 173q0 104 -40.5 162.5 t-111.5 58.5q-77 0 -117.5 -57.5t-40.5 -167.5z" />
<glyph unicode="&#xe2;" horiz-adv-x="1296" d="M68 469q0 250 119 382t343 132q104 0 162 -29.5t105 -107.5v110h395v-956h-395v94q-62 -68 -129 -94.5t-176 -26.5q-201 0 -312.5 130.5t-111.5 365.5zM270 1106l303 328h185l315 -328l-112 -37l-295 193l-283 -193zM487 477q0 -109 39 -167t111 -58q82 0 121 56t39 173 q0 104 -40.5 162.5t-111.5 58.5q-77 0 -117.5 -57.5t-40.5 -167.5z" />
<glyph unicode="&#xe3;" horiz-adv-x="1296" d="M68 469q0 250 119 382t343 132q104 0 162 -29.5t105 -107.5v110h395v-956h-395v94q-62 -68 -129 -94.5t-176 -26.5q-201 0 -312.5 130.5t-111.5 365.5zM270 1141q40 110 108.5 173.5t147.5 63.5q40 0 78.5 -13.5t100.5 -49.5q72 -45 137 -45q46 0 91.5 27.5t80.5 76.5 l57 -28q-115 -234 -280 -234q-43 0 -75 11t-95 48q-102 60 -156 60q-44 0 -71.5 -24t-67.5 -95zM487 477q0 -109 39 -167t111 -58q82 0 121 56t39 173q0 104 -40.5 162.5t-111.5 58.5q-77 0 -117.5 -57.5t-40.5 -167.5z" />
<glyph unicode="&#xe4;" horiz-adv-x="1296" d="M68 469q0 250 119 382t343 132q104 0 162 -29.5t105 -107.5v110h395v-956h-395v94q-62 -68 -129 -94.5t-176 -26.5q-201 0 -312.5 130.5t-111.5 365.5zM274 1253q0 72 49.5 119t127.5 47t127 -46t49 -120q0 -73 -49.5 -120.5t-126.5 -47.5t-127 47.5t-50 120.5zM487 477 q0 -109 39 -167t111 -58q82 0 121 56t39 173q0 104 -40.5 162.5t-111.5 58.5q-77 0 -117.5 -57.5t-40.5 -167.5zM715 1253q0 74 48.5 120t127.5 46q78 0 127 -46t49 -120q0 -73 -49.5 -120.5t-126.5 -47.5q-79 0 -127.5 46.5t-48.5 121.5z" />
<glyph unicode="&#xe5;" horiz-adv-x="1296" d="M68 469q0 250 119 382t343 132q104 0 162 -29.5t105 -107.5v110h395v-956h-395v94q-62 -68 -129 -94.5t-176 -26.5q-201 0 -312.5 130.5t-111.5 365.5zM401 1255q0 94 71.5 146.5t197.5 52.5q125 0 195.5 -52.5t70.5 -146.5t-71 -146t-197 -52q-125 0 -196 52.5 t-71 145.5zM487 477q0 -109 39 -167t111 -58q82 0 121 56t39 173q0 104 -40.5 162.5t-111.5 58.5q-77 0 -117.5 -57.5t-40.5 -167.5zM553 1255q0 -49 32 -79.5t85 -30.5q51 0 82.5 30.5t31.5 79.5q0 50 -31.5 80.5t-82.5 30.5q-52 0 -84.5 -30.5t-32.5 -80.5z" />
<glyph unicode="&#xe6;" horiz-adv-x="1755" d="M47 266q0 66 20 110t76 81.5t144 66.5t235 62q73 17 104 38.5t31 55.5q0 31 -24 49.5t-64 18.5q-58 0 -93 -37t-52 -115l-320 94q44 152 159 222.5t319 70.5q174 0 297 -59q64 34 128.5 47.5t155.5 13.5q261 0 375 -102q66 -60 108 -166.5t42 -216.5q0 -7 -1 -19t-2 -30 t-2 -33h-651v-19q0 -113 30 -158.5t103 -45.5q55 0 85 26.5t53 95.5l342 -88q-59 -137 -176.5 -196.5t-329.5 -59.5q-145 0 -238 39.5t-166 132.5q-159 -174 -383 -174q-138 0 -221.5 81t-83.5 214zM449 315q0 -40 23.5 -62t66.5 -22q59 0 94 49t35 132v32 q-130 -31 -174.5 -57t-44.5 -72zM1038 598h267q-3 86 -34 126t-95 40q-63 0 -97 -40t-41 -126z" />
<glyph unicode="&#xe7;" horiz-adv-x="1126" d="M68 473q0 127 41.5 230t119.5 171q66 57 158.5 83t230.5 26q229 0 345.5 -73.5t154.5 -243.5l-364 -105q0 189 -115 189q-74 0 -113 -78t-39 -226q0 -235 131 -235q112 0 130 195l378 -97q-28 -100 -66 -156t-104 -96q-144 -84 -374 -84q-227 0 -344 88q-80 62 -125 171 t-45 241zM326 -385q78 3 119.5 35.5t41.5 89.5q0 46 -59 110l203 123q42 -59 58 -95.5t16 -74.5q0 -104 -91 -169t-258 -80z" />
<glyph unicode="&#xe8;" horiz-adv-x="1185" d="M68 471q0 512 538 512q512 0 512 -498q0 -7 -4 -73h-649v-21q0 -101 31 -148.5t96 -47.5q56 0 87 27t48 91l348 -69q-51 -138 -171 -204.5t-318 -66.5q-518 0 -518 498zM170 1364l297 100l315 -374l-137 -27zM471 600h266q-3 86 -35 124t-100 38q-116 0 -131 -162z" />
<glyph unicode="&#xe9;" horiz-adv-x="1185" d="M68 471q0 512 538 512q512 0 512 -498q0 -7 -4 -73h-649v-21q0 -101 31 -148.5t96 -47.5q56 0 87 27t48 91l348 -69q-51 -138 -171 -204.5t-318 -66.5q-518 0 -518 498zM422 1085l319 377l293 -100l-471 -303zM471 600h266q-3 86 -35 124t-100 38q-116 0 -131 -162z" />
<glyph unicode="&#xea;" horiz-adv-x="1185" d="M68 471q0 512 538 512q512 0 512 -498q0 -7 -4 -73h-649v-21q0 -101 31 -148.5t96 -47.5q56 0 87 27t48 91l348 -69q-51 -138 -171 -204.5t-318 -66.5q-518 0 -518 498zM205 1106l303 328h184l316 -328l-113 -37l-295 193l-283 -193zM471 600h266q-3 86 -35 124t-100 38 q-116 0 -131 -162z" />
<glyph unicode="&#xeb;" horiz-adv-x="1185" d="M68 471q0 512 538 512q512 0 512 -498q0 -7 -4 -73h-649v-21q0 -101 31 -148.5t96 -47.5q56 0 87 27t48 91l348 -69q-51 -138 -171 -204.5t-318 -66.5q-518 0 -518 498zM203 1253q0 72 49 119t127 47t127 -46t49 -120q0 -73 -49.5 -120.5t-126.5 -47.5t-126.5 47.5 t-49.5 120.5zM471 600h266q-3 86 -35 124t-100 38q-116 0 -131 -162zM643 1253q0 74 48.5 120t127.5 46q78 0 127 -46t49 -120q0 -73 -49.5 -120.5t-126.5 -47.5q-79 0 -127.5 46.5t-48.5 121.5z" />
<glyph unicode="&#xec;" horiz-adv-x="600" d="M-96 1364l291 100l274 -374l-137 -27zM102 0v956h396v-956h-396z" />
<glyph unicode="&#xed;" horiz-adv-x="600" d="M102 0v956h396v-956h-396zM131 1085l275 377l290 -100l-430 -303z" />
<glyph unicode="&#xee;" horiz-adv-x="600" d="M-82 1090l285 344h184l295 -328l-113 -37l-270 193l-266 -205zM102 0v956h396v-956h-396z" />
<glyph unicode="&#xef;" horiz-adv-x="600" d="M-70 1249q0 69 46 112.5t118 43.5t118 -43.5t46 -112.5t-46 -112t-118 -43t-118 43t-46 112zM102 0v956h396v-956h-396zM342 1249q0 69 46 112.5t118 43.5t118 -43.5t46 -112.5t-46 -112t-118 -43t-118 43.5t-46 111.5z" />
<glyph unicode="&#xf0;" horiz-adv-x="1282" d="M68 1323l292 119q49 -26 158 -80q1 -1 6 -4t13 -8t16 -9l195 115l90 -78l-174 -104q295 -187 424 -370t129 -412q0 -134 -48 -247.5t-131 -176.5q-69 -53 -167 -74t-277 -21q-167 0 -253.5 26.5t-152.5 98.5q-118 124 -118 351q0 276 194 397q120 74 254 74q50 0 150 -25 q-86 76 -137.5 116t-145.5 103l-195 -115l-84 76l177 107q-58 37 -150 100q-3 2 -12 7.5t-24 15.5t-29 18zM487 467q0 -103 39.5 -161t108.5 -58q75 0 116.5 62.5t41.5 178.5q0 100 -41 160t-109 60q-74 0 -115 -63.5t-41 -178.5z" />
<glyph unicode="&#xf1;" horiz-adv-x="1275" d="M102 0v956h396v-127q82 87 153.5 120.5t173.5 33.5q97 0 175.5 -34t119.5 -95q29 -41 41.5 -97t12.5 -147v-610h-396v449q0 127 -25.5 167.5t-105.5 40.5q-85 0 -117 -50.5t-32 -182.5v-424h-396zM244 1141q40 110 108.5 173.5t147.5 63.5q40 0 77.5 -13.5t100.5 -49.5 q72 -45 137 -45q46 0 91.5 27.5t80.5 76.5l57 -28q-115 -234 -280 -234q-43 0 -75 11t-95 48q-102 60 -156 60q-44 0 -71.5 -24t-67.5 -95z" />
<glyph unicode="&#xf2;" horiz-adv-x="1282" d="M68 477q0 263 139 384.5t440 121.5q153 0 249.5 -22.5t164.5 -73.5q73 -57 113 -161t40 -237q0 -132 -40 -236.5t-115 -170.5q-67 -58 -174 -84.5t-275 -26.5q-296 0 -419 114.5t-123 391.5zM205 1364l297 100l315 -374l-137 -27zM487 479q0 -109 40.5 -169t113.5 -60 t113.5 60t40.5 169q0 108 -40.5 168t-113.5 60t-113.5 -60t-40.5 -168z" />
<glyph unicode="&#xf3;" horiz-adv-x="1282" d="M68 477q0 263 139 384.5t440 121.5q153 0 249.5 -22.5t164.5 -73.5q73 -57 113 -161t40 -237q0 -132 -40 -236.5t-115 -170.5q-67 -58 -174 -84.5t-275 -26.5q-296 0 -419 114.5t-123 391.5zM457 1085l319 377l293 -100l-471 -303zM487 479q0 -109 40.5 -169t113.5 -60 t113.5 60t40.5 169q0 108 -40.5 168t-113.5 60t-113.5 -60t-40.5 -168z" />
<glyph unicode="&#xf4;" horiz-adv-x="1282" d="M68 477q0 263 139 384.5t440 121.5q153 0 249.5 -22.5t164.5 -73.5q73 -57 113 -161t40 -237q0 -132 -40 -236.5t-115 -170.5q-67 -58 -174 -84.5t-275 -26.5q-296 0 -419 114.5t-123 391.5zM240 1106l303 328h184l315 -328l-112 -37l-295 193l-283 -193zM487 479 q0 -109 40.5 -169t113.5 -60t113.5 60t40.5 169q0 108 -40.5 168t-113.5 60t-113.5 -60t-40.5 -168z" />
<glyph unicode="&#xf5;" horiz-adv-x="1282" d="M68 477q0 263 139 384.5t440 121.5q153 0 249.5 -22.5t164.5 -73.5q73 -57 113 -161t40 -237q0 -132 -40 -236.5t-115 -170.5q-67 -58 -174 -84.5t-275 -26.5q-296 0 -419 114.5t-123 391.5zM252 1141q40 110 108.5 173.5t147.5 63.5q40 0 77.5 -13.5t100.5 -49.5 q72 -45 137 -45q46 0 91.5 27.5t80.5 76.5l58 -28q-115 -234 -281 -234q-43 0 -75 11t-95 48q-102 60 -156 60q-44 0 -71.5 -24t-67.5 -95zM487 479q0 -109 40.5 -169t113.5 -60t113.5 60t40.5 169q0 108 -40.5 168t-113.5 60t-113.5 -60t-40.5 -168z" />
<glyph unicode="&#xf6;" horiz-adv-x="1282" d="M68 477q0 263 139 384.5t440 121.5q153 0 249.5 -22.5t164.5 -73.5q73 -57 113 -161t40 -237q0 -132 -40 -236.5t-115 -170.5q-67 -58 -174 -84.5t-275 -26.5q-296 0 -419 114.5t-123 391.5zM244 1253q0 72 49 119t127 47t127 -46t49 -120q0 -73 -49.5 -120.5 t-126.5 -47.5t-126.5 47.5t-49.5 120.5zM487 479q0 -109 40.5 -169t113.5 -60t113.5 60t40.5 169q0 108 -40.5 168t-113.5 60t-113.5 -60t-40.5 -168zM684 1253q0 74 48.5 120t127.5 46q78 0 127 -46t49 -120q0 -73 -49.5 -120.5t-126.5 -47.5q-79 0 -127.5 46.5 t-48.5 121.5z" />
<glyph unicode="&#xf7;" horiz-adv-x="1124" d="M20 477v113h1078v-113h-1078zM432 119q0 53 37 90t90 37t90 -37t37 -90t-37 -90t-90 -37t-90 37t-37 90zM432 936q0 52 37 89.5t90 37.5t90 -37.5t37 -89.5t-37 -89.5t-90 -37.5t-90 37.5t-37 89.5z" />
<glyph unicode="&#xf8;" horiz-adv-x="1220" d="M68 465q0 265 140.5 393.5t430.5 128.5q126 0 203 -13t151 -48l111 114l61 -53l-100 -102q78 -73 113.5 -168.5t35.5 -229.5q0 -266 -142.5 -391t-444.5 -125q-127 0 -202 11.5t-149 42.5l-110 -115l-57 53l98 107q-72 74 -105.5 168t-33.5 227zM469 451q0 -33 12 -91 l269 314q-33 25 -55 34t-54 9q-172 0 -172 -266zM524 297q42 -59 117 -59q80 0 124 64t44 179q0 65 -18 125z" />
<glyph unicode="&#xf9;" horiz-adv-x="1273" d="M102 352v68v536h396v-415q0 -135 31 -188.5t108 -53.5q45 0 80 23t47 61q9 26 10.5 47.5t1.5 106.5v419h395v-956h-395v127q-85 -88 -152 -121t-161 -33q-72 0 -141 22t-115 60q-105 89 -105 297zM195 1364l297 100l315 -374l-137 -27z" />
<glyph unicode="&#xfa;" horiz-adv-x="1273" d="M102 352v68v536h396v-415q0 -135 31 -188.5t108 -53.5q45 0 80 23t47 61q9 26 10.5 47.5t1.5 106.5v419h395v-956h-395v127q-85 -88 -152 -121t-161 -33q-72 0 -141 22t-115 60q-105 89 -105 297zM455 1085l319 377l293 -100l-471 -303z" />
<glyph unicode="&#xfb;" horiz-adv-x="1273" d="M102 352v68v536h396v-415q0 -135 31 -188.5t108 -53.5q45 0 80 23t47 61q9 26 10.5 47.5t1.5 106.5v419h395v-956h-395v127q-85 -88 -152 -121t-161 -33q-72 0 -141 22t-115 60q-105 89 -105 297zM236 1106l303 328h184l315 -328l-112 -37l-295 193l-283 -193z" />
<glyph unicode="&#xfc;" horiz-adv-x="1273" d="M102 352v68v536h396v-415q0 -135 31 -188.5t108 -53.5q45 0 80 23t47 61q9 26 10.5 47.5t1.5 106.5v419h395v-956h-395v127q-85 -88 -152 -121t-161 -33q-72 0 -141 22t-115 60q-105 89 -105 297zM242 1253q0 72 49 119t127 47t127 -46t49 -120q0 -73 -49.5 -120.5 t-126.5 -47.5t-126.5 47.5t-49.5 120.5zM682 1253q0 74 48.5 120t127.5 46q78 0 127 -46t49 -120q0 -73 -49.5 -120.5t-126.5 -47.5q-79 0 -127.5 46.5t-48.5 121.5z" />
<glyph unicode="&#xfd;" horiz-adv-x="1056" d="M-47 -119q37 -2 76 -2q74 0 109 1.5t67 5t46.5 14.5t25 24t24.5 41l16 33l-335 958h440l131 -512l172 512h379l-373 -886q-29 -67 -98 -213q-39 -79 -71 -127t-69 -83.5t-87 -51.5t-110.5 -23t-154.5 -6q-9 0 -43 -1t-59 -1zM373 1085l319 377l291 -100l-469 -303z" />
<glyph unicode="&#xfe;" horiz-adv-x="1300" d="M102 -436v1870h396v-580q66 73 130 101t165 28q209 0 324.5 -130.5t115.5 -365.5q0 -238 -121.5 -376t-331.5 -138q-84 0 -143.5 23.5t-138.5 87.5v-520h-396zM498 481q0 -109 42.5 -169t118.5 -60q72 0 113 59.5t41 165.5q0 107 -39.5 166t-111.5 59q-76 0 -120 -59 t-44 -162z" />
<glyph unicode="&#xff;" horiz-adv-x="1056" d="M-47 -119q37 -2 76 -2q74 0 109 1.5t67 5t46.5 14.5t25 24t24.5 41l16 33l-335 958h440l131 -512l172 512h379l-373 -886q-29 -67 -98 -213q-39 -79 -71 -127t-69 -83.5t-87 -51.5t-110.5 -23t-154.5 -6q-9 0 -43 -1t-59 -1zM154 1253q0 72 49 119t127 47t127 -46 t49 -120q0 -73 -49.5 -120.5t-126.5 -47.5t-126.5 47.5t-49.5 120.5zM594 1253q0 74 48.5 120t127.5 46q78 0 127 -46t49 -120q0 -73 -49.5 -120.5t-126.5 -47.5q-79 0 -127.5 46.5t-48.5 121.5z" />
<glyph unicode="&#x152;" horiz-adv-x="1945" d="M72 682q0 324 177 512t484 188q89 0 240 -16h815v-328h-455v-202h459v-308h-459v-200h535v-328h-944q-119 -25 -226 -25q-135 0 -254 47.5t-202 135.5q-88 94 -129 220t-41 304zM532 649q0 -348 250 -348q71 0 142 35v694q-65 23 -129 23q-139 0 -201 -95t-62 -309z" />
<glyph unicode="&#x153;" horiz-adv-x="1806" d="M68 483q0 239 118.5 369.5t335.5 130.5q126 0 200.5 -25t147.5 -92q88 66 168.5 91.5t200.5 25.5q229 0 348 -98q72 -60 113 -160.5t41 -218.5q0 -32 -6 -90h-643q1 -124 29.5 -173.5t99.5 -49.5q51 0 83 29.5t54 96.5l342 -92q-50 -131 -171.5 -192.5t-334.5 -61.5 q-117 0 -200 27t-156 90q-69 -63 -146 -90t-186 -27q-214 0 -326 130.5t-112 379.5zM467 475q0 -109 37 -168t106 -59q64 0 99.5 60.5t35.5 170.5q0 101 -36.5 157t-102.5 56q-64 0 -101.5 -58.5t-37.5 -158.5zM1096 598h266q-3 86 -34.5 125t-98.5 39q-118 0 -133 -164z " />
<glyph unicode="&#x178;" horiz-adv-x="1267" d="M-82 1366h469l279 -465l245 465h432l-497 -819v-547h-424v528zM233 1655q0 76 51.5 125t131.5 49q82 0 133 -48.5t51 -125.5t-51 -125.5t-133 -48.5q-80 0 -131.5 49t-51.5 125zM688 1655q0 78 50 126t132 48t133.5 -48.5t51.5 -125.5t-51.5 -125.5t-133.5 -48.5t-132 48 t-50 126z" />
<glyph unicode="&#x2c6;" horiz-adv-x="1024" d="M111 1106l303 328h184l315 -328l-112 -37l-295 193l-283 -193z" />
<glyph unicode="&#x2dc;" horiz-adv-x="1024" d="M113 1141q40 110 108.5 173.5t147.5 63.5q40 0 77.5 -13.5t100.5 -49.5q72 -45 137 -45q46 0 91.5 27.5t80.5 76.5l57 -28q-115 -234 -280 -234q-43 0 -75 11t-95 48q-102 60 -156 60q-44 0 -71.5 -24t-67.5 -95z" />
<glyph unicode="&#x2000;" horiz-adv-x="936" />
<glyph unicode="&#x2001;" horiz-adv-x="1872" />
<glyph unicode="&#x2002;" horiz-adv-x="936" />
<glyph unicode="&#x2003;" horiz-adv-x="1872" />
<glyph unicode="&#x2004;" horiz-adv-x="624" />
<glyph unicode="&#x2005;" horiz-adv-x="468" />
<glyph unicode="&#x2006;" horiz-adv-x="312" />
<glyph unicode="&#x2007;" horiz-adv-x="312" />
<glyph unicode="&#x2008;" horiz-adv-x="234" />
<glyph unicode="&#x2009;" horiz-adv-x="374" />
<glyph unicode="&#x200a;" horiz-adv-x="104" />
<glyph unicode="&#x2010;" horiz-adv-x="557" d="M0 373v252h557v-252h-557z" />
<glyph unicode="&#x2011;" horiz-adv-x="557" d="M0 373v252h557v-252h-557z" />
<glyph unicode="&#x2012;" horiz-adv-x="557" d="M0 373v252h557v-252h-557z" />
<glyph unicode="&#x2013;" d="M86 424v149h1071v-149h-1071z" />
<glyph unicode="&#x2014;" horiz-adv-x="1665" d="M0 424v149h1665v-149h-1665z" />
<glyph unicode="&#x2018;" horiz-adv-x="651" d="M129 731v285l221 389l213 29l-67 -240q-25 -86 -31 -125q-14 -79 -14 -145v-193h-322z" />
<glyph unicode="&#x2019;" horiz-adv-x="665" d="M88 731l68 240q23 77 30 125q15 88 15 145v193h321v-287l-221 -387z" />
<glyph unicode="&#x201a;" horiz-adv-x="460" d="M14 -268l60 217q41 141 41 241v175h288v-259l-198 -348z" />
<glyph unicode="&#x201c;" horiz-adv-x="1087" d="M129 731v285l221 389l213 29l-67 -240q-25 -86 -31 -125q-14 -79 -14 -145v-193h-322zM565 731v285l221 389l213 29l-67 -240q-25 -84 -31 -125q-14 -82 -14 -145v-193h-322z" />
<glyph unicode="&#x201d;" horiz-adv-x="1087" d="M88 731l68 240q23 77 30 125q15 88 15 145v193h321v-287l-221 -387zM524 731l68 240q25 84 31 125q14 82 14 145v193h321v-287l-221 -387z" />
<glyph unicode="&#x201e;" horiz-adv-x="1087" d="M88 -299l68 240q23 77 30 125q15 88 15 145v192h321v-286l-221 -387zM524 -299l68 240q25 84 31 125q14 82 14 145v192h321v-286l-221 -387z" />
<glyph unicode="&#x2022;" horiz-adv-x="1366" d="M401 696q0 117 83.5 200t203.5 83q116 0 198.5 -83t82.5 -200t-82.5 -200.5t-198.5 -83.5q-120 0 -203.5 82.5t-83.5 201.5z" />
<glyph unicode="&#x2026;" horiz-adv-x="1806" d="M94 174q0 88 59 144.5t150 56.5q92 0 151.5 -56.5t59.5 -144.5t-59.5 -144.5t-151.5 -56.5q-91 0 -150 56.5t-59 144.5zM696 174q0 88 59 144.5t150 56.5q92 0 151.5 -56.5t59.5 -144.5t-59.5 -144.5t-151.5 -56.5q-91 0 -150 56.5t-59 144.5zM1298 174q0 88 59 144.5 t150 56.5q92 0 151.5 -56.5t59.5 -144.5t-59.5 -144.5t-151.5 -56.5q-91 0 -150 56.5t-59 144.5z" />
<glyph unicode="&#x202f;" horiz-adv-x="374" />
<glyph unicode="&#x2039;" horiz-adv-x="598" d="M61 477l256 479h205l-143 -479l143 -477h-205z" />
<glyph unicode="&#x203a;" horiz-adv-x="598" d="M76 956h205l256 -477l-254 -479h-205l141 479z" />
<glyph unicode="&#x205f;" horiz-adv-x="468" />
<glyph unicode="&#x2122;" horiz-adv-x="1925" d="M-14 1161v205h706v-205h-217v-614h-272v614h-217zM756 547v819h354l172 -412l178 412h346v-819h-264v434l-156 -434h-206l-160 434v-434h-264z" />
<glyph unicode="&#x25fc;" horiz-adv-x="952" d="M0 0v952h952v-952h-952z" />
<glyph unicode="&#xfb01;" horiz-adv-x="1323" d="M10 649v307h133v50q0 232 91 330t305 98q104 0 235 -29l-61 -283q-41 8 -66 8q-106 0 -106 -129v-45h172v-307h-172v-649h-398v649h-133zM805 1225q0 89 59.5 145.5t151.5 56.5q94 0 153.5 -56.5t59.5 -145.5t-59.5 -146t-153.5 -57q-92 0 -151.5 57t-59.5 146zM825 0 v956h396v-956h-396z" />
<glyph unicode="&#xfb02;" horiz-adv-x="1337" d="M10 649v307h133v50q0 232 91 330t305 98q104 0 235 -29l-61 -283q-41 8 -66 8q-106 0 -106 -129v-45h172v-307h-172v-649h-398v649h-133zM838 0v1434h395v-1434h-395z" />
</font>
</defs>
</svg>
